OxygenSans-Bold.sfdir
StartChar: exclam
Encoding: 33 33 211
Width: 613
VWidth: 0
GlyphClass: 2
Flags: W
HStem: -10 279<205.75 409.75>
VStem: 168 279<27.8822 233.835> 198 221<1108.54 1480>
LayerCount: 2
UndoRedoHistory
Layer: 1
Undoes
EndUndoes
Redoes
EndRedoes
EndUndoRedoHistory
Fore
SplineSet
263 439 m 1xa0
 198 1298 l 1
 198 1480 l 1
 419 1480 l 1
 419 1298 l 1
 361 439 l 1
 263 439 l 1xa0
308 -10 m 0
 222 -10 168 58 168 130 c 0
 168 203 222 269 308 269 c 0
 394 269 447 203 447 130 c 0xc0
 447 57 394 -10 308 -10 c 0
EndSplineSet
EndChar
StartChar: quotedbl
Encoding: 34 34 307
Width: 724
VWidth: 0
GlyphClass: 2
Flags: W
HStem: 959 511<152 286 479 612>
VStem: 152 134<959 1174.46> 479 133<959 1168.31>
LayerCount: 2
UndoRedoHistory
Layer: 1
Undoes
EndUndoes
Redoes
EndRedoes
EndUndoRedoHistory
Fore
SplineSet
152 959 m 1
 118 1470 l 1
 315 1470 l 1
 286 959 l 1
 152 959 l 1
479 959 m 1
 444 1470 l 1
 642 1470 l 1
 612 959 l 1
 479 959 l 1
EndSplineSet
EndChar
StartChar: numbersign
Encoding: 35 35 273
Width: 1227
VWidth: 0
GlyphClass: 2
Flags: W
HStem: -9 21G<236 379.814 616 759.858> 442 112<156 322 484 702 865 1038> 958 112<243 421 583 801 963 1125>
LayerCount: 2
UndoRedoHistory
Layer: 1
Undoes
EndUndoes
Redoes
EndRedoes
EndUndoRedoHistory
Fore
SplineSet
616 -9 m 1
 702 442 l 1
 462 442 l 1
 376 -9 l 1
 236 -9 l 1
 322 442 l 1
 140 442 l 1
 156 554 l 1
 343 554 l 1
 421 958 l 1
 227 958 l 1
 243 1070 l 1
 442 1070 l 1
 514 1448 l 1
 656 1448 l 1
 583 1070 l 1
 823 1070 l 1
 895 1448 l 1
 1036 1448 l 1
 963 1070 l 1
 1142 1070 l 1
 1125 958 l 1
 942 958 l 1
 865 554 l 1
 1054 554 l 1
 1038 442 l 1
 843 442 l 1
 756 -9 l 1
 616 -9 l 1
723 554 m 1
 801 958 l 1
 562 958 l 1
 484 554 l 1
 723 554 l 1
EndSplineSet
EndChar
StartChar: percent
Encoding: 37 37 297
Width: 1794
VWidth: 0
GlyphClass: 2
Flags: W
HStem: -14 119<1308.69 1565.55> 623 117<1309.28 1565.91> 715 119<289.695 546.551> 1352 117<290.275 546.912>
VStem: 66 143<918.537 1267.77> 626 146<919.132 1269.42> 1085 143<189.263 538.498> 1645 146<189.858 540.151>
LayerCount: 2
UndoRedoHistory
Layer: 1
Undoes
EndUndoes
Redoes
EndRedoes
EndUndoRedoHistory
Fore
SplineSet
423 0 m 1x9f
 1266 1457 l 1
 1421 1457 l 1
 587 0 l 1
 423 0 l 1x9f
418 715 m 0xbf
 186 715 66 881 66 1093 c 0
 66 1306 189 1469 418 1469 c 0
 651 1469 772 1309 772 1093 c 0
 772 881 648 715 418 715 c 0xbf
419 834 m 0
 564 834 626 949 626 1095 c 0
 626 1245 563 1352 419 1352 c 0
 274 1352 209 1240 209 1095 c 0
 209 946 274 834 419 834 c 0
1438 105 m 0
 1583 105 1645 219 1645 365 c 0
 1645 515 1582 623 1438 623 c 0xdf
 1293 623 1228 510 1228 365 c 0
 1228 216 1293 105 1438 105 c 0
1437 -14 m 0
 1205 -14 1085 152 1085 364 c 0
 1085 577 1208 740 1437 740 c 0
 1670 740 1791 580 1791 364 c 0
 1791 152 1667 -14 1437 -14 c 0
EndSplineSet
EndChar
StartChar: ampersand
Encoding: 38 38 151
Width: 1414
VWidth: 0
GlyphClass: 2
Flags: W
HStem: -18 174<457.865 842.779> 1319 157<522.421 786.695>
VStem: 129 218<261.058 550.249> 265 208<1001.33 1271.14> 827 204<1045.52 1279.31>
LayerCount: 2
UndoRedoHistory
Layer: 1
Undoes
EndUndoes
Redoes
EndRedoes
EndUndoRedoHistory
Fore
SplineSet
599 895 m 1xd8
 714 954 827 1050 827 1166 c 0
 827 1268 763 1319 660 1319 c 0
 555 1319 473 1266 473 1162 c 0
 473 1072 515 979 599 895 c 1xd8
644 156 m 0
 757 156 840 187 911 244 c 1
 523 674 l 1
 418 613 347 524 347 401 c 0xe8
 347 234 475 156 644 156 c 0
635 -18 m 0
 346 -18 129 116 129 392 c 0xe8
 129 604 253 713 415 804 c 1
 327 902 265 1018 265 1145 c 0xd8
 265 1357 447 1476 655 1476 c 0
 846 1476 1031 1383 1031 1171 c 0
 1031 994 872 859 704 771 c 1
 1057 381 l 1
 1108 438 1170 539 1206 613 c 1
 1359 513 l 1
 1318 427 1248 319 1182 248 c 1
 1365 61 l 1
 1166 -16 l 1
 1032 111 l 1
 906 18 813 -18 635 -18 c 0
EndSplineSet
EndChar
StartChar: quotesingle
Encoding: 39 39 314
Width: 448
VWidth: 0
GlyphClass: 2
Flags: W
HStem: 925 524<167 304>
VStem: 140 187<1170.78 1449>
LayerCount: 2
UndoRedoHistory
Layer: 1
Undoes
EndUndoes
Redoes
EndRedoes
EndUndoRedoHistory
Fore
SplineSet
167 925 m 1
 140 1449 l 1
 327 1449 l 1
 304 925 l 1
 167 925 l 1
EndSplineSet
EndChar
StartChar: parenleft
Encoding: 40 40 294
Width: 727
VWidth: 0
GlyphClass: 2
Flags: W
VStem: 188 218<332.813 1036.06>
LayerCount: 2
UndoRedoHistory
Layer: 1
Undoes
EndUndoes
Redoes
EndRedoes
EndUndoRedoHistory
Fore
SplineSet
459 -186 m 1
 294 46 188 341 188 689 c 0
 188 1025 300 1329 458 1549 c 1
 670 1549 l 1
 529 1337 406 1017 406 692 c 0
 406 372 503 84 668 -186 c 1
 459 -186 l 1
EndSplineSet
EndChar
StartChar: parenright
Encoding: 41 41 295
Width: 734
VWidth: 0
GlyphClass: 2
Flags: W
VStem: 366 219<340.353 1050.03>
LayerCount: 2
UndoRedoHistory
Layer: 1
Undoes
EndUndoes
Redoes
EndRedoes
EndUndoRedoHistory
Fore
SplineSet
103 -186 m 1
 242 21 366 366 366 701 c 0
 366 1011 271 1275 104 1549 c 1
 314 1549 l 1
 481 1309 585 1036 585 702 c 0
 585 352 470 25 314 -186 c 1
 103 -186 l 1
EndSplineSet
EndChar
StartChar: asterisk
Encoding: 42 42 158
Width: 1148
VWidth: 0
GlyphClass: 2
Flags: W
HStem: 1449 20G<470 678>
LayerCount: 2
UndoRedoHistory
Layer: 1
Undoes
EndUndoes
Redoes
EndRedoes
EndUndoRedoHistory
Fore
SplineSet
398 535 m 1
 216 640 l 1
 452 948 l 1
 109 1025 l 1
 167 1223 l 1
 504 1082 l 1
 470 1469 l 1
 678 1469 l 1
 644 1082 l 1
 983 1223 l 1
 1041 1025 l 1
 694 948 l 1
 735 895 890 695 933 640 c 1
 907 623 780 551 754 534 c 1
 571 864 l 1
 398 535 l 1
EndSplineSet
EndChar
StartChar: plus
Encoding: 43 43 301
Width: 1085
VWidth: 0
GlyphClass: 2
Flags: W
HStem: 557 166<95 482 656 1039>
VStem: 482 173<154 557 723 1123>
LayerCount: 2
UndoRedoHistory
Layer: 1
Undoes
EndUndoes
Redoes
EndRedoes
EndUndoRedoHistory
Fore
SplineSet
482 154 m 1
 482 557 l 1
 95 557 l 1
 95 723 l 1
 483 723 l 1
 483 1123 l 1
 656 1123 l 1
 656 723 l 1
 1039 723 l 1
 1039 557 l 1
 655 557 l 1
 655 154 l 1
 482 154 l 1
EndSplineSet
EndChar
StartChar: comma
Encoding: 44 44 182
Width: 517
VWidth: 0
GlyphClass: 2
Flags: W
HStem: -262 508<197 288.366>
VStem: 125 151<-262 -120.514> 197 213<45.373 246>
LayerCount: 2
UndoRedoHistory
Layer: 1
Undoes
EndUndoes
Redoes
EndRedoes
EndUndoRedoHistory
Fore
SplineSet
125 -262 m 1xc0
 125 -262 197 214 197 246 c 1
 415 246 l 1
 410 196 l 1xa0
 410 183 276 -262 276 -262 c 1
 125 -262 l 1xc0
EndSplineSet
EndChar
StartChar: hyphen
Encoding: 45 45 234
Width: 660
VWidth: 0
GlyphClass: 2
Flags: W
HStem: 462 171<72 582>
VStem: 72 510<462 633>
LayerCount: 2
UndoRedoHistory
Layer: 1
Undoes
EndUndoes
Redoes
EndRedoes
EndUndoRedoHistory
Fore
SplineSet
72 462 m 1
 72 633 l 1
 582 633 l 1
 582 462 l 1
 72 462 l 1
EndSplineSet
EndChar
StartChar: period
Encoding: 46 46 298
Width: 533
VWidth: 0
GlyphClass: 2
Flags: W
HStem: -3 274<181.644 385.309>
VStem: 146 274<31.5487 235.928>
LayerCount: 2
UndoRedoHistory
Layer: 1
Undoes
EndUndoes
Redoes
EndRedoes
EndUndoRedoHistory
Fore
SplineSet
284 -3 m 0
 201 -3 146 61 146 133 c 0
 146 205 200 271 284 271 c 0
 367 271 420 205 420 133 c 0
 420 62 367 -3 284 -3 c 0
EndSplineSet
EndChar
StartChar: slash
Encoding: 47 47 333
Width: 934
VWidth: 0
GlyphClass: 2
Flags: W
LayerCount: 2
UndoRedoHistory
Layer: 1
Undoes
EndUndoes
Redoes
EndRedoes
EndUndoRedoHistory
Fore
SplineSet
78 -163 m 1
 708 1444 l 1
 893 1444 l 1
 259 -163 l 1
 78 -163 l 1
EndSplineSet
EndChar
StartChar: zero
Encoding: 48 48 578
Width: 1239
VWidth: 0
GlyphClass: 2
Flags: W
HStem: -24 184<513.218 772.405> 1291 184<514.935 771.257>
VStem: 125 231<385.014 1065.73> 926 232<384.59 1072.61>
LayerCount: 2
UndoRedoHistory
Layer: 1
Undoes
EndUndoes
Redoes
EndRedoes
EndUndoRedoHistory
Fore
SplineSet
643 -24 m 0
 268 -24 125 320 125 725 c 0
 125 1145 278 1475 643 1475 c 0
 1010 1475 1158 1143 1158 725 c 0
 1158 320 1018 -24 643 -24 c 0
643 160 m 0
 844 160 926 397 926 731 c 0
 926 1066 844 1291 643 1291 c 0
 443 1291 357 1056 356 733 c 1
 356 398 442 160 643 160 c 0
EndSplineSet
EndChar
StartChar: one
Encoding: 49 49 285
Width: 1229
VWidth: 0
GlyphClass: 2
Flags: W
HStem: 0 179<241 577 806 1107> 1139 181<261 407.109> 1437 20G<563.5 806>
VStem: 577 229<179 1243.46>
LayerCount: 2
UndoRedoHistory
Layer: 1
Undoes
EndUndoes
Redoes
EndRedoes
EndUndoRedoHistory
Fore
SplineSet
241 0 m 1
 241 179 l 1
 577 179 l 1
 577 1243.46104687 l 1
 496.475323245 1196.38492071 365.961658 1154.58024611 261 1139 c 1
 261 1320 l 1
 369 1347 523 1399 604 1457 c 1
 806 1457 l 1
 806 179 l 1
 1107 179 l 1
 1107 0 l 1
 241 0 l 1
EndSplineSet
EndChar
StartChar: two
Encoding: 50 50 345
Width: 1229
VWidth: 0
GlyphClass: 2
Flags: W
HStem: 0 179<436.102 1033> 1274 201<361.158 737.902>
VStem: 820 230<888.607 1195.66>
LayerCount: 2
UndoRedoHistory
Layer: 1
Undoes
EndUndoes
Redoes
EndRedoes
EndUndoRedoHistory
Fore
SplineSet
181 0 m 1
 166 184 l 1
 647 712 l 1
 750 823 820 929 820 1053 c 0
 820 1227 692 1274 577 1274 c 0
 459 1274 326 1227 249 1173 c 1
 181 1349 l 1
 279 1421 443 1475 601 1475 c 0
 807 1475 1050 1374 1050 1067 c 0
 1050 880 970 749 786 553 c 2
 436.102222222 179 l 1
 1048 179 l 1
 1033 0 l 1
 181 0 l 1
EndSplineSet
EndChar
StartChar: three
Encoding: 51 51 341
Width: 1229
VWidth: 0
GlyphClass: 2
Flags: W
HStem: -24 192<347.181 758.715> 672 181<400 718.16> 1294 182<341.109 739.343>
VStem: 830 228<949.989 1207.13> 859 237<264.454 556.186>
CounterMasks: 1 e0
LayerCount: 2
UndoRedoHistory
Layer: 1
Undoes
EndUndoes
Redoes
EndRedoes
EndUndoRedoHistory
Fore
SplineSet
597 -24 m 0xe8
 435 -24 286 26 178 97 c 1
 249 260 l 1
 341 205 459 168 573 168 c 0
 740 168 859 243 859 403 c 0xe8
 859 624 693 667 455 672 c 1
 400 672 l 1
 400 853 l 1
 456 853 l 1
 660 856 830 893 830 1080 c 0
 830 1204 732 1294 573 1294 c 0
 450 1294 331 1257 244 1201 c 1
 176 1368 l 1
 289 1438 422 1476 589 1476 c 0
 849 1476 1058 1328 1058 1096 c 0xf0
 1058 928 972 820 822 769 c 1
 991 726 1096 582 1096 395 c 0
 1096 123 877 -24 597 -24 c 0xe8
EndSplineSet
EndChar
StartChar: four
Encoding: 52 52 215
Width: 1229
VWidth: 0
GlyphClass: 2
Flags: W
HStem: 0 21G<753 977> 342 177<336 753 977 1141> 1437 20G<698.086 977>
VStem: 753 224<0 342 522 1195>
LayerCount: 2
UndoRedoHistory
Layer: 1
Undoes
EndUndoes
Redoes
EndRedoes
EndUndoRedoHistory
Fore
SplineSet
336 519 m 1
 753 519 l 1
 753 1195 l 1
 336 519 l 1
753 0 m 1
 753 342 l 1
 106 342 l 1
 106 520 l 1
 711 1457 l 1
 977 1457 l 1
 977 522 l 1
 1155 522 l 1
 1141 342 l 1
 977 342 l 1
 977 0 l 1
 753 0 l 1
EndSplineSet
EndChar
StartChar: five
Encoding: 53 53 214
Width: 1229
VWidth: 0
GlyphClass: 2
Flags: W
HStem: -20 185<363.829 744.111> 736 180<476.963 777.267> 1273 184<468 1040>
VStem: 878 235<295.497 631.296>
CounterMasks: 1 e0
LayerCount: 2
UndoRedoHistory
Layer: 1
Undoes
EndUndoes
Redoes
EndRedoes
EndUndoRedoHistory
Fore
SplineSet
590 -20 m 0
 395 -20 210 74 156 111 c 1
 235 274 l 1
 280 245 419 165 566 165 c 0
 763 165 878 282 878 463 c 0
 878 623 789 736 624 736 c 0
 540 736 453 700 389 632 c 1
 218 657 l 1
 260 1457 l 1
 1056 1457 l 1
 1040 1273 l 1
 468 1273 l 1
 438 848 l 1
 481 878 561 916 684 916 c 0
 946 916 1113 722 1113 462 c 0
 1113 166 907 -20 590 -20 c 0
EndSplineSet
EndChar
StartChar: six
Encoding: 54 54 332
Width: 1229
VWidth: 0
GlyphClass: 2
Flags: W
HStem: -19 178<473.813 794.066> 717 171<545.093 804.151> 1437 20G<687.781 972>
VStem: 130 230<270.135 602.844> 912 231<276.739 604.846>
LayerCount: 2
UndoRedoHistory
Layer: 1
Undoes
EndUndoes
Redoes
EndRedoes
EndUndoRedoHistory
Fore
SplineSet
630 159 m 0
 812 159 912 281 912 440 c 0
 912 605 819 717 635 717 c 0
 477 717 360 626 360 436 c 0
 360 278 451 159 630 159 c 0
638 -19 m 0
 329 -19 130 180 130 447 c 0
 130 648 221 782 338 945 c 2
 702 1457 l 1
 972 1457 l 1
 638 988 l 2
 621.905929695 964.705950874 583.210469866 912.352972361 543.945162301 859.734010451 c 1
 582.467809366 876.198233606 627.241290229 888 677 888 c 0
 935 888 1143 709 1143 443 c 0
 1143 172 934 -19 638 -19 c 0
EndSplineSet
EndChar
StartChar: seven
Encoding: 55 55 331
Width: 1229
VWidth: 0
GlyphClass: 2
Flags: W
HStem: 0 21G<343 595.396> 1266 191<186 811>
LayerCount: 2
UndoRedoHistory
Layer: 1
Undoes
EndUndoes
Redoes
EndRedoes
EndUndoRedoHistory
Fore
SplineSet
343 0 m 1
 811 1266 l 1
 186 1266 l 1
 178 1457 l 1
 1068 1457 l 1
 1068 1298 l 1
 588 0 l 1
 343 0 l 1
EndSplineSet
EndChar
StartChar: eight
Encoding: 56 56 203
Width: 1229
VWidth: 0
GlyphClass: 2
Flags: W
HStem: -19 173<440.099 796.171> 1313 163<453.973 778.499>
VStem: 116 226<249.414 542.175> 145 220<959.072 1231.92> 865 220<955.02 1231.92> 888 225<241.559 543.43>
LayerCount: 2
UndoRedoHistory
Layer: 1
Undoes
EndUndoes
Redoes
EndRedoes
EndUndoRedoHistory
Fore
SplineSet
617 835 m 1xd8
 780 872 865 965 865 1109 c 0
 865 1233 766 1313 617 1313 c 0
 469 1313 365 1233 365 1109 c 0
 365 965 455 872 617 835 c 1xd8
617 154 m 0
 798 154 888 240 888 395 c 0
 888 549 775 650 617 689 c 1
 459 650 342 552 342 394 c 0xe4
 342 243 440 154 617 154 c 0
617 -19 m 0
 353 -19 116 114 116 375 c 0xe4
 116 563 229 701 391 769 c 1
 255 827 145 937 145 1108 c 0
 145 1350 358 1476 616 1476 c 0
 875 1476 1085 1350 1085 1108 c 0xd8
 1085 940 983 833 848 770 c 1
 1002 705 1113 557 1113 375 c 0
 1113 114 881 -19 617 -19 c 0
EndSplineSet
EndChar
StartChar: nine
Encoding: 57 57 270
Width: 1229
VWidth: 0
GlyphClass: 2
Flags: W
HStem: 0 21G<265 557.933> 565 173<468.754 718.778> 1296 180<473.639 800.396>
VStem: 124 231<849.326 1176.79> 909 229<853.634 1186.49>
LayerCount: 2
UndoRedoHistory
Layer: 1
Undoes
EndUndoes
Redoes
EndRedoes
EndUndoRedoHistory
Fore
SplineSet
633 738 m 0
 790 738 909 828 909 1021 c 0
 909 1180 818 1296 639 1296 c 0
 457 1296 355 1177 355 1016 c 0
 355 849 449 738 633 738 c 0
265 0 m 1
 642 490 l 2
 657.512421846 510.941769544 689.418118915 552.036739773 722.669099123 594.504083404 c 1
 682.55628818 577.383869003 637.217991291 565 590 565 c 0
 332 565 124 743 124 1012 c 0
 124 1285 333 1476 629 1476 c 0
 938 1476 1138 1277 1138 1009 c 0
 1138 811 1045 676 932 521 c 0
 916 500 543 0 543 0 c 1
 265 0 l 1
EndSplineSet
EndChar
StartChar: colon
Encoding: 58 58 181
Width: 605
VWidth: 0
GlyphClass: 2
Flags: W
HStem: 0 252<195 430> 839 246<195 430>
VStem: 195 235<0 252 839 1085>
LayerCount: 2
UndoRedoHistory
Layer: 1
Undoes
EndUndoes
Redoes
EndRedoes
EndUndoRedoHistory
Fore
SplineSet
195 839 m 1
 195 1085 l 1
 430 1085 l 1
 430 839 l 1
 195 839 l 1
195 0 m 1
 195 252 l 1
 430 252 l 1
 430 0 l 1
 195 0 l 1
EndSplineSet
EndChar
StartChar: semicolon
Encoding: 59 59 330
Width: 600
VWidth: 0
GlyphClass: 2
Flags: W
HStem: 839 246<206 442>
VStem: 206 236<839 1085>
LayerCount: 2
UndoRedoHistory
Layer: 1
Undoes
EndUndoes
Redoes
EndRedoes
EndUndoRedoHistory
Fore
SplineSet
184 -306 m 1
 238 229 l 1
 445 229 l 1
 321 -306 l 1
 184 -306 l 1
206 839 m 1
 206 1085 l 1
 442 1085 l 1
 442 839 l 1
 206 839 l 1
EndSplineSet
EndChar
StartChar: less
Encoding: 60 60 256
Width: 1157
VWidth: 0
GlyphClass: 2
Flags: W
LayerCount: 2
UndoRedoHistory
Layer: 1
Undoes
EndUndoes
Redoes
EndRedoes
EndUndoRedoHistory
Fore
SplineSet
1046 162 m 1
 107 613 l 1
 107 726 l 1
 1047 1208 l 1
 1047 1022 l 1
 343 675 l 1
 1045 355 l 2
 1046 354 1046 162 1046 162 c 1
EndSplineSet
EndChar
StartChar: greater
Encoding: 62 62 224
Width: 1161
VWidth: 0
GlyphClass: 2
Flags: W
LayerCount: 2
UndoRedoHistory
Layer: 1
Undoes
EndUndoes
Redoes
EndRedoes
EndUndoRedoHistory
Fore
SplineSet
147 166 m 1
 147 360 l 1
 848 675 l 1
 148 1025 l 1
 148 1212 l 1
 1088 725 l 1
 1088 613 l 1
 147 166 l 1
EndSplineSet
EndChar
StartChar: question
Encoding: 63 63 305
Width: 971
VWidth: 0
GlyphClass: 2
Flags: W
HStem: -10 279<349 549.5> 1310 171<280.759 611.986>
VStem: 311 275<27.8822 233.835> 669 190<967.163 1251.21>
LayerCount: 2
UndoRedoHistory
Layer: 1
Undoes
EndUndoes
Redoes
EndRedoes
EndUndoRedoHistory
Fore
SplineSet
450 -10 m 0
 366 -10 311 57 311 130 c 0
 311 203 365 269 450 269 c 0
 534 269 586 203 586 130 c 0
 586 57 534 -10 450 -10 c 0
501 439 m 1
 399 439 l 1
 424 705 669 931 669 1128 c 1
 668 1246 595 1310 472 1310 c 0
 352 1310 263 1260 211 1228 c 1
 151 1382 l 1
 240 1442 348 1481 495 1481 c 0
 673 1481 859 1372 859 1154 c 0
 859 902 634 751 501 439 c 1
EndSplineSet
EndChar
StartChar: at
Encoding: 64 64 159
Width: 1880
VWidth: 0
GlyphClass: 2
Flags: W
HStem: -151 130<670.533 1218.8> 252 117<767.511 989.395 1286.77 1478.04> 980 111<871.34 1144.01> 1355 131<731.295 1240.25>
VStem: 128 160<380.637 893.965> 553 157<428.581 796.747> 1609 143<534.234 1004.38>
CounterMasks: 2 f0 0e
LayerCount: 2
UndoRedoHistory
Layer: 1
Undoes
EndUndoes
Redoes
EndRedoes
EndUndoRedoHistory
Fore
SplineSet
874 369 m 0
 1026 369 1074 521 1106 717 c 0
 1108.17035806 730.745601044 1132.84621907 875.860533293 1147.08560649 962.265805569 c 1
 1101.99729913 971.834852309 1046.3996511 980 1011 980 c 0
 824 980 710 791 710 594 c 0
 710 456 766 369 874 369 c 0
921 -151 m 0
 452 -151 128 149 128 638 c 0
 128 1126 491 1486 988 1486 c 0
 1417 1486 1752 1210 1752 772 c 0
 1752 430 1547 256 1376 256 c 0
 1245.74600964 256.000000008 1168.49172939 337.220334949 1138.526659 465.39800346 c 1
 1089.62628445 358.930091523 997.727816299 252 857 252 c 0
 655 252 553 403 553 597 c 0
 553 841 711 1091 995 1091 c 0
 1091 1091 1230 1063 1316 1020 c 1
 1288 820 1251 637 1251 514 c 0
 1251 433 1301 374 1376 374 c 0
 1493 374 1609 511 1609 780 c 0
 1609 1078 1409 1355 981 1355 c 0
 546 1355 288 1013 288 634 c 0
 288 269 516 -21 924 -21 c 0
 1088 -21 1258 20 1390 95 c 1
 1433 -21 l 1
 1305 -107 1112 -151 921 -151 c 0
EndSplineSet
EndChar
StartChar: A
Encoding: 65 65 1
Width: 1432
VWidth: 0
GlyphClass: 2
Flags: W
HStem: 0 21G<40 309.131 1126.64 1392> 424 170<508.024 923.916> 1440 20G<559.781 873.205>
LayerCount: 2
UndoRedoHistory
Layer: 1
Undoes
EndUndoes
Redoes
EndRedoes
EndUndoRedoHistory
Fore
SplineSet
40 0 m 1
 567 1460 l 1
 866 1460 l 1
 1392 0 l 1
 1134 0 l 1
 978.066115702 424 l 1
 453.180327869 424 l 1
 302 0 l 1
 40 0 l 1
923.916030534 594 m 1
 718.686487616 1234.1207172 l 1
 508.024142313 594 l 1
 923.916030534 594 l 1
EndSplineSet
EndChar
StartChar: B
Encoding: 66 66 13
Width: 1361
VWidth: 0
GlyphClass: 2
Flags: W
HStem: 0 191<413 906.496> 684 170<413 888.313> 1274 186<413 879.682>
VStem: 160 253<191 684 854 1274> 962 245<922.659 1202.06> 1008 253<284.587 588.189>
LayerCount: 2
UndoRedoHistory
Layer: 1
Undoes
EndUndoes
Redoes
EndRedoes
EndUndoRedoHistory
Fore
SplineSet
160 0 m 1xf4
 160 1460 l 1
 654 1460 l 2
 1015 1460 1207 1361 1207 1098 c 1xf8
 1207 955.984112341 1144.08413441 850.849938925 995.49812255 781.367518728 c 1
 1151.79257655 725.182316205 1261 613.645468475 1261 424 c 0
 1261 156 1069 0 733 0 c 2
 160 0 l 1xf4
413 1274 m 1
 413 854 l 1
 687 854 l 2
 863 854 962 903 962 1064 c 0
 962 1233 857 1274 633 1274 c 2
 413 1274 l 1
413 684 m 1
 413 191 l 1
 690 191 l 2
 909 191 1008 265 1008 438 c 0xf4
 1008 618 898 684 662 684 c 2
 413 684 l 1
EndSplineSet
EndChar
StartChar: C
Encoding: 67 67 14
Width: 1312
VWidth: 0
GlyphClass: 2
Flags: W
HStem: -19 203<635.185 1102.35> 1276 200<625.212 1070.42>
VStem: 108 254<477.604 982.015>
LayerCount: 2
UndoRedoHistory
Layer: 1
Undoes
EndUndoes
Redoes
EndRedoes
EndUndoRedoHistory
Fore
SplineSet
819 -19 m 0
 416 -19 108 241 108 734 c 0
 108 1221 428 1476 817 1476 c 0
 978 1476 1124 1432 1231 1361 c 1
 1158 1192 l 1
 1068 1244 947 1276 834 1276 c 0
 567 1276 362 1093 362 729 c 0
 362 356 572 184 844 184 c 0
 972 184 1104 224 1174 257 c 1
 1225 68 l 1
 1131 23 977 -19 819 -19 c 0
EndSplineSet
EndChar
StartChar: D
Encoding: 68 68 21
Width: 1519
VWidth: 0
GlyphClass: 2
Flags: W
HStem: 0 191<413 871.364> 1274 186<413 867.799>
VStem: 160 253<191 1274> 1159 252<473.901 988.561>
LayerCount: 2
UndoRedoHistory
Layer: 1
Undoes
EndUndoes
Redoes
EndRedoes
EndUndoRedoHistory
Fore
SplineSet
160 0 m 1
 160 1460 l 1
 596 1460 l 2
 1073 1460 1411 1233 1411 736 c 0
 1411 260 1096 0 623 0 c 2
 160 0 l 1
413 1274 m 1
 413 191 l 1
 627 191 l 2
 975 191 1159 382 1159 731 c 0
 1159 1113 957 1274 599 1274 c 2
 413 1274 l 1
EndSplineSet
EndChar
StartChar: E
Encoding: 69 69 25
Width: 1214
VWidth: 0
GlyphClass: 2
Flags: W
HStem: 0 191<413 1081> 667 187<413 1036> 1274 186<413 1079>
VStem: 160 253<191 667 854 1274>
LayerCount: 2
UndoRedoHistory
Layer: 1
Undoes
EndUndoes
Redoes
EndRedoes
EndUndoRedoHistory
Fore
SplineSet
160 0 m 1
 160 1460 l 1
 1089 1460 l 1
 1079 1274 l 1
 413 1274 l 1
 413 854 l 1
 1036 854 l 1
 1036 667 l 1
 413 667 l 1
 413 191 l 1
 1096 191 l 1
 1081 0 l 1
 160 0 l 1
EndSplineSet
EndChar
StartChar: F
Encoding: 70 70 39
Width: 1136
VWidth: 0
GlyphClass: 2
Flags: W
HStem: 0 21G<160 414> 638 184<414 1016> 1267 193<414 1072>
VStem: 160 254<0 638 822 1267>
LayerCount: 2
UndoRedoHistory
Layer: 1
Undoes
EndUndoes
Redoes
EndRedoes
EndUndoRedoHistory
Fore
SplineSet
160 0 m 1
 160 1460 l 1
 1083 1460 l 1
 1072 1267 l 1
 414 1267 l 1
 414 822 l 1
 1016 822 l 1
 1016 638 l 1
 414 638 l 1
 414 0 l 1
 160 0 l 1
EndSplineSet
EndChar
StartChar: G
Encoding: 71 71 40
Width: 1460
VWidth: 0
GlyphClass: 2
Flags: W
HStem: -19 202<610.366 1093.94> 578 188<782 1096> 1277 199<633.524 1096.93>
VStem: 108 254<458.714 984.017> 1096 222<210.668 578>
LayerCount: 2
UndoRedoHistory
Layer: 1
Undoes
EndUndoes
Redoes
EndRedoes
EndUndoRedoHistory
Fore
SplineSet
807 -19 m 0
 366 -19 108 286 108 730 c 0
 108 1187 418 1476 838 1476 c 0
 1013 1476 1147 1442 1285 1363 c 1
 1224 1176 l 1
 1116 1231 1002 1277 848 1277 c 0
 549 1277 362 1063 362 732 c 0
 362 399 503 183 827 183 c 0
 956.347185612 183 1037.49514075 202.465073847 1096 224.673306309 c 1
 1096 578 l 1
 779 578 l 1
 782 766 l 1
 1318 766 l 1
 1318 81 l 1
 1164 17 1005 -19 807 -19 c 0
EndSplineSet
EndChar
StartChar: H
Encoding: 72 72 47
Width: 1506
VWidth: 0
GlyphClass: 2
Flags: W
HStem: 0 21G<160 413 1093 1346> 655 188<413 1093> 1440 20G<160 413 1093 1346>
VStem: 160 253<0 655 843 1460> 1093 253<0 655 843 1460>
LayerCount: 2
UndoRedoHistory
Layer: 1
Undoes
EndUndoes
Redoes
EndRedoes
EndUndoRedoHistory
Fore
SplineSet
160 0 m 1
 160 1460 l 1
 413 1460 l 1
 413 843 l 1
 1093 843 l 1
 1093 1460 l 1
 1346 1460 l 1
 1346 0 l 1
 1093 0 l 1
 1093 655 l 1
 413 655 l 1
 413 0 l 1
 160 0 l 1
EndSplineSet
EndChar
StartChar: I
Encoding: 73 73 50
Width: 840
VWidth: 0
GlyphClass: 2
Flags: W
HStem: 0 151<116 295 548 724> 1309 151<116 295 548 724>
VStem: 295 253<151 1309>
LayerCount: 2
UndoRedoHistory
Layer: 1
Undoes
EndUndoes
Redoes
EndRedoes
EndUndoRedoHistory
Fore
SplineSet
116 1460 m 1
 724 1460 l 1
 724 1309 l 1
 548 1309 l 1
 548 151 l 1
 724 151 l 1
 724 0 l 1
 116 0 l 1
 116 151 l 1
 295 151 l 1
 295 1309 l 1
 116 1309 l 1
 116 1460 l 1
EndSplineSet
EndChar
StartChar: J
Encoding: 74 74 61
Width: 810
VWidth: 0
GlyphClass: 2
Flags: W
HStem: -209 202<1 281.639> 1440 20G<397 650>
VStem: 397 253<119.217 1460>
LayerCount: 2
UndoRedoHistory
Layer: 1
Undoes
EndUndoes
Redoes
EndRedoes
EndUndoRedoHistory
Fore
SplineSet
173 -209 m 2
 1 -209 l 1
 1 -7 l 1
 144 -7 l 2
 333 -7 397 151 397 298 c 2
 397 1460 l 1
 650 1460 l 1
 650 313 l 2
 650 -11 480 -209 173 -209 c 2
EndSplineSet
EndChar
StartChar: K
Encoding: 75 75 63
Width: 1360
VWidth: 0
GlyphClass: 2
Flags: W
HStem: 0 21G<160 413 1034.35 1342> 1440 20G<160 413 997.981 1309>
VStem: 160 253<0 572.43 790.706 1460>
LayerCount: 2
UndoRedoHistory
Layer: 1
Undoes
EndUndoes
Redoes
EndRedoes
EndUndoRedoHistory
Fore
SplineSet
160 0 m 1
 160 1460 l 1
 413 1460 l 1
 413 790.706325301 l 1
 1016 1460 l 1
 1309 1460 l 1
 738.018040294 805.616181011 l 1
 1342 0 l 1
 1049 0 l 1
 545.094467173 688.148872069 l 1
 413 572.429752066 l 1
 413 0 l 1
 160 0 l 1
EndSplineSet
EndChar
StartChar: L
Encoding: 76 76 65
Width: 1124
VWidth: 0
GlyphClass: 2
Flags: W
HStem: 0 191<413 1068> 1440 20G<160 413>
VStem: 160 253<191 1460>
LayerCount: 2
UndoRedoHistory
Layer: 1
Undoes
EndUndoes
Redoes
EndRedoes
EndUndoRedoHistory
Fore
SplineSet
160 0 m 1
 160 1460 l 1
 413 1460 l 1
 413 191 l 1
 1078 191 l 1
 1068 0 l 1
 160 0 l 1
EndSplineSet
EndChar
StartChar: M
Encoding: 77 77 71
Width: 1871
VWidth: 0
GlyphClass: 2
Flags: W
HStem: 0 21G<154 395.348 1477.62 1717> 1440 20G<189.507 467.623 1409.29 1681.49>
VStem: 154 241<0 581.404> 190 217<878.596 1087.01> 1465 216<878.596 1080.98> 1478 239<0 581.404>
LayerCount: 2
UndoRedoHistory
Layer: 1
Undoes
EndUndoes
Redoes
EndRedoes
EndUndoRedoHistory
Fore
SplineSet
154 0 m 1xe0
 190 1460 l 1
 458 1460 l 1
 936.214081827 466.082778306 l 1
 1419 1460 l 1
 1681 1460 l 1xd8
 1717 0 l 1
 1478 0 l 1xc4
 1465 693 l 1
 1465 1080.97938144 l 1
 1029 191 l 1
 836 191 l 1
 407 1087.01265823 l 1
 407 690 l 1xd8
 395 0 l 1
 154 0 l 1xe0
EndSplineSet
EndChar
StartChar: N
Encoding: 78 78 73
Width: 1554
VWidth: 0
GlyphClass: 2
Flags: W
HStem: 0 21G<160 406 1107 1394> 1440 20G<160 436.889 1149 1394>
VStem: 160 246<0 999.396> 160 227.274<710.519 1126.91> 1149 245<314.778 1460> 1163.4 230.596<312.617 768.839>
LayerCount: 2
UndoRedoHistory
Layer: 1
Undoes
EndUndoes
Redoes
EndRedoes
EndUndoRedoHistory
Fore
SplineSet
160 0 m 1xe0
 160 1460 l 1
 424 1460 l 1
 1163.40390452 312.616920891 l 1xd4
 1149 771 l 1
 1149 1460 l 1
 1394 1460 l 1xc8
 1394 0 l 1
 1120 0 l 1
 387.273678046 1126.91453313 l 1xd4
 406 583 l 1
 406 0 l 1
 160 0 l 1xe0
EndSplineSet
EndChar
StartChar: O
Encoding: 79 79 78
Width: 1639
VWidth: 0
GlyphClass: 2
Flags: W
HStem: -19 200<622.607 1019.72> 1274 202<624.928 1018.11>
VStem: 108 254<467.621 984.564> 1278 253<467.755 983.704>
LayerCount: 2
UndoRedoHistory
Layer: 1
Undoes
EndUndoes
Redoes
EndRedoes
EndUndoRedoHistory
Fore
SplineSet
822 -19 m 0
 386 -19 108 267 108 724 c 0
 108 1189 391 1476 822 1476 c 0
 1249 1476 1531 1187 1531 723 c 0
 1531 269 1256 -19 822 -19 c 0
821 181 m 0
 1113 181 1278 404 1278 723 c 0
 1278 1051 1110 1274 822 1274 c 0
 535 1274 362 1052 362 723 c 0
 362 404 529 181 821 181 c 0
EndSplineSet
EndChar
StartChar: P
Encoding: 80 80 92
Width: 1283
VWidth: 0
GlyphClass: 2
Flags: W
HStem: 0 21G<160 413> 663 193<413 887.786> 1274 186<413 894.332>
VStem: 160 253<0 663 856 1274> 968 253<926.193 1206.89>
LayerCount: 2
UndoRedoHistory
Layer: 1
Undoes
EndUndoes
Redoes
EndRedoes
EndUndoRedoHistory
Fore
SplineSet
160 0 m 1
 160 1460 l 1
 697 1460 l 2
 999 1460 1221 1374 1221 1084 c 0
 1221 825 1082 663 696 663 c 2
 413 663 l 1
 413 0 l 1
 160 0 l 1
413 1274 m 1
 413 856 l 1
 679 856 l 2
 904 856 968 924 968 1078 c 0
 968 1225 874 1274 697 1274 c 2
 413 1274 l 1
EndSplineSet
EndChar
StartChar: Q
Encoding: 81 81 95
Width: 1639
VWidth: 0
GlyphClass: 2
Flags: W
HStem: -19 200<622.607 1019.72> 1274 202<624.928 1018.11>
VStem: 108 254<467.621 984.564> 1278 253<467.755 983.704>
LayerCount: 2
UndoRedoHistory
Layer: 1
Undoes
EndUndoes
Redoes
EndRedoes
EndUndoRedoHistory
Fore
SplineSet
1258 -470 m 1
 1160 -394 1011 -170 925 -9 c 1
 1134 39 l 1
 1183 -52 1297 -231 1405 -340 c 1
 1258 -470 l 1
EndSplineSet
Refer: 78 79 N 1 0 0 1 0 0 2
EndChar
StartChar: R
Encoding: 82 82 96
Width: 1387
VWidth: 0
GlyphClass: 2
Flags: W
HStem: 0 21G<160 413 1036.41 1310> 649 172<413 771.658> 1274 186<413 932.955>
VStem: 160 253<0 649 821 1274> 1002 252<885.388 1208.25>
LayerCount: 2
UndoRedoHistory
Layer: 1
Undoes
EndUndoes
Redoes
EndRedoes
EndUndoRedoHistory
Fore
SplineSet
160 0 m 1
 160 1460 l 1
 742 1460 l 2
 1062 1460 1254 1362 1254 1060 c 0
 1254 840.498874253 1150.49850045 739.626390293 1006.01098662 684.921417477 c 1
 1101 464 l 1
 1310 0 l 1
 1045 0 l 1
 872 403 l 1
 771.657894737 649 l 1
 413 649 l 1
 413 0 l 1
 160 0 l 1
413 1274 m 1
 413 821 l 1
 732 821 l 2
 953 821 1002 891 1002 1056 c 0
 1002 1198 944 1274 751 1274 c 2
 413 1274 l 1
EndSplineSet
EndChar
StartChar: S
Encoding: 83 83 100
Width: 1197
VWidth: 0
GlyphClass: 2
Flags: W
HStem: -19 200<342.879 789.234> 1274 202<449.638 854.769>
VStem: 139 236<963.587 1206.75> 872.049 237.039<264.5 526.681>
LayerCount: 2
UndoRedoHistory
Layer: 1
Undoes
EndUndoes
Redoes
EndRedoes
EndUndoRedoHistory
Fore
SplineSet
593 -19 m 0
 377 -19 223 43 121 106 c 1
 199 294 l 1
 287 234 442 181 602 181 c 0
 777 181 869 245 872 400 c 0
 872.032703603 401.815049939 872.049096939 403.615393902 872.049096939 405.401246123 c 0
 872.049096939 512.829797452 812.727099625 567.817590063 676 617 c 1
 431 702 l 2
 252 765 139 874 139 1078 c 0
 139 1355 365 1476 633 1476 c 0
 803 1476 961 1426 1071 1358 c 1
 992 1172 l 1
 914 1208 781 1274 637 1274 c 0
 487 1274 375 1225 375 1085 c 0
 375 991 417 944 515 908 c 2
 746 825 l 1
 977.537929666 743.222773777 1109.08834053 642.03049536 1109.08834053 408.561914368 c 0
 1109.08834053 405.070975975 1109.05892886 401.550463619 1109 398 c 0
 1104 113 888 -19 593 -19 c 0
EndSplineSet
EndChar
StartChar: T
Encoding: 84 84 107
Width: 1185
VWidth: 0
GlyphClass: 2
Flags: W
HStem: 0 21G<465 719> 1261 199<42 465 719 1143>
VStem: 465 254<0 1261>
LayerCount: 2
UndoRedoHistory
Layer: 1
Undoes
EndUndoes
Redoes
EndRedoes
EndUndoRedoHistory
Fore
SplineSet
465 0 m 1
 465 1261 l 1
 42 1261 l 1
 42 1460 l 1
 1143 1460 l 1
 1143 1261 l 1
 719 1261 l 1
 719 0 l 1
 465 0 l 1
EndSplineSet
EndChar
StartChar: U
Encoding: 85 85 112
Width: 1494
VWidth: 0
GlyphClass: 2
Flags: W
HStem: -19 202<550.611 944.566> 1440 20G<142 396 1099 1352>
VStem: 142 254<339.83 1460> 1099 253<340.366 1460>
LayerCount: 2
UndoRedoHistory
Layer: 1
Undoes
EndUndoes
Redoes
EndRedoes
EndUndoRedoHistory
Fore
SplineSet
748 -19 m 0
 366 -19 142 193 142 528 c 2
 142 1460 l 1
 396 1460 l 1
 396 541 l 2
 396 304 521 183 748 183 c 0
 974 183 1099 305 1099 542 c 2
 1099 1460 l 1
 1352 1460 l 1
 1352 526 l 2
 1352 197 1128 -19 748 -19 c 0
EndSplineSet
EndChar
StartChar: V
Encoding: 86 86 125
Width: 1406
VWidth: 0
GlyphClass: 2
Flags: W
HStem: 0 21G<560.986 843.041> 1440 20G<56 330.483 1076.55 1350>
LayerCount: 2
UndoRedoHistory
Layer: 1
Undoes
EndUndoes
Redoes
EndRedoes
EndUndoRedoHistory
Fore
SplineSet
568 0 m 1
 56 1460 l 1
 324 1460 l 1
 607 587 l 1
 705.530252501 280.296808004 l 1
 802 589 l 1
 1083 1460 l 1
 1350 1460 l 1
 836 0 l 1
 568 0 l 1
EndSplineSet
EndChar
StartChar: W
Encoding: 87 87 126
Width: 2064
VWidth: 0
GlyphClass: 2
Flags: W
HStem: 0 21G<452.301 702.055 1348.26 1601.84> 1440 20G<42 293.261 1770.62 2022>
LayerCount: 2
UndoRedoHistory
Layer: 1
Undoes
EndUndoes
Redoes
EndRedoes
EndUndoRedoHistory
Fore
SplineSet
458 0 m 1
 42 1460 l 1
 288 1460 l 1
 585.726277705 328.264464875 l 1
 916 1442 l 1
 1149 1442 l 1
 1470.37143004 323.325843219 l 1
 1776 1460 l 1
 2022 1460 l 1
 1596 0 l 1
 1354 0 l 1
 1033.84158416 1115.9009901 l 1
 696 0 l 1
 458 0 l 1
EndSplineSet
EndChar
StartChar: X
Encoding: 88 88 131
Width: 1397
VWidth: 0
GlyphClass: 2
Flags: W
HStem: 0 21G<68 338.693 1042.9 1329> 1440 20G<100 385.11 1045.32 1313>
LayerCount: 2
UndoRedoHistory
Layer: 1
Undoes
EndUndoes
Redoes
EndRedoes
EndUndoRedoHistory
Fore
SplineSet
1056 0 m 1
 698.651859559 545.740883937 l 1
 325 0 l 1
 68 0 l 1
 567.881031527 745.453654781 l 1
 100 1460 l 1
 372 1460 l 1
 720.746022392 927.952776705 l 1
 1058 1460 l 1
 1313 1460 l 1
 847.354606577 734.798614836 l 1
 1329 0 l 1
 1056 0 l 1
EndSplineSet
EndChar
StartChar: Y
Encoding: 89 89 132
Width: 1272
VWidth: 0
GlyphClass: 2
Flags: W
HStem: 0 21G<518 765> 1440 20G<30 302.334 973.773 1242>
VStem: 518 247<0 569.802>
LayerCount: 2
UndoRedoHistory
Layer: 1
Undoes
EndUndoes
Redoes
EndRedoes
EndUndoRedoHistory
Fore
SplineSet
518 0 m 1
 518 569.802197802 l 1
 30 1460 l 1
 292 1460 l 1
 639.797402597 786.872727273 l 1
 984 1460 l 1
 1242 1460 l 1
 765 573.627599244 l 1
 765 0 l 1
 518 0 l 1
EndSplineSet
EndChar
StartChar: Z
Encoding: 90 90 137
Width: 1253
VWidth: 0
GlyphClass: 2
Flags: W
HStem: 0 191<463.762 1138> 1274 186<169 839.155>
LayerCount: 2
UndoRedoHistory
Layer: 1
Undoes
EndUndoes
Redoes
EndRedoes
EndUndoRedoHistory
Fore
SplineSet
149 0 m 1
 149 160 l 1
 839.154882155 1274 l 1
 169 1274 l 1
 169 1460 l 1
 1130 1460 l 1
 1133 1293 l 1
 463.761662426 191 l 1
 1142 191 l 1
 1138 0 l 1
 149 0 l 1
EndSplineSet
EndChar
StartChar: bracketleft
Encoding: 91 91 166
Width: 735
VWidth: 0
GlyphClass: 2
Flags: W
HStem: -175 162<419 660> 1357 162<419 660>
VStem: 205 455<-175 -13 1357 1519> 205 214<-13 1357>
LayerCount: 2
UndoRedoHistory
Layer: 1
Undoes
EndUndoes
Redoes
EndRedoes
EndUndoRedoHistory
Fore
SplineSet
205 -175 m 1xe0
 205 1519 l 1
 660 1519 l 1
 660 1357 l 1xe0
 419 1357 l 1
 419 -13 l 1xd0
 660 -13 l 1
 660 -175 l 1
 205 -175 l 1xe0
EndSplineSet
EndChar
StartChar: backslash
Encoding: 92 92 162
Width: 894
VWidth: 0
GlyphClass: 2
Flags: W
HStem: -18 21G<616.055 818>
LayerCount: 2
UndoRedoHistory
Layer: 1
Undoes
EndUndoes
Redoes
EndRedoes
EndUndoRedoHistory
Fore
SplineSet
623 -18 m 1
 115 1445 l 1
 313 1445 l 1
 818 -18 l 1
 623 -18 l 1
EndSplineSet
EndChar
StartChar: bracketright
Encoding: 93 93 167
Width: 736
VWidth: 0
GlyphClass: 2
Flags: W
HStem: -175 162<106 347> 1356 163<106 347>
VStem: 106 454<-175 -13 1356 1519> 347 213<-13 1356>
LayerCount: 2
UndoRedoHistory
Layer: 1
Undoes
EndUndoes
Redoes
EndRedoes
EndUndoRedoHistory
Fore
SplineSet
106 -175 m 1xe0
 106 -13 l 1xe0
 347 -13 l 1
 347 1356 l 1xd0
 106 1356 l 1
 106 1519 l 1
 560 1519 l 1
 560 -175 l 1
 106 -175 l 1xe0
EndSplineSet
EndChar
StartChar: asciicircum
Encoding: 94 94 156
Width: 1178
VWidth: 0
GlyphClass: 2
Flags: W
HStem: 1449 20G<527.317 664.251>
LayerCount: 2
UndoRedoHistory
Layer: 1
Undoes
EndUndoes
Redoes
EndRedoes
EndUndoRedoHistory
Fore
SplineSet
94 554 m 1
 537 1469 l 1
 654 1469 l 1
 1123 554 l 1
 939 554 l 1
 597 1234 l 1
 277 554 l 1
 94 554 l 1
EndSplineSet
EndChar
StartChar: underscore
Encoding: 95 95 355
Width: 1051
VWidth: 0
GlyphClass: 2
Flags: W
HStem: -221 159<66 1017>
LayerCount: 2
UndoRedoHistory
Layer: 1
Undoes
EndUndoes
Redoes
EndRedoes
EndUndoRedoHistory
Fore
SplineSet
66 -221 m 1
 66 -62 l 1
 1017 -62 l 1
 1017 -221 l 1
 66 -221 l 1
EndSplineSet
EndChar
StartChar: grave
Encoding: 96 96 223
Width: 544
VWidth: 0
GlyphClass: 2
Flags: W
HStem: 1195 385
VStem: 51 450
LayerCount: 2
UndoRedoHistory
Layer: 1
Undoes
EndUndoes
Redoes
EndRedoes
EndUndoRedoHistory
Fore
SplineSet
360 1195 m 1
 51 1580 l 1
 316 1580 l 1
 501 1195 l 1
 360 1195 l 1
EndSplineSet
EndChar
StartChar: a
Encoding: 97 97 141
Width: 1094
VWidth: 0
GlyphClass: 2
Flags: W
HStem: -18 161<355.296 638.782> 0 21G<800.657 970> 497 143<405.67 625> 916 165<283.273 683.408>
VStem: 106 209<184.896 419.109> 745 225<230.596 504.248 649.956 853.453> 805 165<0 66.0123>
LayerCount: 2
UndoRedoHistory
Layer: 1
Undoes
EndUndoes
Redoes
EndRedoes
EndUndoRedoHistory
Fore
SplineSet
476 143 m 0xbc
 579.515381423 143 683.65516901 201.694179475 745 271.222559015 c 1
 745 504.248322148 l 1
 625 497 l 1
 396 485 315 429 315 293 c 0
 315 194 386 143 476 143 c 0xbc
746 649.956331878 m 1
 746 719 l 2
 746 855 667 916 531 916 c 0
 432 916 307 886 202 843 c 1
 153 994 l 1
 279 1050 428 1081 552 1081 c 0
 795 1081 970 976 970 692 c 2xbc
 970 0 l 1
 805 0 l 1x7a
 776.916481167 129.314807649 l 1
 689.911907142 30.8771500375 563.955953571 -18 438 -18 c 0
 252 -18 106 85 106 292 c 0
 106 522 263 624 556 640 c 2
 746 649.956331878 l 1
EndSplineSet
EndChar
StartChar: b
Encoding: 98 98 161
Width: 1181
VWidth: 0
GlyphClass: 2
Flags: W
HStem: -19 172<483.217 758.204> 0 21G<132 323.374> 911 170<487.374 757.881> 1455 20G<132 356>
VStem: 132 224<286.822 782.18 927.392 1460> 132 189<0 120.753> 877 226<295.489 777.486>
LayerCount: 2
UndoRedoHistory
Layer: 1
Undoes
EndUndoes
Redoes
EndRedoes
EndUndoRedoHistory
Fore
SplineSet
617 153 m 0xb2
 782 153 877 282 877 533 c 0
 877 781 789 911 623 911 c 0
 451 911 352 789 351 546 c 1
 351 273 456 153 617 153 c 0xb2
662 -19 m 0
 519.788009473 -19 405.604489074 60.3000618222 338.667174756 148.811971982 c 1
 321 0 l 1
 132 0 l 1x76
 132 1460 l 1
 356 1475 l 1
 356 1103 l 1x7a
 353.023592196 927.391939559 l 1
 422.065064541 1013.29150915 531.206925029 1081 667 1081 c 0
 949 1081 1103 854 1103 534 c 0
 1103 204 939 -19 662 -19 c 0
EndSplineSet
EndChar
StartChar: c
Encoding: 99 99 171
Width: 967
VWidth: 0
GlyphClass: 2
Flags: W
HStem: -19 173.641<464.607 814.096> 907 174<458.894 806.281>
VStem: 78 226<322.208 738.442>
LayerCount: 2
UndoRedoHistory
Layer: 1
Undoes
EndUndoes
Redoes
EndRedoes
EndUndoRedoHistory
Fore
SplineSet
587 -19 m 0
 282 -19 78 189 78 531 c 0
 78 875 300 1081 589 1081 c 0
 730 1081 830 1042 889 1001 c 1
 834 847 l 1
 812 861 734 907 615 907 c 0
 440 907 304 773 304 529 c 0
 304 298 425 160 611 155 c 1
 616.544437543 154.758937498 622.052555629 154.641361147 627.522822089 154.641361147 c 0
 712.821819501 154.641361147 788.917265655 183.229828142 850 218 c 1
 883 61 l 1
 847 35 758 -19 587 -19 c 0
EndSplineSet
EndChar
StartChar: d
Encoding: 100 100 185
Width: 1177
VWidth: 0
GlyphClass: 2
Flags: W
HStem: -19 172<422.328 712.008> 0 21G<853.277 1047> 909 172<432.105 718.249> 1453 20G<823 1047>
VStem: 78 226<286.956 760.726> 823 224<268.627 792.483 942.211 1458> 856 191<0 105.295>
LayerCount: 2
UndoRedoHistory
Layer: 1
Undoes
EndUndoes
Redoes
EndRedoes
EndUndoRedoHistory
Fore
SplineSet
564 153 m 0xb8
 742 153 831 275 832 518 c 1
 832 796 738 909 575 909 c 0
 411 909 304 788 304 533 c 0
 304 284 390 153 564 153 c 0xb8
830.442257844 942.21091407 m 1
 823 1110 l 1
 823 1458 l 1xbc
 1047 1473 l 1
 1047 0 l 1
 856 0 l 1x7a
 836.682787272 141.881596936 l 1
 782.93373715 58.4300249834 691.877038449 -19 524 -19 c 0
 241 -19 78 205 78 537 c 0
 78 858 246 1081 523 1081 c 1
 673.480769737 1081 767.623977654 1024.66243818 830.442257844 942.21091407 c 1
EndSplineSet
EndChar
StartChar: e
Encoding: 101 101 195
Width: 1136
VWidth: 0
GlyphClass: 2
Flags: W
HStem: -20 169<462.682 890.683> 481 145<309.589 829.348> 916 164<447.071 727.152>
VStem: 78 226.195<311.669 481 626 756.281>
LayerCount: 2
UndoRedoHistory
Layer: 1
Undoes
EndUndoes
Redoes
EndRedoes
EndUndoRedoHistory
Fore
SplineSet
620 -20 m 0
 304 -20 78 188 78 528 c 0
 78 865 301 1079 590 1080 c 0
 871 1080 1037 877 1037 583 c 0
 1037 563 1029 481 1029 481 c 1
 304.195219247 481 l 1
 318.629264312 249.832650868 461.575820933 149 642 149 c 0
 792 149 905 195 972 227 c 1
 1009 73 l 1
 909 12 780 -20 620 -20 c 0
829.348283046 626 m 1
 816.398794799 819.877904395 731.414514383 916 594 916 c 0
 463.285238825 916 329.955220183 816.620216228 309.58873277 626 c 1
 829.348283046 626 l 1
EndSplineSet
EndChar
StartChar: f
Encoding: 102 102 213
Width: 732
VWidth: 0
GlyphClass: 2
Flags: W
HStem: 0 21G<210 434> 907 151<86.2577 210 434 682> 907 132<46 182.192> 1303 166<465.589 703.364>
VStem: 210 224<0 907 1058 1272.18>
LayerCount: 2
UndoRedoHistory
Layer: 1
Undoes
EndUndoes
Redoes
EndRedoes
EndUndoRedoHistory
Fore
SplineSet
210 0 m 1xd8
 210 907 l 1xd8
 41 907 l 1
 46 1039 l 1xb8
 210 1056.26315789 l 1
 210 1103 l 2
 210 1390 344 1469 540 1469 c 0
 606 1469 672 1461 721 1451 c 1
 701 1291 l 1
 679 1295 623 1303 580 1303 c 0
 488 1303 434 1281 434 1120 c 2
 434 1058 l 1
 682 1058 l 1
 682 907 l 1
 434 907 l 1
 434 0 l 1
 210 0 l 1xd8
EndSplineSet
EndChar
StartChar: g
Encoding: 103 103 217
Width: 1201
VWidth: 0
GlyphClass: 2
Flags: W
HStem: -472 177<236 702.949> 3 170<426.181 739.58> 909 172<438.917 743.014> 1038 20G<870.283 1078>
VStem: 78 226<312.458 752.779> 854 224<-145.448 158.052 291.652 788.331> 872 206<926.87 1058>
LayerCount: 2
UndoRedoHistory
Layer: 1
Undoes
EndUndoes
Redoes
EndRedoes
EndUndoRedoHistory
Fore
SplineSet
502 -472 m 0xdc
 464 -472 401 -468 236 -464 c 1
 236 -289 l 1
 353 -293 469 -295 496 -295 c 0
 752 -295 854 -162 854 50 c 2
 854 158.051834969 l 1
 788.781180652 50.2172424066 677.746635968 3 544 3 c 0
 251 3 78 237 78 527 c 0
 78 852 271 1081 554 1081 c 0xec
 689.546622752 1081 796.750118625 1032.30796151 860.741343441 926.869764781 c 1
 872 1058 l 1
 1078 1058 l 1xda
 1078 125 l 2
 1078 -238 900 -472 502 -472 c 0xdc
580 173 m 0
 783 173 856 316 857 506 c 1
 857 560 l 2
 857 768 783 909 587 909 c 0
 384 909 304 733 304 534 c 0
 304 341 374 173 580 173 c 0
EndSplineSet
EndChar
StartChar: h
Encoding: 104 104 230
Width: 1157
VWidth: 0
GlyphClass: 2
Flags: W
HStem: 0 21G<132 356 813 1037> 909 171<474.416 752.776> 1454 20G<132 358>
VStem: 132 224<0 780.184 939.663 1460> 813 224<0 845.016>
LayerCount: 2
UndoRedoHistory
Layer: 1
Undoes
EndUndoes
Redoes
EndRedoes
EndUndoRedoHistory
Fore
SplineSet
132 0 m 1
 132 1460 l 1
 358 1474 l 1
 358 1133 l 1
 351.873108122 939.662522971 l 1
 427.009151701 1028.09054842 539.712143161 1080 671 1080 c 0
 898 1080 1037 942 1037 661 c 2
 1037 0 l 1
 813 0 l 1
 813 644 l 2
 813 824 765 909 628 909 c 0
 408 909 356 741 356 539 c 2
 356 0 l 1
 132 0 l 1
EndSplineSet
EndChar
StartChar: i
Encoding: 105 105 235
Width: 536
VWidth: 0
GlyphClass: 2
Flags: W
HStem: 0 21G<165 385> 1038 20G<165 385> 1193 267<163.032 386.968>
VStem: 132 286<1223.86 1429.04> 165 220<0 1058>
LayerCount: 2
UndoRedoHistory
Layer: 1
Undoes
EndUndoes
Redoes
EndRedoes
EndUndoRedoHistory
Fore
SplineSet
165 0 m 1xe8
 165 1058 l 1
 385 1058 l 1
 385 0 l 1
 165 0 l 1xe8
275 1460 m 0
 359 1460 418 1411 418 1326 c 0
 418 1242 359 1193 275 1193 c 0
 191 1193 132 1242 132 1326 c 0xf0
 132 1411 191 1460 275 1460 c 0
EndSplineSet
EndChar
StartChar: j
Encoding: 106 106 247
Width: 607
VWidth: 0
GlyphClass: 2
Flags: W
HStem: -373 172<30 197.625> 1038 20G<226 446> 1193 267<228.032 451.968>
VStem: 197 286<1223.86 1429.04> 226 220<-170.799 1058>
LayerCount: 2
UndoRedoHistory
Layer: 1
Undoes
EndUndoes
Redoes
EndRedoes
EndUndoRedoHistory
Fore
SplineSet
30 -373 m 1xe8
 8 -201 l 1
 65 -201 l 2
 213 -201 226 -147 226 18 c 2
 226 1058 l 1
 446 1058 l 1
 446 26 l 2
 446 -249 374 -373 90 -373 c 2
 30 -373 l 1xe8
340 1460 m 0
 424 1460 483 1411 483 1326 c 0
 483 1242 424 1193 340 1193 c 0
 256 1193 197 1242 197 1326 c 0xf0
 197 1411 256 1460 340 1460 c 0
EndSplineSet
EndChar
StartChar: k
Encoding: 107 107 249
Width: 1108
VWidth: 0
GlyphClass: 2
Flags: W
HStem: 0 21G<130 354 808.127 1087> 1038 20G<771.805 1068> 1455 20G<130 354>
VStem: 130 224<0 370.694 572.457 1460>
LayerCount: 2
UndoRedoHistory
Layer: 1
Undoes
EndUndoes
Redoes
EndRedoes
EndUndoRedoHistory
Fore
SplineSet
130 0 m 1
 130 1460 l 1
 354 1475 l 1
 354 783 l 1
 348.26536498 572.456971425 l 1
 790 1058 l 1
 1068 1058 l 1
 631.62172877 573.337702934 l 1
 1087 0 l 1
 824 0 l 1
 454.740671988 465.266753295 l 1
 354 370.693877551 l 1
 354 0 l 1
 130 0 l 1
EndSplineSet
EndChar
StartChar: l
Encoding: 108 108 251
Width: 712
VWidth: 0
GlyphClass: 2
Flags: W
HStem: -13 166<414.953 656> 1455 20G<160 384>
VStem: 160 224<184.859 1460>
LayerCount: 2
UndoRedoHistory
Layer: 1
Undoes
EndUndoes
Redoes
EndRedoes
EndUndoRedoHistory
Fore
SplineSet
499 -13 m 0
 257 -13 160 86 160 357 c 2
 160 1460 l 1
 384 1475 l 1
 384 334 l 2
 384 178 432 153 538 153 c 0
 603 153 653 162 656 162 c 1
 656 0 l 1
 650 -1 587 -13 499 -13 c 0
EndSplineSet
EndChar
StartChar: m
Encoding: 109 109 260
Width: 1732
VWidth: 0
GlyphClass: 2
Flags: W
HStem: 0 21G<130 354 763 987 1388 1612> 910 171<463.961 709.423 1091.65 1335.31> 1038 20G<130 315.383>
VStem: 130 224<0 781.928> 130 182<973.249 1058> 763 224<0 801.581> 1388 224<0 855.159>
LayerCount: 2
UndoRedoHistory
Layer: 1
Undoes
EndUndoes
Redoes
EndRedoes
EndUndoRedoHistory
Fore
SplineSet
130 0 m 1xd6
 130 1058 l 1
 312 1058 l 1xae
 334.271372629 926.336885342 l 1
 402.481072493 1015.33551287 505.901071554 1081 654 1081 c 1
 808.696189811 1081 889.226332695 1012.24189399 943.802878105 901.208576749 c 1
 1022.01718128 1017.60776897 1134.87797853 1081 1272 1081 c 0
 1506 1081 1612 936 1612 676 c 2
 1612 0 l 1
 1388 0 l 1
 1388 603 l 2
 1388 779 1375 910 1225 910 c 0
 1084.11321457 910 1004.13597526 856.891610418 987 587 c 1
 987 0 l 1
 763 0 l 1
 763 605 l 2
 763 809 734 910 599 910 c 0
 417 910 365 763 354 569 c 1
 354 0 l 1
 130 0 l 1xd6
EndSplineSet
EndChar
StartChar: n
Encoding: 110 110 265
Width: 1177
VWidth: 0
GlyphClass: 2
Flags: W
HStem: 0 21G<130 354 833 1057> 910 171<486.767 773.696> 1038 20G<130 318.542>
VStem: 130 224<0 775.332> 130 185<977.044 1058> 833 224<0 848.18>
LayerCount: 2
UndoRedoHistory
Layer: 1
Undoes
EndUndoes
Redoes
EndRedoes
EndUndoRedoHistory
Fore
SplineSet
130 0 m 1xd4
 130 1058 l 1
 315 1058 l 1xac
 339.088382647 921.971486227 l 1
 419.790358168 1019.85575431 535.156824874 1081 698 1081 c 0
 942 1081 1057 930 1057 657 c 2
 1057 0 l 1
 833 0 l 1
 833 648 l 2
 833 813 794 910 647 910 c 0
 422 910 354 757 354 548 c 2
 354 0 l 1
 130 0 l 1xd4
EndSplineSet
EndChar
StartChar: o
Encoding: 111 111 274
Width: 1177
VWidth: 0
GlyphClass: 2
Flags: W
HStem: -19 171<437.832 740.977> 910 171<436.685 741.154>
VStem: 78 226<306.485 755.895> 873 226<301.953 758.753>
LayerCount: 2
UndoRedoHistory
Layer: 1
Undoes
EndUndoes
Redoes
EndRedoes
EndUndoRedoHistory
Fore
SplineSet
589 -19 m 0
 282 -19 78 202 78 530 c 0
 78 866 273 1081 589 1081 c 0
 900 1081 1099 862 1099 530 c 0
 1099 199 899 -19 589 -19 c 0
589 152 m 0
 775 152 873 294 873 530 c 0
 873 766 775 910 589 910 c 0
 407 910 304 766 304 530 c 0
 304 295 405 152 589 152 c 0
EndSplineSet
EndChar
StartChar: p
Encoding: 112 112 292
Width: 1176
VWidth: 0
GlyphClass: 2
Flags: W
HStem: -441 21G<130 354> -19 172<475.158 755.782> 910 171<483.637 756.656> 1038 20G<130 323.844>
VStem: 130 224<-430 131.903 289.818 780.949> 130 191<957.17 1058> 872 226<294.022 773.637>
LayerCount: 2
UndoRedoHistory
Layer: 1
Undoes
EndUndoes
Redoes
EndRedoes
EndUndoRedoHistory
Fore
SplineSet
618 153 m 0xe2
 783 153 872 289 872 532 c 0
 872 777 786 910 619 910 c 0
 441 910 352 786 351 548 c 1
 351 279 446 153 618 153 c 0xe2
130 -441 m 1xe6
 130 1058 l 1
 321 1058 l 1xd6
 341.247692763 915.591227565 l 1
 422.976499224 1024.47804789 542.395841003 1081 671 1081 c 0
 944 1081 1098 845 1098 530 c 0
 1098 211 934 -19 658 -19 c 0
 511.925681645 -19 409.286618311 54.6749895314 348.452076782 131.903440198 c 1
 354 -37 l 1
 354 -430 l 1xea
 130 -441 l 1xe6
EndSplineSet
EndChar
StartChar: q
Encoding: 113 113 304
Width: 1191
VWidth: 0
GlyphClass: 2
Flags: W
HStem: -441 21G<837 1061> -19 170<430.431 718.462> 909 172<427.208 720.561> 1038 20G<858.67 1061>
VStem: 78 226<295.466 763.933> 837 224<-429 132.67 269.296 783.085> 861 200<934.949 1058>
LayerCount: 2
UndoRedoHistory
Layer: 1
Undoes
EndUndoes
Redoes
EndRedoes
EndUndoRedoHistory
Fore
SplineSet
571 151 m 0xe8
 759 151 841 273 842 531 c 0
 842 784 755 909 569 909 c 0
 398 909 304 776 304 531 c 0
 304 286 398 151 571 151 c 0xe8
837 -441 m 1xdc
 837 -20 l 1
 841.078963851 132.669789869 l 1
 773.407094662 41.6416727813 676.187332379 -19 532 -19 c 0
 259 -19 78 208 78 528 c 0
 78 849 241 1081 531 1081 c 0xec
 690.503583471 1081 785.107360642 1010.07856219 845.458864876 924.605256857 c 1
 861 1058 l 1
 1061 1058 l 1xda
 1061 -429 l 1
 837 -441 l 1xdc
EndSplineSet
EndChar
StartChar: r
Encoding: 114 114 315
Width: 794
VWidth: 0
GlyphClass: 2
Flags: W
HStem: 0 21G<130 354> 880 185<496.056 735>
VStem: 130 224<0 747.312> 130 185<953.552 1058>
LayerCount: 2
UndoRedoHistory
Layer: 1
Undoes
EndUndoes
Redoes
EndRedoes
EndUndoRedoHistory
Fore
SplineSet
130 0 m 1xe0
 130 1058 l 1
 315 1058 l 1xd0
 339.614275811 878.66741909 l 1
 430.298160688 1010.25029594 553.149047912 1065 664 1065 c 0
 690 1065 715 1064 740 1059 c 1
 735 873 l 1
 705 879 678 880 654 880 c 0
 473 880 354 756 354 584 c 2
 354 0 l 1
 130 0 l 1xe0
EndSplineSet
EndChar
StartChar: s
Encoding: 115 115 323
Width: 953
VWidth: 0
GlyphClass: 2
Flags: W
HStem: -19 162<264.469 625.67> 917 164<358.214 731.681>
VStem: 124 197<696.984 877.017> 665.306 196.694<186.654 392.064>
LayerCount: 2
UndoRedoHistory
Layer: 1
Undoes
EndUndoes
Redoes
EndRedoes
EndUndoRedoHistory
Fore
SplineSet
481 -19 m 0
 296 -19 150 53 123 71 c 1
 177 224 l 1
 223 200 361 143 479 143 c 0
 601 143 661 191 665 280 c 0
 665.201326534 284.781505176 665.306388681 289.413547226 665.306388681 293.904031384 c 0
 665.306388681 378.631477427 627.903239686 412.962933704 494 450 c 1
 390 480 l 1
 203 532 125 625 124 777 c 1
 124 963 273 1081 492 1081 c 0
 619 1081 721 1057 822 1007 c 1
 771 856 l 1
 713 882 627 917 515 917 c 0
 383 917 321 865 321 793 c 0
 321 718 356 679 495 640 c 2
 582 616 l 1
 787 558 862 464 862 301 c 0
 862 94 722 -19 481 -19 c 0
EndSplineSet
EndChar
StartChar: t
Encoding: 116 116 337
Width: 787
VWidth: 0
GlyphClass: 2
Flags: W
HStem: -13 165<467.889 747.936> 916 142<46 197 421 719>
VStem: 197 224<199.625 916> 263 158<1253.46 1322>
LayerCount: 2
UndoRedoHistory
Layer: 1
Undoes
EndUndoes
Redoes
EndRedoes
EndUndoRedoHistory
Fore
SplineSet
546 -13 m 0xe0
 303 -13 197 111 197 367 c 2
 197 917 l 1xe0
 35 917 l 1
 46 1045 l 1
 207.568477994 1056.96803541 l 1
 263 1322 l 1
 421 1322 l 1
 421 1058 l 1xd0
 719 1058 l 1
 719 916 l 1
 421 916 l 1
 421 359 l 2
 421 188 488 152 591 152 c 0
 649 152 748 165 748 165 c 1
 748 15 l 1
 748 15 670 -13 546 -13 c 0xe0
EndSplineSet
EndChar
StartChar: u
Encoding: 117 117 346
Width: 1177
VWidth: 0
GlyphClass: 2
Flags: W
HStem: -23 171<412.82 712.67> 0 21G<862.733 1047> 1038 20G<120 344 823 1047>
VStem: 120 224<225.367 1058> 823 224<264.695 1058> 866 181<0 87.7537>
LayerCount: 2
UndoRedoHistory
Layer: 1
Undoes
EndUndoes
Redoes
EndRedoes
EndUndoRedoHistory
Fore
SplineSet
1047 1058 m 1xb8
 1047 0 l 1
 866 0 l 1x74
 844.218119225 133.331512622 l 1
 765.740781539 19.3725310163 649.711191753 -23 487 -23 c 0
 243 -23 120 119 120 400 c 2
 120 1058 l 1
 344 1058 l 1
 344 409 l 2
 344 244 397 148 553 148 c 0
 757 148 823 282 823 491 c 2
 823 1058 l 1
 1047 1058 l 1xb8
EndSplineSet
EndChar
StartChar: v
Encoding: 118 118 561
Width: 1100
VWidth: 0
GlyphClass: 2
Flags: W
HStem: 0 21G<441.231 674.467> 1038 20G<38 279.101 823.276 1062>
LayerCount: 2
UndoRedoHistory
Layer: 1
Undoes
EndUndoes
Redoes
EndRedoes
EndUndoRedoHistory
Fore
SplineSet
449 0 m 1
 38 1058 l 1
 272 1058 l 1
 479 475 l 1
 560.005025126 235.100502513 l 1
 634 475 l 1
 830 1058 l 1
 1062 1058 l 1
 667 0 l 1
 449 0 l 1
EndSplineSet
EndChar
StartChar: w
Encoding: 119 119 562
Width: 1597
VWidth: 0
GlyphClass: 2
Flags: W
HStem: 0 21G<333.348 558.888 1039.13 1260.71> 1038 20G<40 260.029 682.233 919.79 1339.97 1557>
LayerCount: 2
UndoRedoHistory
Layer: 1
Undoes
EndUndoes
Redoes
EndRedoes
EndUndoRedoHistory
Fore
SplineSet
339 0 m 1
 40 1058 l 1
 255 1058 l 1
 456.696581197 255.83974359 l 1
 688 1058 l 1
 914 1058 l 1
 1144.66311301 261.247334755 l 1
 1345 1058 l 1
 1557 1058 l 1
 1255 0 l 1
 1045 0 l 1
 799.461538462 837.230769231 l 1
 553 0 l 1
 339 0 l 1
EndSplineSet
EndChar
StartChar: x
Encoding: 120 120 567
Width: 1097
VWidth: 0
GlyphClass: 2
Flags: W
HStem: 0 21G<34 297.835 795.709 1063> 1038 20G<54 319.329 789.316 1052>
LayerCount: 2
UndoRedoHistory
Layer: 1
Undoes
EndUndoes
Redoes
EndRedoes
EndUndoRedoHistory
Fore
SplineSet
810 0 m 1
 542.734522889 374.03025765 l 1
 284 0 l 1
 34 0 l 1
 418.819430401 547.445823592 l 1
 54 1058 l 1
 305 1058 l 1
 559.730643557 702.452479045 l 1
 803 1058 l 1
 1052 1058 l 1
 683.732637644 529.373178592 l 1
 1063 0 l 1
 810 0 l 1
EndSplineSet
EndChar
StartChar: y
Encoding: 121 121 568
Width: 1085
VWidth: 0
GlyphClass: 2
Flags: W
HStem: -394 21G<385.75 519.452> 1038 20G<50 288.37 815.46 1053>
LayerCount: 2
UndoRedoHistory
Layer: 1
Undoes
EndUndoes
Redoes
EndRedoes
EndUndoRedoHistory
Fore
SplineSet
512 -394 m 1
 310 -362 l 1
 461.232096717 26.6411424017 l 1
 50 1058 l 1
 281 1058 l 1
 567.628620102 280.139693356 l 1
 822 1058 l 1
 1053 1058 l 1
 512 -394 l 1
EndSplineSet
EndChar
StartChar: z
Encoding: 122 122 574
Width: 957
VWidth: 0
GlyphClass: 2
Flags: W
HStem: 0 166<372.305 877> 898 160<133 620.961>
LayerCount: 2
UndoRedoHistory
Layer: 1
Undoes
EndUndoes
Redoes
EndRedoes
EndUndoRedoHistory
Fore
SplineSet
111 0 m 1
 111 140 l 1
 620.960927961 898 l 1
 133 898 l 1
 133 1058 l 1
 864 1058 l 1
 864 904 l 1
 372.305210918 166 l 1
 877 166 l 1
 877 0 l 1
 111 0 l 1
EndSplineSet
EndChar
StartChar: braceleft
Encoding: 123 123 164
Width: 738
VWidth: 0
GlyphClass: 2
Flags: W
HStem: -269 173<532.292 664> 518 185<75 230.119> 1323 176<527.26 664>
VStem: 283 210<-59.3408 463.884 755.648 1284.32>
LayerCount: 2
UndoRedoHistory
Layer: 1
Undoes
EndUndoes
Redoes
EndRedoes
EndUndoRedoHistory
Fore
SplineSet
664 -269 m 1
 404 -269 283 -182 283 46 c 2
 283 279 l 2
 283 437 253 517 75 518 c 1
 75 703 l 1
 256 704 283 781 283 939 c 2
 283 1201 l 2
 283 1417 416 1499 664 1499 c 1
 664 1323 l 1
 525 1321 493 1277 493 1133 c 2
 493 873 l 1
 492 734 441 660 313 608 c 1
 435 573 493 496 493 354 c 2
 493 93 l 2
 493 -49 523 -94 664 -96 c 1
 664 -269 l 1
EndSplineSet
EndChar
StartChar: bar
Encoding: 124 124 163
Width: 499
VWidth: 0
GlyphClass: 2
Flags: W
VStem: 179 177<-317 1569>
LayerCount: 2
UndoRedoHistory
Layer: 1
Undoes
EndUndoes
Redoes
EndRedoes
EndUndoRedoHistory
Fore
SplineSet
179 -317 m 1
 179 1569 l 1
 356 1569 l 1
 356 -317 l 1
 179 -317 l 1
EndSplineSet
EndChar
StartChar: braceright
Encoding: 125 125 165
Width: 738
VWidth: 0
GlyphClass: 2
Flags: W
HStem: -269 173<98 236.073> 520 185<531.96 687> 1324 175<98 229.153>
VStem: 268 209<-65.1306 465.167 758.057 1287.07>
LayerCount: 2
UndoRedoHistory
Layer: 1
Undoes
EndUndoes
Redoes
EndRedoes
EndUndoRedoHistory
Fore
SplineSet
98 -269 m 1
 98 -96 l 1
 237 -94 268 -52 268 93 c 2
 268 354 l 2
 268 482 321 562 449 613 c 1
 323 656 269 751 268 874 c 1
 268 1133 l 2
 268 1275 239 1322 98 1324 c 1
 98 1499 l 1
 357 1499 477 1412 477 1180 c 2
 477 940 l 2
 477 782 505 707 687 705 c 1
 687 520 l 1
 511 520 477 440 477 281 c 2
 477 25 l 2
 477 -190 350 -269 98 -269 c 1
EndSplineSet
EndChar
StartChar: asciitilde
Encoding: 126 126 157
Width: 1181
VWidth: 0
GlyphClass: 2
Flags: W
HStem: 492 173<691.709 970.875> 627 172<266.282 546.418>
LayerCount: 2
UndoRedoHistory
Layer: 1
Undoes
EndUndoes
Redoes
EndRedoes
EndUndoRedoHistory
Fore
SplineSet
183 480 m 1x40
 114 606 l 1
 162 712 248 799 388 799 c 0x40
 470 799 544 774 634 734 c 0
 724 695 796 665 852 665 c 0
 929 665 1000 718 1062 805 c 1
 1131 686 l 1
 1081 578 977 492 842 492 c 0x80
 759 492 687 520 600 559 c 0
 515 598 451 627 381 627 c 0
 295 627 225 558 183 480 c 1x40
EndSplineSet
EndChar
StartChar: cent
Encoding: 162 162 179
Width: 975
VWidth: 0
GlyphClass: 2
Flags: W
HStem: -19 173.641<464.607 814.096> 907 174<458.894 806.281>
VStem: 78 226<322.208 738.442> 583 87<-157 1245>
LayerCount: 2
UndoRedoHistory
Layer: 1
Undoes
EndUndoes
Redoes
EndRedoes
EndUndoRedoHistory
Fore
SplineSet
583 -157 m 1
 583 1245 l 1
 670 1245 l 1
 670 -157 l 1
 583 -157 l 1
EndSplineSet
Refer: 171 99 N 1 0 0 1 0 0 2
EndChar
StartChar: sterling
Encoding: 163 163 335
Width: 1085
VWidth: 0
GlyphClass: 2
Flags: W
HStem: 10 191<472 1058> 10 169<98 212.44> 660 162<82 262 472 859> 1294 182<558.663 873.53>
VStem: 262 210<201 660 822 1198.68>
CounterMasks: 1 b0
LayerCount: 2
UndoRedoHistory
Layer: 1
Undoes
EndUndoes
Redoes
EndRedoes
EndUndoRedoHistory
Fore
SplineSet
98 10 m 1x78
 87 179 l 1x78
 262 199 l 1
 262 660 l 1
 82 660 l 1
 82 822 l 1
 262 822 l 1
 262 925 l 2
 262 1228 354 1476 688 1476 c 0
 836 1476 958 1423 1051 1344 c 1
 957 1197 l 1
 872 1259 792 1294 695 1294 c 0
 530 1294 472 1180 472 996 c 2
 472 822 l 1
 859 822 l 1
 859 660 l 1
 472 660 l 1
 472 201 l 1
 1067 201 l 1
 1058 10 l 1xb8
 98 10 l 1x78
EndSplineSet
EndChar
StartChar: currency
Encoding: 164 164 184
Width: 1152
VWidth: 0
GlyphClass: 2
Flags: W
HStem: 312 126<448.464 753.857> 1008 126<451.713 750.345>
VStem: 192 130<568.459 876.843> 880 128<566.761 877.065>
LayerCount: 2
UndoRedoHistory
Layer: 1
Undoes
EndUndoes
Redoes
EndRedoes
EndUndoRedoHistory
Fore
SplineSet
600 438 m 0
 764 438 880 566 880 722 c 0
 880 878 762 1008 600 1008 c 0
 439 1008 322 878 322 722 c 0
 322 566 439 438 600 438 c 0
1029 227 m 1
 848 397 l 1
 779 343 694 312 600 312 c 0
 505 312 420 341 350 396 c 1
 174 228 l 1
 86 314 l 1
 266 486 l 1
 219 554 192 635 192 722 c 0
 192 808 218 887 266 958 c 1
 85 1132 l 1
 174 1218 l 1
 351 1049 l 1
 420 1102 507 1134 600 1134 c 0
 694 1134 778 1104 848 1048 c 1
 1029 1218 l 1
 1113 1130 l 1
 934 958 l 1
 981 888 1008 808 1008 722 c 0
 1008 634 983 555 935 486 c 1
 1112 315 l 1
 1029 227 l 1
EndSplineSet
EndChar
StartChar: yen
Encoding: 165 165 572
Width: 1271
VWidth: 0
GlyphClass: 2
Flags: W
HStem: 0 21G<540 788> 250 147<221 540 788 1105> 543 141<222 478 849 1105> 1437 20G<53 325.281 995.807 1265>
VStem: 540 248<0 250 397 543>
CounterMasks: 1 70
LayerCount: 2
UndoRedoHistory
Layer: 1
Undoes
EndUndoes
Redoes
EndRedoes
EndUndoRedoHistory
Fore
SplineSet
540 0 m 1
 540 250 l 1
 221 250 l 1
 221 397 l 1
 540 397 l 1
 540 543 l 1
 222 543 l 1
 222 684 l 1
 478 684 l 1
 53 1457 l 1
 315 1457 l 1
 662 782 l 1
 1006 1457 l 1
 1265 1457 l 1
 849 684 l 1
 1105 684 l 1
 1105 543 l 1
 788 543 l 1
 788 397 l 1
 1105 397 l 1
 1105 250 l 1
 788 250 l 1
 788 0 l 1
 540 0 l 1
EndSplineSet
EndChar
StartChar: brokenbar
Encoding: 166 166 169
Width: 564
VWidth: 0
GlyphClass: 2
Flags: W
HStem: 1450 20G<211 388>
VStem: 211 177<-303 404 765 1470>
LayerCount: 2
UndoRedoHistory
Layer: 1
Undoes
EndUndoes
Redoes
EndRedoes
EndUndoRedoHistory
Fore
SplineSet
211 765 m 1
 211 1470 l 1
 388 1470 l 1
 388 765 l 1
 211 765 l 1
211 -303 m 1
 211 404 l 1
 388 404 l 1
 388 -303 l 1
 211 -303 l 1
EndSplineSet
EndChar
StartChar: section
Encoding: 167 167 329
Width: 1010
VWidth: 0
GlyphClass: 2
Flags: W
HStem: -18 86<259.285 668.253> 1487 89<354.81 783.535>
VStem: 156 106<709.665 945.726 1201.08 1402.85> 767 104<156.788 398.887 614.849 878.491>
LayerCount: 2
UndoRedoHistory
Layer: 1
Undoes
EndUndoes
Redoes
EndRedoes
EndUndoRedoHistory
Fore
SplineSet
641 558 m 1
 706 593 774 628 774 773 c 0
 774 876 676 916 537 971 c 1
 402 1023 l 1
 336 999 262 920 262 813 c 0
 262 697 357 671 520 606 c 2
 641 558 l 1
871 276 m 0
 871 70 685 -18 479 -18 c 0
 371 -18 257 5 162 49 c 1
 197 138 l 1
 278 95 385 68 484 68 c 0
 635 68 767 129 767 284 c 0
 767 397 694 444 492 513 c 0
 287 584 156 645 156 808 c 0
 156 926 227 1006 324 1056 c 1
 219 1115 167 1181 167 1299 c 0
 167 1491 348 1576 549 1576 c 0
 647 1576 750 1555 839 1517 c 1
 808 1433 l 1
 737 1467 642 1487 551 1487 c 0
 407 1487 275 1437 275 1308 c 0
 275 1162 384 1131 575 1055 c 0
 789 970 879 922 879 761 c 0
 879 643 836 565 722 517 c 1
 815 465 871 387 871 276 c 0
EndSplineSet
EndChar
StartChar: dieresis
Encoding: 168 168 191
Width: 719
VWidth: 0
GlyphClass: 2
Flags: W
HStem: 1217 227<93 272 486 664>
VStem: 93 179<1217 1444> 486 178<1217 1444>
LayerCount: 2
UndoRedoHistory
Layer: 1
Undoes
EndUndoes
Redoes
EndRedoes
EndUndoRedoHistory
Fore
SplineSet
486 1217 m 1
 486 1444 l 1
 664 1444 l 1
 664 1217 l 1
 486 1217 l 1
93 1217 m 1
 93 1444 l 1
 272 1444 l 1
 272 1217 l 1
 93 1217 l 1
EndSplineSet
EndChar
StartChar: copyright
Encoding: 169 169 183
Width: 1675
VWidth: 0
GlyphClass: 2
Flags: W
HStem: -12 104<601.049 1074.47> 247 120<681.457 1045.33> 1116 121<681.414 1034.01> 1397 105<600.378 1073.59>
VStem: 69 122<506.235 987.074> 369 146<543.903 939.661> 1486 121<505.996 986.45>
CounterMasks: 2 f0 0e
LayerCount: 2
UndoRedoHistory
Layer: 1
Undoes
EndUndoes
Redoes
EndRedoes
EndUndoRedoHistory
Fore
SplineSet
837 -12 m 0
 438 -12 69 278 69 747 c 0
 69 1216 437 1502 836 1502 c 0
 1238 1502 1607 1215 1607 747 c 0
 1607 278 1239 -12 837 -12 c 0
837 92 m 0
 1193 92 1486 355 1486 746 c 0
 1486 1137 1192 1397 836 1397 c 0
 484 1397 191 1138 191 747 c 0
 191 355 484 92 837 92 c 0
838 247 m 0
 575 247 369 453 369 740 c 0
 369 1019 568 1237 834 1237 c 0
 945 1237 1047 1209 1132 1151 c 1
 1080 1046 l 1
 1008 1094 915 1116 842 1116 c 0
 651 1116 515 966 515 743 c 0
 515 513 652 367 848 367 c 0
 924 367 1012 387 1088 434 c 1
 1134 330 l 1
 1051 277 949 247 838 247 c 0
EndSplineSet
EndChar
StartChar: guillemotleft
Encoding: 171 171 226
Width: 982
VWidth: 0
GlyphClass: 2
Flags: W
LayerCount: 2
UndoRedoHistory
Layer: 1
Undoes
EndUndoes
Redoes
EndRedoes
EndUndoRedoHistory
Fore
SplineSet
370 138 m 1
 68 552 l 1
 373 970 l 1
 549 924 l 1
 281 555 l 1
 543 184 l 1
 370 138 l 1
764 138 m 1
 462 552 l 1
 766 970 l 1
 942 924 l 1
 675 555 l 1
 937 184 l 1
 764 138 l 1
EndSplineSet
EndChar
StartChar: logicalnot
Encoding: 172 172 258
Width: 1174
VWidth: 0
GlyphClass: 2
Flags: W
HStem: 646 172<94 905>
VStem: 905 170<251 646>
LayerCount: 2
UndoRedoHistory
Layer: 1
Undoes
EndUndoes
Redoes
EndRedoes
EndUndoRedoHistory
Fore
SplineSet
905 251 m 1
 905 646 l 1
 94 646 l 1
 94 818 l 1
 1075 818 l 1
 1075 251 l 1
 905 251 l 1
EndSplineSet
EndChar
StartChar: uni00AD
Encoding: 173 173 358
Width: 797
VWidth: 0
GlyphClass: 2
Flags: W
HStem: 303 182<87 746>
VStem: 87 659<303 485>
LayerCount: 2
UndoRedoHistory
Layer: 1
Undoes
EndUndoes
Redoes
EndRedoes
EndUndoRedoHistory
Fore
SplineSet
87 303 m 1
 87 485 l 1
 746 485 l 1
 746 303 l 1
 87 303 l 1
EndSplineSet
EndChar
StartChar: registered
Encoding: 174 174 320
Width: 1670
VWidth: 0
GlyphClass: 2
Flags: W
HStem: -17 104<598.501 1070.67> 697 125<671 867.318> 1099 124<671 1013.96> 1397 105<597.624 1070>
VStem: 68 122<501.235 990.262> 528 143<277 697 822 1099> 1039 141<853.372 1071.9> 1481 122<500.996 981.987>
CounterMasks: 2 f0 0d
LayerCount: 2
UndoRedoHistory
Layer: 1
Undoes
EndUndoes
Redoes
EndRedoes
EndUndoRedoHistory
Fore
SplineSet
834 -17 m 0
 435 -17 68 273 68 742 c 0
 68 1211 434 1502 833 1502 c 0
 1234 1502 1603 1210 1603 742 c 0
 1603 273 1235 -17 834 -17 c 0
834 87 m 0
 1188 87 1481 350 1481 741 c 0
 1481 1132 1188 1397 833 1397 c 0
 481 1397 190 1133 190 742 c 0
 190 350 482 87 834 87 c 0
671 822 m 1
 838 822 l 2
 978 822 1039 851 1039 964 c 0
 1039 1087 974 1099 817 1099 c 2
 671 1099 l 1
 671 822 l 1
528 277 m 1
 528 1223 l 1
 848 1223 l 2
 1065 1223 1180 1149 1180 968 c 0
 1180 830 1123 744 982 717 c 1
 1023 663 1220 277 1220 277 c 1
 1061 277 l 1
 1061 277 865 674 842 697 c 1
 671 697 l 1
 671 277 l 1
 528 277 l 1
EndSplineSet
EndChar
StartChar: macron
Encoding: 175 175 261
Width: 929
VWidth: 0
GlyphClass: 2
Flags: W
HStem: 1286 150<133 786>
VStem: 133 653<1286 1436>
LayerCount: 2
UndoRedoHistory
Layer: 1
Undoes
EndUndoes
Redoes
EndRedoes
EndUndoRedoHistory
Fore
SplineSet
133 1286 m 1
 133 1436 l 1
 786 1436 l 1
 786 1286 l 1
 133 1286 l 1
EndSplineSet
EndChar
StartChar: degree
Encoding: 176 176 190
Width: 789
VWidth: 0
GlyphClass: 2
Flags: W
HStem: 895 124<282.288 508.174> 1360 122<282.95 507.248>
VStem: 87 141<1070.6 1307.68> 562 142<1071.46 1307.68>
LayerCount: 2
UndoRedoHistory
Layer: 1
Undoes
EndUndoes
Redoes
EndRedoes
EndUndoRedoHistory
Fore
SplineSet
395 895 m 0
 212 895 87 1029 87 1192 c 0
 87 1356 214 1482 395 1482 c 0
 576 1482 704 1356 704 1192 c 0
 704 1033 580 895 395 895 c 0
395 1019 m 0
 485 1019 562 1085 562 1191 c 0
 562 1295 484 1360 396 1360 c 0
 306 1360 228 1295 228 1191 c 0
 228 1085 305 1019 395 1019 c 0
EndSplineSet
EndChar
StartChar: plusminus
Encoding: 177 177 302
Width: 1163
VWidth: 0
GlyphClass: 2
Flags: W
HStem: 0 159<115 1049> 612 173<124 492 665 1030>
VStem: 492 173<238 612 785 1150>
LayerCount: 2
UndoRedoHistory
Layer: 1
Undoes
EndUndoes
Redoes
EndRedoes
EndUndoRedoHistory
Fore
SplineSet
492 238 m 1
 492 612 l 1
 124 612 l 1
 124 785 l 1
 492 785 l 1
 492 1150 l 1
 665 1150 l 1
 665 785 l 1
 1030 785 l 1
 1030 612 l 1
 665 612 l 1
 665 238 l 1
 492 238 l 1
115 0 m 1
 115 159 l 1
 1049 159 l 1
 1049 0 l 1
 115 0 l 1
EndSplineSet
EndChar
StartChar: uni00B2
Encoding: 178 178 359
Width: 744
VWidth: 0
GlyphClass: 2
Flags: W
HStem: 662 99<255 634> 1434 100<236.67 493.655>
VStem: 531 115<1159.48 1395.89>
LayerCount: 2
UndoRedoHistory
Layer: 1
Undoes
EndUndoes
Redoes
EndRedoes
EndUndoRedoHistory
Fore
SplineSet
634 662 m 1
 109 662 l 1
 109 754 l 1
 354 1000 531 1155 531 1279 c 0
 531 1387 463 1434 384 1434 c 0
 300 1434 218 1398 153 1310 c 1
 81 1370 l 1
 133 1468 256 1534 371 1534 c 0
 529 1534 646 1450 646 1288 c 0
 646 1095 471 959 255 761 c 1
 634 761 l 1
 634 662 l 1
EndSplineSet
EndChar
StartChar: uni00B3
Encoding: 179 179 360
Width: 759
VWidth: 0
GlyphClass: 2
Flags: W
HStem: 594 135<225.905 497.26> 986 136<262 476.746> 1333 135<223.869 483.783>
VStem: 499 160<1146.74 1314.92> 524 154<756.268 951.074>
CounterMasks: 1 e0
LayerCount: 2
UndoRedoHistory
Layer: 1
Undoes
EndUndoes
Redoes
EndRedoes
EndUndoRedoHistory
Fore
SplineSet
393 594 m 0xe8
 308 594 205 620 137 677 c 1
 191 798 l 1
 236 756 327 729 388 729 c 0
 468 729 524 770 524 860 c 0xe8
 524 944 452 987 342 987 c 1
 262 986 l 1
 262 1122 l 1
 342 1122 l 2
 446 1122 499 1161 499 1229 c 0
 499 1293 459 1333 389 1333 c 0
 321 1333 236 1303 196 1270 c 1
 141 1377 l 1
 204 1435 303 1468 397 1468 c 0
 533 1468 659 1394 659 1230 c 1xf0
 658 1157 622 1092 536 1062 c 1
 619 1028 678 952 678 858 c 0
 678 688 547 594 393 594 c 0xe8
EndSplineSet
EndChar
StartChar: acute
Encoding: 180 180 145
Width: 585
VWidth: 0
GlyphClass: 2
Flags: W
HStem: 1141 385
VStem: 149 447
LayerCount: 2
UndoRedoHistory
Layer: 1
Undoes
EndUndoes
Redoes
EndRedoes
EndUndoRedoHistory
Fore
SplineSet
149 1141 m 1
 327 1526 l 1
 596 1526 l 1
 287 1141 l 1
 149 1141 l 1
EndSplineSet
EndChar
StartChar: paragraph
Encoding: 182 182 293
Width: 1090
VWidth: 0
GlyphClass: 2
Flags: W
HStem: 1338 154<595 763 916 993>
VStem: 84 511<992.728 1325.86> 443 152<-50 841> 763 153<-50 1338>
LayerCount: 2
UndoRedoHistory
Layer: 1
Undoes
EndUndoes
Redoes
EndRedoes
EndUndoRedoHistory
Fore
SplineSet
443 -50 m 1xb0
 443 841 l 1xb0
 208 841 84 979 84 1161 c 0xd0
 84 1376 246 1492 547 1492 c 2
 993 1492 l 1
 993 1338 l 1
 916 1338 l 1
 916 -50 l 1
 763 -50 l 1
 763 1338 l 1
 595 1338 l 1
 595 -50 l 1
 443 -50 l 1xb0
EndSplineSet
EndChar
StartChar: periodcentered
Encoding: 183 183 299
Width: 405
VWidth: 0
GlyphClass: 2
Flags: W
HStem: 558 163<116 284>
VStem: 116 168<558 721>
LayerCount: 2
UndoRedoHistory
Layer: 1
Undoes
EndUndoes
Redoes
EndRedoes
EndUndoRedoHistory
Fore
SplineSet
116 558 m 1
 116 721 l 1
 284 721 l 1
 284 558 l 1
 116 558 l 1
EndSplineSet
EndChar
StartChar: cedilla
Encoding: 184 184 178
Width: 550
VWidth: 0
GlyphClass: 2
Flags: W
HStem: -398 21G<83 271.456> -19 20G<186.536 318>
VStem: 83 235
LayerCount: 2
UndoRedoHistory
Layer: 1
Undoes
EndUndoes
Redoes
EndRedoes
EndUndoRedoHistory
Fore
SplineSet
83 -398 m 1
 192 1 l 1
 318 1 l 1
 269 -398 l 1
 83 -398 l 1
EndSplineSet
EndChar
StartChar: uni00B9
Encoding: 185 185 362
Width: 732
VWidth: 0
GlyphClass: 2
Flags: W
HStem: 615 146<165 319 503 652> 1454 20G<353 503>
VStem: 319 184<761 1283>
LayerCount: 2
UndoRedoHistory
Layer: 1
Undoes
EndUndoes
Redoes
EndRedoes
EndUndoRedoHistory
Fore
SplineSet
165 615 m 1
 165 761 l 1
 319 761 l 1
 319 1283 l 1
 282 1263 169 1214 152 1210 c 1
 152 1367 l 1
 167 1370 347 1462 359 1474 c 1
 503 1473 l 1
 503 761 l 1
 652 761 l 1
 652 615 l 1
 165 615 l 1
EndSplineSet
EndChar
StartChar: ordmasculine
Encoding: 186 186 288
Width: 860
VWidth: 0
GlyphClass: 2
Flags: W
HStem: 820 71<310.981 553.469> 1508 72<311.201 552.068>
VStem: 92 101<1012.54 1389.3> 676 93<1008.51 1385.2>
LayerCount: 2
UndoRedoHistory
Layer: 1
Undoes
EndUndoes
Redoes
EndRedoes
EndUndoRedoHistory
Fore
SplineSet
769 1197 m 0
 769 984 630 820 430 820 c 0
 218 820 92 981 92 1197 c 0
 92 1417 218 1580 430 1580 c 0
 648 1580 769 1420 769 1197 c 0
193 1198 m 0
 193 1035 272 891 430 891 c 0
 596 891 676 1033 676 1195 c 0
 676 1362 592 1508 430 1508 c 0
 273 1508 193 1364 193 1198 c 0
EndSplineSet
EndChar
StartChar: guillemotright
Encoding: 187 187 227
Width: 1029
VWidth: 0
GlyphClass: 2
Flags: W
LayerCount: 2
UndoRedoHistory
Layer: 1
Undoes
EndUndoes
Redoes
EndRedoes
EndUndoRedoHistory
Fore
SplineSet
278 970 m 1
 580 556 l 1
 276 138 l 1
 101 184 l 1
 368 553 l 1
 105 925 l 1
 278 970 l 1
664 970 m 1
 967 556 l 1
 661 138 l 1
 488 184 l 1
 753 553 l 1
 493 925 l 1
 664 970 l 1
EndSplineSet
EndChar
StartChar: onequarter
Encoding: 188 188 287
Width: 1581
VWidth: 0
GlyphClass: 2
Flags: W
HStem: 0 21G<289 482.957> 181 131<1114 1310 1464 1576> 601 141<77 223 398 535> 1451 20G<257 398 1233.97 1423>
VStem: 223 175<742 1301> 1310 154<7 181 312 628>
LayerCount: 2
UndoRedoHistory
Layer: 1
Undoes
EndUndoes
Redoes
EndRedoes
EndUndoRedoHistory
Fore
SplineSet
1114 312 m 1
 1310 312 l 1
 1310 628 l 1
 1114 312 l 1
289 0 m 1
 1247 1471 l 1
 1423 1471 l 1
 470 0 l 1
 289 0 l 1
1311 7 m 1
 1311 181 l 1
 927 181 l 1
 927 309 l 1
 1301 855 l 1
 1464 855 l 1
 1464 312 l 1
 1576 312 l 1
 1581 181 l 1
 1463 181 l 1
 1462 7 l 1
 1311 7 l 1
77 601 m 1
 77 742 l 1
 223 742 l 1
 223 1301 l 1
 186 1281 78 1233 63 1228 c 1
 63 1370 l 1
 79 1376 251 1465 263 1477 c 1
 398 1477 l 1
 398 742 l 1
 535 742 l 1
 535 601 l 1
 77 601 l 1
EndSplineSet
EndChar
StartChar: onehalf
Encoding: 189 189 286
Width: 1647
VWidth: 0
GlyphClass: 2
Flags: W
HStem: -20 135<1278 1590> 609 132<108 239 414 544> 695 145<1169.01 1412.05> 1451 20G<257 414 1225.85 1419>
VStem: 239 175<741 1309> 1444 163<467.924 663.266>
CounterMasks: 1 b0
LayerCount: 2
UndoRedoHistory
Layer: 1
Undoes
EndUndoes
Redoes
EndRedoes
EndUndoRedoHistory
Fore
SplineSet
281 14 m 1x9c
 1239 1471 l 1
 1419 1471 l 1
 463 14 l 1
 281 14 l 1x9c
1049 -20 m 1
 1049 112 l 1
 1122 186 1444 438 1444 567 c 0
 1444 651 1379 695 1313 695 c 0
 1240 695 1161 663 1111 595 c 1
 1034 700 l 1
 1092 791 1203 840 1324 840 c 0xbc
 1468 840 1607 745 1607 574 c 0
 1607 386 1464 276 1278 115 c 1
 1603 115 l 1
 1590 -20 l 1
 1049 -20 l 1
108 609 m 1xdc
 108 741 l 1
 239 741 l 1
 239 1309 l 1
 203 1287 105 1233 92 1226 c 1
 92 1371 l 1
 110 1380 251 1465 263 1477 c 1
 414 1477 l 1
 414 741 l 1
 544 741 l 1
 544 609 l 1
 108 609 l 1xdc
EndSplineSet
EndChar
StartChar: threequarters
Encoding: 190 190 342
Width: 1569
VWidth: 0
GlyphClass: 2
Flags: W
HStem: 194 130<1078 1275 1429 1541> 613 137<154.344 425.988> 993 136<196 411.41> 1331 137<155.264 417.851>
VStem: 432 164<1153.81 1313.95> 453 163<777.488 961.658> 1275 154<15 194 324 640>
CounterMasks: 1 70
LayerCount: 2
UndoRedoHistory
Layer: 1
Undoes
EndUndoes
Redoes
EndRedoes
EndUndoRedoHistory
Fore
SplineSet
1078 324 m 1xf2
 1275 324 l 1
 1275 640 l 1
 1078 324 l 1xf2
283 14 m 1
 1239 1471 l 1
 1417 1471 l 1
 466 14 l 1
 283 14 l 1
1276 15 m 1
 1276 194 l 1
 893 194 l 1
 893 318 l 1
 1265 871 l 1
 1429 871 l 1
 1429 324 l 1
 1541 324 l 1
 1546 194 l 1
 1428 194 l 1
 1427 15 l 1
 1276 15 l 1
328 613 m 0
 243 613 138 639 71 696 c 1
 127 813 l 1
 172 773 257 750 318 750 c 0
 398 750 453 790 453 876 c 0xf6
 453 955 386 994 277 994 c 1
 196 993 l 1
 196 1129 l 1
 276 1129 l 2
 380 1129 432 1168 432 1233 c 0
 432 1295 393 1331 322 1331 c 0
 254 1331 170 1303 130 1270 c 1
 65 1375 l 1
 128 1434 237 1468 332 1468 c 0
 464 1468 596 1395 596 1238 c 0xfa
 596 1200 574 1108 476 1072 c 1
 558 1039 616 965 616 873 c 0xf6
 616 704 480 613 328 613 c 0
EndSplineSet
EndChar
StartChar: Eth
Encoding: 208 208 37
Width: 1512
VWidth: 0
GlyphClass: 2
Flags: W
HStem: 0 191<413 871.364> 661 156<36 674> 1274 186<413 867.799>
VStem: 160 253<191 1274> 1159 252<473.901 988.561>
LayerCount: 2
UndoRedoHistory
Layer: 1
Undoes
EndUndoes
Redoes
EndRedoes
EndUndoRedoHistory
Fore
SplineSet
674 817 m 1
 674 661 l 1
 36 661 l 1
 36 817 l 1
 674 817 l 1
EndSplineSet
Refer: 21 68 N 1 0 0 1 0 0 2
EndChar
StartChar: multiply
Encoding: 215 215 264
Width: 1103
VWidth: 0
GlyphClass: 2
Flags: W
LayerCount: 2
UndoRedoHistory
Layer: 1
Undoes
EndUndoes
Redoes
EndRedoes
EndUndoRedoHistory
Fore
SplineSet
832 168 m 1
 553 455 l 1
 272 167 l 1
 154 291 l 1
 431 580 l 1
 158 868 l 1
 276 990 l 1
 553 704 l 1
 827 988 l 1
 948 866 l 1
 674 580 l 1
 723 531 950 293 950 293 c 1
 832 168 l 1
EndSplineSet
EndChar
StartChar: Oslash
Encoding: 216 216 89
Width: 1616
VWidth: 0
GlyphClass: 2
Flags: W
HStem: -19 200<622.607 1019.72> 1274 202<624.928 1018.11>
VStem: 108 254<467.621 984.564> 1278 253<467.755 983.704>
LayerCount: 2
UndoRedoHistory
Layer: 1
Undoes
EndUndoes
Redoes
EndRedoes
EndUndoRedoHistory
Fore
SplineSet
543 -239 m 1
 424 -197 l 1
 1151 1682 l 1
 1276 1635 l 1
 543 -239 l 1
EndSplineSet
Refer: 78 79 N 1 0 0 1 0 0 2
EndChar
StartChar: germandbls
Encoding: 223 223 222
Width: 1190
VWidth: 0
GlyphClass: 2
Flags: W
HStem: -22 176<592.685 924.174> 0 21G<158 381> 1312 169<461.159 755.771>
VStem: 158 223<0 1222.02> 606 216<707.287 851.394> 807 206<1017.72 1258.57> 964 225<195.954 418.11>
LayerCount: 2
UndoRedoHistory
Layer: 1
Undoes
EndUndoes
Redoes
EndRedoes
EndUndoRedoHistory
Fore
SplineSet
381 0 m 1x74
 158 0 l 1
 158 1017 l 2
 158 1306 304 1481 604 1481 c 0
 834 1481 1013 1370 1013 1157 c 0x74
 1013 924 822 854 822 773 c 0
 822 667 1189 607 1189 304 c 0
 1189 101 1053 -22 838 -22 c 0
 728 -22 610 8 507 52 c 1
 562 213 l 1
 610 188 704 154 798 154 c 0
 900 154 964 208 964 307 c 0
 964 502 606 559 606 750 c 0xba
 606 917 807 970 807 1152 c 0
 807 1247 735 1312 614 1312 c 0
 440 1312 381 1215 381 1016 c 2
 381 0 l 1x74
EndSplineSet
EndChar
StartChar: ae
Encoding: 230 230 147
Width: 1693
VWidth: 0
GlyphClass: 2
Flags: W
HStem: -19 160<340.231 646.588 1093.45 1440.83> 478 150<372.354 743 960 1351.58> 946 169<298.076 684.828> 961 154<1109.27 1397.62>
VStem: 96 207<181.045 415.173> 743 217<277.518 477 628 794.916> 1453 176<703.385 910.017>
LayerCount: 2
UndoRedoHistory
Layer: 1
Undoes
EndUndoes
Redoes
EndRedoes
EndUndoRedoHistory
Fore
SplineSet
960 626 m 1xde
 1328 626 1453 680 1453 793 c 0
 1453 895 1385 961 1260 961 c 0
 1119 961 983 869 960 626 c 1xde
457 141 m 0
 563 141 704 196 789 272 c 1
 771 316 750 406 747 478 c 1
 606 478 l 2
 375 478 303 415 303 305 c 0
 303 193 360 141 457 141 c 0
426 -19 m 0
 231 -19 96 111 96 313 c 0
 96 549 289 628 613 628 c 2
 743 628 l 1
 743 736 l 2
 743 872 693 942 543 946 c 1
 426 946 277 900 202 866 c 1
 138 1016 l 1
 233 1070 408 1115 562 1115 c 0xee
 727 1115 846 1053 880 918 c 1
 940 1036 1089 1115 1243 1115 c 0
 1529 1115 1629 944 1629 784 c 0
 1629 611 1495 477 958 477 c 1
 968 244 1068 150 1250 149 c 0
 1366 149 1457 185 1536 232 c 1
 1601 85 l 1
 1509 18 1402 -19 1233 -19 c 0
 1060 -19 952 40 874 144 c 1
 785 55 604 -19 426 -19 c 0
EndSplineSet
EndChar
StartChar: eth
Encoding: 240 240 210
Width: 1169
VWidth: 0
GlyphClass: 2
Flags: W
HStem: -22 174<441.487 777.917> 782 159<428.506 738.461> 1075 21G<260.267 319.134>
VStem: 83 213<296.942 646.265> 910 201<287.729 641.965>
LayerCount: 2
UndoRedoHistory
Layer: 1
Undoes
EndUndoes
Redoes
EndRedoes
EndUndoRedoHistory
Fore
SplineSet
605 152 m 0
 803 152 910 279 910 473 c 0
 910 644 798 782 599 782 c 0
 405 782 296 656 296 472 c 0
 296 298 403 152 605 152 c 0
599 -22 m 0
 280 -22 83 194 83 471 c 0
 83 753 280 941 566 941 c 0
 653 941 717 909 764 883 c 1
 717 955 616 1074 516 1172 c 1
 268 1075 l 1
 210 1225 l 1
 404 1302 l 1
 196 1502 l 1
 455 1502 l 1
 583 1376 l 1
 858 1485 l 1
 918 1334 l 1
 694 1247 l 1
 839 1088 943 968 1016 840 c 0
 1073 739 1110 607 1111 467 c 1
 1111 173 924 -22 599 -22 c 0
EndSplineSet
EndChar
StartChar: divide
Encoding: 247 247 192
Width: 1241
VWidth: 0
GlyphClass: 2
Flags: W
HStem: 25 248<497 740> 488 173<108 1128> 869 239<497 746>
VStem: 497 243<25 273 869 1108>
LayerCount: 2
UndoRedoHistory
Layer: 1
Undoes
EndUndoes
Redoes
EndRedoes
EndUndoRedoHistory
Fore
SplineSet
497 869 m 1
 497 1108 l 1
 746 1108 l 1
 746 869 l 1
 497 869 l 1
108 488 m 1
 108 661 l 1
 1128 661 l 1
 1128 488 l 1
 108 488 l 1
497 25 m 1
 497 273 l 1
 740 273 l 1
 740 25 l 1
 497 25 l 1
EndSplineSet
EndChar
StartChar: oslash
Encoding: 248 248 289
Width: 1197
VWidth: 0
GlyphClass: 2
Flags: W
HStem: -19 171<437.832 740.977> 910 171<436.685 741.154>
VStem: 78 226<306.485 755.895> 873 226<301.953 758.753>
LayerCount: 2
UndoRedoHistory
Layer: 1
Undoes
EndUndoes
Redoes
EndRedoes
EndUndoRedoHistory
Fore
SplineSet
297 -152 m 1
 226 -108 l 1
 954 1237 l 1
 1031 1193 l 1
 297 -152 l 1
EndSplineSet
Refer: 274 111 N 1 0 0 1 0 0 2
EndChar
StartChar: Dcroat
Encoding: 272 272 23
Width: 1509
VWidth: 0
GlyphClass: 2
Flags: W
HStem: 0 191<413 871.364> 703 91<62 586> 1274 186<413 867.799>
VStem: 160 253<191 1274> 1159 252<473.901 988.561>
LayerCount: 2
UndoRedoHistory
Layer: 1
Undoes
EndUndoes
Redoes
EndRedoes
EndUndoRedoHistory
Fore
SplineSet
62 703 m 1
 62 794 l 1
 586 794 l 1
 586 703 l 1
 62 703 l 1
EndSplineSet
Refer: 21 68 N 1 0 0 1 0 0 2
EndChar
StartChar: dcroat
Encoding: 273 273 189
Width: 1301
VWidth: 0
GlyphClass: 2
Flags: W
HStem: -19 172<422.328 712.008> 0 21<853.277 1047> 909 172<432.105 718.249> 1220 111<140 645> 1453 20<823 1047>
VStem: 78 226<286.956 760.726> 823 224<268.627 792.483 942.211 1458> 856 191<0 105.295>
LayerCount: 2
UndoRedoHistory
Layer: 1
Undoes
EndUndoes
Redoes
EndRedoes
EndUndoRedoHistory
Fore
SplineSet
140 1220 m 1x3c
 140 1331 l 1
 645 1331 l 1
 645 1220 l 1
 140 1220 l 1x3c
EndSplineSet
Refer: 185 100 N 1 0 0 1 0 0 2
EndChar
StartChar: Hbar
Encoding: 294 294 48
Width: 1449
VWidth: 0
GlyphClass: 2
Flags: W
HStem: 0 21G<168 389 1115 1338> 662 178<389 1115> 1137 125<83 168 389 1115 1338 1423> 1432 20G<168 389 1115 1338>
VStem: 168 221<0 662 840 1137 1262 1452> 1115 223<0 662 840 1137 1262 1452>
LayerCount: 2
UndoRedoHistory
Layer: 1
Undoes
EndUndoes
Redoes
EndRedoes
EndUndoRedoHistory
Fore
SplineSet
389 840 m 1
 1115 840 l 1
 1115 1137 l 1
 389 1137 l 1
 389 840 l 1
168 0 m 1
 168 1137 l 1
 83 1137 l 1
 83 1262 l 1
 168 1262 l 1
 168 1452 l 1
 389 1452 l 1
 389 1262 l 1
 1115 1262 l 1
 1115 1452 l 1
 1338 1452 l 1
 1338 1262 l 1
 1423 1262 l 1
 1423 1137 l 1
 1338 1137 l 1
 1338 0 l 1
 1115 0 l 1
 1115 662 l 1
 389 662 l 1
 389 0 l 1
 168 0 l 1
EndSplineSet
EndChar
StartChar: hbar
Encoding: 295 295 231
Width: 1135
VWidth: 0
GlyphClass: 2
Flags: W
HStem: 0 21G<156 369 860 1071> 935 173<514.156 798.873> 1219 133<63 156 369 643>
VStem: 156 213<0 812.35 959 1219 1352 1467> 860 211<0 867.065>
LayerCount: 2
UndoRedoHistory
Layer: 1
Undoes
EndUndoes
Redoes
EndRedoes
EndUndoRedoHistory
Fore
SplineSet
156 0 m 1
 156 1219 l 1
 63 1219 l 1
 63 1352 l 1
 156 1352 l 1
 156 1467 l 1
 369 1487 l 1
 369 1352 l 1
 643 1352 l 1
 643 1219 l 1
 369 1219 l 1
 369 959 l 1
 457 1055 578 1108 727 1108 c 0
 943 1108 1071 963 1071 657 c 2
 1071 0 l 1
 860 0 l 1
 860 628 l 2
 860 840 828 935 670 935 c 0
 524 935 404 833 369 736 c 1
 369 0 l 1
 156 0 l 1
EndSplineSet
EndChar
StartChar: dotlessi
Encoding: 305 305 194
Width: 490
VWidth: 0
GlyphClass: 2
Flags: W
HStem: 0 21G<151 370> 1065 20G<151 370>
VStem: 151 219<0 1085>
LayerCount: 2
UndoRedoHistory
Layer: 1
Undoes
EndUndoes
Redoes
EndRedoes
EndUndoRedoHistory
Fore
SplineSet
151 0 m 1
 151 1085 l 1
 370 1085 l 1
 370 0 l 1
 151 0 l 1
EndSplineSet
EndChar
StartChar: Eng
Encoding: 330 330 34
Width: 1322
VWidth: 0
GlyphClass: 2
Flags: W
HStem: -325 196<667 979.807> 0 21G<127.986 364> 1288 191<602.422 949.378> 1436 20G<127 341.283>
VStem: 127 212<1330.39 1456> 128 236<0 1109.24> 1041 237<-69.3791 1193.37>
LayerCount: 2
UndoRedoHistory
Layer: 1
Undoes
EndUndoes
Redoes
EndRedoes
EndUndoRedoHistory
Fore
SplineSet
813 -325 m 0xea
 796 -325 749 -324 667 -316 c 1
 646 -122 l 1
 737 -128 778 -129 791 -129 c 0
 1016 -129 1041 -64 1041 159 c 2
 1041 957 l 2
 1041 1202 973 1288 786 1288 c 0
 619 1288 453 1195 364 1052 c 1
 364 0 l 1
 128 0 l 1xe6
 127 1456 l 1
 339 1456 l 1xda
 360 1272 l 1
 502 1423 682 1479 844 1479 c 0
 1131 1479 1278 1291 1278 965 c 2
 1278 158 l 2
 1278 -150 1175 -325 813 -325 c 0xea
EndSplineSet
EndChar
StartChar: eng
Encoding: 331 331 208
Width: 1114
VWidth: 0
GlyphClass: 2
Flags: W
HStem: -327 182<632 806.254> 0 21G<147 377> 933 176<506.999 781.96> 1065 20G<147 341.309>
VStem: 147 230<0 817.205> 147 191<998.361 1085> 840 229<-118.467 870.104>
LayerCount: 2
UndoRedoHistory
Layer: 1
Undoes
EndUndoes
Redoes
EndRedoes
EndUndoRedoHistory
Fore
SplineSet
632 -327 m 1xe6
 612 -145 l 1
 665 -145 l 2
 824 -145 840 -112 840 81 c 2
 840 665 l 1
 839 834 804 933 653 933 c 0
 511 933 426 857 390 754 c 1
 380 700 377 635 377 562 c 2
 377 0 l 1
 147 0 l 1xea
 147 1085 l 1
 338 1085 l 1xd6
 361 946 l 1
 443 1046 552 1109 705 1109 c 0
 955 1109 1069 954 1069 674 c 2
 1069 132 l 1
 1068 -171 1015 -327 700 -327 c 2
 632 -327 l 1xe6
EndSplineSet
EndChar
StartChar: OE
Encoding: 338 338 79
Width: 1968
VWidth: 0
GlyphClass: 2
Flags: W
HStem: 844 21<1481.32 1765> 1021 245<804.618 947.827> 1036 27<1468 1784> 1214 57.7119<996.047 1005.01>
VStem: 406.919 187.828<275.429 744.686> 786.52 8.23362<167.851 195.301> 1303 165<957 1036>
LayerCount: 2
UndoRedoHistory
Layer: 1
Undoes
EndUndoes
Redoes
EndRedoes
EndUndoRedoHistory
Fore
SplineSet
807 -21 m 1x8e
 551.482008154 -21 406.919378242 212.590235651 406.919378242 520.376235973 c 0
 406.919378242 524.570513468 406.946223812 528.778569265 407 533 c 1
 408.406189909 742.52229643 512.635622936 898.655601241 671.723676608 972.899196731 c 1
 622.325392198 820.302030776 596.491284261 646.326578184 596 552 c 1
 595.177048055 535.870141874 594.746901054 519.767373745 594.746901054 503.795918963 c 0
 594.746901054 333.580631694 643.603706956 178.280131067 786.519614098 164.056047354 c 1
 774.310589184 114.56980589 767.274047651 73.1247043168 767.274047651 42.0866625964 c 0
 767.274047651 1.75875532672 779.153105626 -21 807 -21 c 1x8e
671.723676608 972.899196731 m 1
 722.874683705 1130.91073118 799.29171523 1266 899 1266 c 1xce
 917.404418604 1269.86265576 933.847023503 1271.71187113 948.386466484 1271.71187113 c 0
 997.836813504 1271.71187113 1025.27215044 1250.32089291 1033 1214 c 1x9e
 995.407033792 1214 962.813252458 1131.44935748 936.274208211 1020.08944831 c 1
 922.097902749 1020.69392418 909.497647475 1021 899 1021 c 0xce
 815.86658725 1021 738.903856924 1004.25100485 671.723676608 972.899196731 c 1
936.274208211 1020.08944831 m 1
 1044.98675 1015.45395928 1246.38296086 993.270290698 1303 957 c 1
 1306 1036 l 1
 1468 1036 l 1xae
 1468 844 l 1
 1481.32307692 844 l 1
 1485 605 l 1
 1786 605 l 1
 1772 425 l 1
 1754 446 1071 462 1024 462 c 0
 906 462 826 415 821 285 c 1
 811.105853223 253.408163423 802.266275632 223.563898361 794.753232575 195.812391825 c 1
 797.409967433 243.886337716 825.737349248 340.080722369 858 453 c 1
 860.567887002 528.110694797 888.687693159 820.412702417 936.274208211 1020.08944831 c 1
1468 1036 m 1
 1468 1063 l 1
 1784 1063 l 1
 1798 1036 l 1
 1468 1036 l 1
1481.32307692 844 m 1
 1481 865 l 1
 1765 865 l 1
 1765 844 l 1
 1481.32307692 844 l 1
786.519614098 164.056047354 m 1
 789.047863431 174.30367629 791.797920632 184.896127618 794.753232575 195.812391825 c 1
 793.622002012 175.342635976 797.144945249 163.597276015 807 163 c 1
 799.968189175 163.040646305 793.142893617 163.396847939 786.519614098 164.056047354 c 1
EndSplineSet
EndChar
StartChar: tbar
Encoding: 359 359 338
Width: 889
VWidth: 0
GlyphClass: 2
Flags: W
HStem: -19 135<487.539 750.287> 634 125<137 291 457 665> 973 117<138 291 457 746>
VStem: 291 166<150.238 634 759 973 1090 1172.35> 334 123<1254.65 1337>
LayerCount: 2
UndoRedoHistory
Layer: 1
Undoes
EndUndoes
Redoes
EndRedoes
EndUndoRedoHistory
Fore
SplineSet
576 -19 m 0xf0
 311 -19 291 110 291 442 c 2
 291 634 l 1
 137 634 l 1
 137 759 l 1
 291 759 l 1
 291 973 l 1
 124 973 l 1
 138 1090 l 1
 291 1090 l 1xf0
 334 1337 l 1
 457 1345 l 1xe8
 457 1090 l 1
 746 1090 l 1
 746 973 l 1
 457 973 l 1
 457 759 l 1
 665 759 l 1
 665 634 l 1
 457 634 l 1
 457 364 l 2
 457 160 480 116 614 116 c 0
 632 116 674 123 750 128 c 1
 765 -6 l 1
 641 -17 610 -19 576 -19 c 0xf0
EndSplineSet
EndChar
StartChar: uni0237
Encoding: 567 567 448
Width: 526
VWidth: 0
GlyphClass: 2
Flags: W
HStem: -431 179<-24 141.625>
VStem: 171.004 233.996<-228.621 1092>
LayerCount: 2
UndoRedoHistory
Layer: 1
Undoes
EndUndoes
Redoes
EndRedoes
EndUndoRedoHistory
Fore
SplineSet
-24 -431 m 1
 -56 -252 l 1
 8 -252 l 2
 168.209302326 -252 171.003650622 -207.290427258 171.003650622 -60.3380331292 c 0
 171.003650622 -55.0265008112 171 -49.5813953488 171 -44 c 2
 171 1092 l 1
 405 1092 l 1
 405 -28 l 2
 405 -310 344 -431 38 -431 c 2
 -24 -431 l 1
EndSplineSet
EndChar
StartChar: uni02BC
Encoding: 700 700 449
Width: 418
VWidth: 0
GlyphClass: 2
Flags: W
HStem: 1013 489<161 249>
VStem: 116 229
LayerCount: 2
UndoRedoHistory
Layer: 1
Undoes
EndUndoes
Redoes
EndRedoes
EndUndoRedoHistory
Fore
SplineSet
116 1013 m 1
 161 1502 l 1
 345 1502 l 1
 249 1013 l 1
 116 1013 l 1
EndSplineSet
EndChar
StartChar: circumflex
Encoding: 710 710 180
Width: 735
VWidth: 0
GlyphClass: 2
Flags: W
HStem: 1176 388
VStem: 41 642
LayerCount: 2
UndoRedoHistory
Layer: 1
Undoes
EndUndoes
Redoes
EndRedoes
EndUndoRedoHistory
Fore
SplineSet
41 1176 m 1
 263 1564 l 1
 465 1564 l 1
 683 1176 l 1
 521 1176 l 1
 357 1415 l 1
 201 1176 l 1
 41 1176 l 1
EndSplineSet
EndChar
StartChar: caron
Encoding: 711 711 173
Width: 733
VWidth: 0
GlyphClass: 2
Flags: W
HStem: 1199 365
VStem: 33 657
LayerCount: 2
UndoRedoHistory
Layer: 1
Undoes
EndUndoes
Redoes
EndRedoes
EndUndoRedoHistory
Fore
SplineSet
261 1199 m 1
 33 1564 l 1
 208 1564 l 1
 351 1343 l 1
 512 1564 l 1
 690 1564 l 1
 458 1199 l 1
 261 1199 l 1
EndSplineSet
EndChar
StartChar: breve
Encoding: 728 728 168
Width: 684
VWidth: 0
GlyphClass: 2
Flags: W
HStem: 1235 140<241.082 444.92>
VStem: 75 148<1392.19 1486> 461 147<1391.81 1486>
LayerCount: 2
UndoRedoHistory
Layer: 1
Undoes
EndUndoes
Redoes
EndRedoes
EndUndoRedoHistory
Fore
SplineSet
341 1235 m 0
 193 1235 75 1313 75 1486 c 1
 223 1486 l 1
 223 1406 266 1375 341 1375 c 0
 416 1375 461 1406 461 1486 c 1
 608 1486 l 1
 608 1312 490 1235 341 1235 c 0
EndSplineSet
EndChar
StartChar: dotaccent
Encoding: 729 729 193
Width: 435
VWidth: 0
GlyphClass: 2
Flags: W
HStem: 1252 205<126 313>
VStem: 126 187<1252 1457>
LayerCount: 2
UndoRedoHistory
Layer: 1
Undoes
EndUndoes
Redoes
EndRedoes
EndUndoRedoHistory
Fore
SplineSet
126 1252 m 1
 126 1457 l 1
 313 1457 l 1
 313 1252 l 1
 126 1252 l 1
EndSplineSet
EndChar
StartChar: ring
Encoding: 730 730 322
Width: 602
VWidth: 0
GlyphClass: 2
Flags: W
HStem: 1172 95<224.211 378.233> 1470 96<224.429 378.634>
VStem: 95 113<1280.36 1455> 396 112<1281.71 1454.14>
LayerCount: 2
UndoRedoHistory
Layer: 1
Undoes
EndUndoes
Redoes
EndRedoes
EndUndoRedoHistory
Fore
SplineSet
301 1172 m 0
 176 1172 95 1264 95 1370 c 0
 95 1476 175 1566 301 1566 c 0
 428 1566 508 1475 508 1370 c 0
 508 1264 426 1172 301 1172 c 0
301 1267 m 0
 359 1267 396 1314 396 1369 c 0
 396 1422 359 1470 301 1470 c 0
 244 1470 208 1422 208 1369 c 0
 208 1313 241 1267 301 1267 c 0
EndSplineSet
EndChar
StartChar: ogonek
Encoding: 731 731 279
Width: 542
VWidth: 0
GlyphClass: 2
Flags: W
HStem: -430 136<283.281 475.98> -20 20G<260.5 406>
VStem: 109 168<-285.709 -129.078>
LayerCount: 2
UndoRedoHistory
Layer: 1
Undoes
EndUndoes
Redoes
EndRedoes
EndUndoRedoHistory
Fore
SplineSet
480 -396 m 1
 432 -415 368 -430 310 -430 c 0
 192 -430 109 -372 109 -264 c 0
 109 -140 216 -43 305 0 c 1
 406 0 l 1
 335 -54 277 -151 277 -218 c 0
 277 -263 310 -294 353 -294 c 0
 404 -294 459 -272 475 -265 c 1
 480 -396 l 1
EndSplineSet
EndChar
StartChar: tilde
Encoding: 732 732 343
Width: 784
VWidth: 0
GlyphClass: 2
Flags: W
HStem: 1227 151<425.472 596.251> 1324 137<207.745 383.366>
VStem: 78 114<1227 1312.29> 606 115<1382.16 1460>
LayerCount: 2
UndoRedoHistory
Layer: 1
Undoes
EndUndoes
Redoes
EndRedoes
EndUndoRedoHistory
Fore
SplineSet
192 1227 m 1xb0
 78 1227 l 1xb0
 78 1355 133 1461 264 1461 c 0x70
 392 1461 486 1378 545 1378 c 0
 574 1378 594 1397 606 1460 c 1
 721 1460 l 1
 721 1337 669 1227 550 1227 c 0xb0
 441 1227 333 1324 264 1324 c 0x70
 229 1324 205 1297 192 1227 c 1xb0
EndSplineSet
EndChar
StartChar: hungarumlaut
Encoding: 733 733 233
Width: 831
VWidth: 0
GlyphClass: 2
Flags: W
HStem: 1181 347
LayerCount: 2
UndoRedoHistory
Layer: 1
Undoes
EndUndoes
Redoes
EndRedoes
EndUndoRedoHistory
Fore
SplineSet
396 1181 m 1
 620 1528 l 1
 832 1528 l 1
 520 1181 l 1
 396 1181 l 1
125 1181 m 1
 333 1528 l 1
 539 1528 l 1
 249 1181 l 1
 125 1181 l 1
EndSplineSet
EndChar
StartChar: uni0307
Encoding: 775 775 450
Width: 411
VWidth: 0
GlyphClass: 2
Flags: W
HStem: 1227 210<124 311>
VStem: 124 187<1227 1437>
LayerCount: 2
UndoRedoHistory
Layer: 1
Undoes
EndUndoes
Redoes
EndRedoes
EndUndoRedoHistory
Fore
SplineSet
124 1227 m 1
 124 1437 l 1
 311 1437 l 1
 311 1227 l 1
 124 1227 l 1
EndSplineSet
EndChar
StartChar: uni030F
Encoding: 783 783 451
Width: 708
VWidth: 0
GlyphClass: 2
Flags: W
HStem: 1323 308
VStem: 110 484
LayerCount: 2
UndoRedoHistory
Layer: 1
Undoes
EndUndoes
Redoes
EndRedoes
EndUndoRedoHistory
Fore
SplineSet
401 1323 m 1
 341 1323 l 1
 110 1631 l 1
 246 1631 l 1
 401 1323 l 1
594 1323 m 1
 537 1323 l 1
 358 1631 l 1
 482 1631 l 1
 594 1323 l 1
EndSplineSet
EndChar
StartChar: uni0311
Encoding: 785 785 452
Width: 663
VWidth: 0
GlyphClass: 2
Flags: W
HStem: 1356 125<247.105 442.367>
VStem: 79 147<1241 1330.53> 464 147<1241 1330.92>
LayerCount: 2
UndoRedoHistory
Layer: 1
Undoes
EndUndoes
Redoes
EndRedoes
EndUndoRedoHistory
Fore
SplineSet
79 1241 m 1
 79 1406 213 1481 345 1481 c 0
 476 1481 611 1407 611 1241 c 1
 464 1241 l 1
 464 1320 408 1356 344 1356 c 0
 280 1356 226 1319 226 1241 c 1
 79 1241 l 1
EndSplineSet
EndChar
StartChar: uni031B
Encoding: 795 795 453
Width: 511
VWidth: 0
GlyphClass: 2
Flags: W
HStem: 169 101<102 212.406>
VStem: 237 127<292.014 509.933>
LayerCount: 2
UndoRedoHistory
Layer: 1
Undoes
EndUndoes
Redoes
EndRedoes
EndUndoRedoHistory
Fore
SplineSet
213 512 m 1
 324 512 l 1
 348 459 364 400 364 349 c 0
 364 252 312 169 160 169 c 0
 141 169 122 171 102 173 c 1
 102 270 l 1
 116 270 l 2
 210 270 237 334 237 398 c 0
 237 436 227 477 213 512 c 1
EndSplineSet
EndChar
StartChar: uni0326
Encoding: 806 806 454
Width: 302
VWidth: 0
GlyphClass: 2
Flags: W
HStem: -677 477
VStem: 52 188
LayerCount: 2
UndoRedoHistory
Layer: 1
Undoes
EndUndoes
Redoes
EndRedoes
EndUndoRedoHistory
Fore
SplineSet
52 -677 m 1
 135 -200 l 1
 240 -200 l 1
 119 -677 l 1
 52 -677 l 1
EndSplineSet
EndChar
StartChar: Gamma
Encoding: 915 915 41
Width: 1233
VWidth: 0
GlyphClass: 2
Flags: W
HStem: 0 21G<234 358> 1381.95 96.0549<358 1098>
VStem: 234 124<0 1381.95>
LayerCount: 2
UndoRedoHistory
Layer: 1
Undoes
EndUndoes
Redoes
EndRedoes
EndUndoRedoHistory
Fore
SplineSet
234 0 m 1
 234 1478 l 1
 1103 1477 l 1
 1098 1381 l 1
 358 1381.94508301 l 1
 358 0 l 1
 234 0 l 1
EndSplineSet
EndChar
StartChar: Delta
Encoding: 916 916 24
Width: 1291
VWidth: 0
GlyphClass: 2
Flags: W
HStem: 0 176<310 1038> 1454 20G<560.89 782.11>
LayerCount: 2
UndoRedoHistory
Layer: 1
Undoes
EndUndoes
Redoes
EndRedoes
EndUndoRedoHistory
Fore
SplineSet
310 176 m 1
 1038 176 l 1
 671 1250 l 1
 310 176 l 1
44 0 m 1
 568 1474 l 1
 775 1474 l 1
 1299 0 l 1
 44 0 l 1
EndSplineSet
EndChar
StartChar: Lambda
Encoding: 923 923 67
Width: 1291
VWidth: 0
GlyphClass: 2
Flags: W
HStem: 0 21G<43 240.926 1106 1299> 1450 20G<570.721 771.279>
LayerCount: 2
UndoRedoHistory
Layer: 1
Undoes
EndUndoes
Redoes
EndRedoes
EndUndoRedoHistory
Fore
SplineSet
43 0 m 1
 578 1470 l 1
 764 1470 l 1
 1299 0 l 1
 1113 0 l 1
 671 1262 l 1
 234 0 l 1
 43 0 l 1
EndSplineSet
EndChar
StartChar: Pi
Encoding: 928 928 94
Width: 1368
VWidth: 0
GlyphClass: 2
Flags: W
HStem: 0 21G<141 323 1101 1283> 1313 157<323 1101>
VStem: 141 182<0 1313> 1101 182<0 1313>
LayerCount: 2
UndoRedoHistory
Layer: 1
Undoes
EndUndoes
Redoes
EndRedoes
EndUndoRedoHistory
Fore
SplineSet
141 0 m 1
 141 1470 l 1
 1283 1470 l 1
 1283 0 l 1
 1101 0 l 1
 1101 1313 l 1
 323 1313 l 1
 323 0 l 1
 141 0 l 1
EndSplineSet
EndChar
StartChar: Sigma
Encoding: 931 931 106
Width: 1087
VWidth: 0
GlyphClass: 2
Flags: W
HStem: 0 193<388 1026> 660 186<388 976> 1254 194<388 1018>
VStem: 142 246<193 660 846 1254>
LayerCount: 2
UndoRedoHistory
Layer: 1
Undoes
EndUndoes
Redoes
EndRedoes
EndUndoRedoHistory
Fore
SplineSet
142 0 m 1
 142 1448 l 1
 1028 1448 l 1
 1018 1254 l 1
 388 1254 l 1
 388 846 l 1
 976 846 l 1
 976 660 l 1
 388 660 l 1
 388 193 l 1
 1033 193 l 1
 1026 0 l 1
 142 0 l 1
EndSplineSet
EndChar
StartChar: Phi
Encoding: 934 934 93
Width: 1570
VWidth: 0
GlyphClass: 2
Flags: W
HStem: 0 21G<722 903> 167 162<546.633 722 903 1080.36> 1173 162<536.203 722 903 1091.53> 1450 20G<722 903>
VStem: 104 193<561.299 952.79> 722 181<0 170.526 329 1173 1331.71 1470> 1332 194<560.526 952.961>
LayerCount: 2
UndoRedoHistory
Layer: 1
Undoes
EndUndoes
Redoes
EndRedoes
EndUndoRedoHistory
Fore
SplineSet
903 329 m 1
 1200 358 1332 537 1332 759 c 0
 1332 986 1191 1146 903 1173 c 1
 903 329 l 1
722 329 m 1
 722 1173 l 1
 439 1145 297 988 297 759 c 0
 297 539 426 360 722 329 c 1
722 0 m 1
 722 167 l 1
 318 200 104 442 104 759 c 0
 104 1080 329 1304 722 1335 c 1
 722 1470 l 1
 903 1470 l 1
 903 1335 l 1
 1298 1306 1526 1082 1526 759 c 0
 1526 442 1312 198 903 167 c 1
 903 0 l 1
 722 0 l 1
EndSplineSet
EndChar
StartChar: Omega
Encoding: 937 937 88
Width: 1606
VWidth: 0
GlyphClass: 2
Flags: W
HStem: -20 216<639.162 1024.18> 1257 217<640.474 1022.87>
VStem: 118 273<479.901 971.902> 1270 274<471.393 971.496>
LayerCount: 2
UndoRedoHistory
Layer: 1
Undoes
EndUndoes
Redoes
EndRedoes
EndUndoRedoHistory
Fore
SplineSet
832 -20 m 0
 401 -20 118 264 118 725 c 0
 118 1192 405 1474 832 1474 c 0
 1257 1474 1544 1191 1544 725 c 0
 1544 267 1261 -20 832 -20 c 0
832 196 m 0
 1107 196 1270 413 1270 723 c 0
 1270 1040 1104 1257 832 1257 c 0
 560 1257 391 1041 391 723 c 0
 391 413 557 196 832 196 c 0
EndSplineSet
EndChar
StartChar: rho
Encoding: 961 961 321
Width: 1188
VWidth: 0
GlyphClass: 2
Flags: W
HStem: -21 175<495.946 787.567> 934 175<504.722 789.898> 1065 20G<140 343.838>
VStem: 140 228<-441 127 296.756 795.218> 140 201<983.965 1085> 920 228<304.927 783.411>
LayerCount: 2
UndoRedoHistory
Layer: 1
Undoes
EndUndoes
Redoes
EndRedoes
EndUndoRedoHistory
Fore
SplineSet
647 154 m 0xc4
 820 154 920 298 920 547 c 0
 920 798 821 934 646 934 c 0
 459 934 368 808 367 563 c 1
 367 287 451 154 647 154 c 0xc4
140 -452 m 1xcc
 140 1085 l 1
 341 1085 l 1xac
 362 937 l 1
 423 1039 555 1109 698 1109 c 0
 982 1109 1148 865 1148 542 c 0
 1148 217 968 -21 688 -21 c 0
 554 -21 434 39 363 127 c 1
 366 67 368 10 368 -38 c 2
 368 -441 l 1xd4
 140 -452 l 1xcc
EndSplineSet
EndChar
StartChar: uni040A
Encoding: 1034 1034 462
Width: 2129
VWidth: 0
GlyphClass: 2
Flags: W
HStem: 0 188<1328 1777.14> 650 186<439 1075 1328 1787.66>
VStem: 186 253<0 650 836 1445> 1075 253<188 650 836 1445> 1868 250<274.293 575.394>
LayerCount: 2
UndoRedoHistory
Layer: 1
Undoes
EndUndoes
Redoes
EndRedoes
EndUndoRedoHistory
Fore
SplineSet
1075 0 m 1
 1075 650 l 1
 439 650 l 1
 439 0 l 1
 186 0 l 1
 186 1445 l 1
 439 1445 l 1
 439 836 l 1
 1075 836 l 1
 1075 1445 l 1
 1328 1445 l 1
 1327.1122449 836 l 1
 1599 836 l 2
 1943 836 2118 702 2118 420 c 0
 2118 139 1925 0 1596 0 c 2
 1075 0 l 1
1328 650 m 1
 1328 188 l 1
 1571 188 l 2
 1764 188 1868 249 1868 421 c 0
 1868 592 1784 650 1586 650 c 2
 1328 650 l 1
EndSplineSet
EndChar
StartChar: uni040B
Encoding: 1035 1035 463
Width: 1574
VWidth: 0
GlyphClass: 2
Flags: W
HStem: 0 21G<516 641 1280 1405> 711 96<641 1166.68> 1388 90<59 516 641 1104>
VStem: 516 125<0 711 807 1388> 1280 125<0 601.054>
LayerCount: 2
UndoRedoHistory
Layer: 1
Undoes
EndUndoes
Redoes
EndRedoes
EndUndoRedoHistory
Fore
SplineSet
1280 0 m 1
 1280 411 l 2
 1280 641 1168 711 955 711 c 2
 641 711 l 1
 641 0 l 1
 516 0 l 1
 516 1388 l 1
 59 1388 l 1
 59 1478 l 1
 1104 1478 l 1
 1104 1388 l 1
 641 1388 l 1
 641 807 l 1
 953 807 l 2
 1267 807 1405 671 1405 412 c 2
 1405 0 l 1
 1280 0 l 1
EndSplineSet
EndChar
StartChar: uni040F
Encoding: 1039 1039 465
Width: 1553
VWidth: 0
GlyphClass: 2
Flags: W
HStem: 0 89<354 733 858 1201>
VStem: 230 124<89 1478> 733 125<-300 0> 1201 124<89 1478>
LayerCount: 2
UndoRedoHistory
Layer: 1
Undoes
EndUndoes
Redoes
EndRedoes
EndUndoRedoHistory
Fore
SplineSet
1325 1478 m 1
 1325 0 l 1
 858 0 l 1
 858 -300 l 1
 733 -300 l 1
 733 0 l 1
 230 0 l 1
 230 1478 l 1
 354 1478 l 1
 354 89 l 1
 1201 89 l 1
 1201 1478 l 1
 1325 1478 l 1
EndSplineSet
EndChar
StartChar: uni0411
Encoding: 1041 1041 467
Width: 1269
VWidth: 0
GlyphClass: 2
Flags: W
HStem: 0 191<435 901.066> 653 191<435 921.442> 1269 188<435 1098>
VStem: 182 253<191 653 844 1269> 996 254<271.607 578.469>
LayerCount: 2
UndoRedoHistory
Layer: 1
Undoes
EndUndoes
Redoes
EndRedoes
EndUndoRedoHistory
Fore
SplineSet
182 0 m 1
 182 1457 l 1
 1098 1457 l 1
 1098 1269 l 1
 435 1269 l 1
 435 844 l 1
 733 844 l 2
 1077 844 1250 706 1250 424 c 0
 1250 143 1060 0 731 0 c 2
 182 0 l 1
435 653 m 1
 435 191 l 1
 705 191 l 2
 894 191 996 250 996 422 c 0
 996 593 916 653 720 653 c 2
 435 653 l 1
EndSplineSet
EndChar
StartChar: uni0414
Encoding: 1044 1044 468
Width: 1492
VWidth: 0
GlyphClass: 2
Flags: W
HStem: -300 390<28 141 1282 1393> 0 90<141 231.575 342.856 1134 1258 1282> 1387.08 89.9163<526.065 1133.04>
VStem: 28 113<-300 0> 1134 124<90 1387.92> 1282 111<-300 0>
LayerCount: 2
UndoRedoHistory
Layer: 1
Undoes
EndUndoes
Redoes
EndRedoes
EndUndoRedoHistory
Fore
SplineSet
28 -300 m 1xbc
 28 90 l 1xbc
 191 90 l 1
 285 156 328 384 385 1112 c 1
 412 1477 l 1
 1258 1477 l 1
 1258 90 l 1x7c
 1393 90 l 1
 1393 -300 l 1
 1282 -300 l 1xbc
 1282 0 l 1
 141 0 l 1x7c
 141 -300 l 1
 28 -300 l 1xbc
526.064730692 1387.08365032 m 1
 501 1101 l 1
 464.733821728 648.999583004 437.856595412 261.939417033 342.855806 90 c 1
 1134 90 l 1x7c
 1133.0435408 1387.91512814 l 1
 526.064730692 1387.08365032 l 1
EndSplineSet
EndChar
StartChar: uni041B
Encoding: 1051 1051 472
Width: 1526
VWidth: 0
GlyphClass: 2
Flags: W
HStem: -25 202<-73 147.952> -1 21G<1141 1394> 1257 188<480 1141>
VStem: 227 253<264.189 1257> 1141 253<0 1257>
LayerCount: 2
UndoRedoHistory
Layer: 1
Undoes
EndUndoes
Redoes
EndRedoes
EndUndoRedoHistory
Fore
SplineSet
-73 -25 m 1xb8
 -73 177 l 1
 -1 177 l 2xb8
 188 177 227 302 227 449 c 2
 227 1445 l 1
 1394 1445 l 1
 1394 -1 l 1x78
 1141 -0 l 1
 1141 1257 l 1
 480 1257 l 1
 480 466 l 2
 480 142 335 -25 28 -25 c 2
 -73 -25 l 1xb8
EndSplineSet
EndChar
StartChar: uni041F
Encoding: 1055 1055 476
Width: 1504
VWidth: 0
GlyphClass: 2
Flags: W
HStem: 0 21G<186 439 1118 1371> 1257 188<439 1118>
VStem: 186 253<0 1257> 1118 253<0 1257>
LayerCount: 2
UndoRedoHistory
Layer: 1
Undoes
EndUndoes
Redoes
EndRedoes
EndUndoRedoHistory
Fore
SplineSet
186 0 m 1
 186 1445 l 1
 1371 1445 l 1
 1371 0 l 1
 1118 0 l 1
 1118 1257 l 1
 439 1257 l 1
 439 0 l 1
 186 0 l 1
EndSplineSet
EndChar
StartChar: uni0423
Encoding: 1059 1059 480
Width: 1361
VWidth: 0
GlyphClass: 2
Flags: W
HStem: 0 21G<425 552.503> 1449 20G<161 288.728 1113.78 1241>
LayerCount: 2
UndoRedoHistory
Layer: 1
Undoes
EndUndoes
Redoes
EndRedoes
EndUndoRedoHistory
Fore
SplineSet
732.404050225 621.901091555 m 1
 1123 1469 l 1
 1241 1469 l 1
 543 0 l 1
 425 0 l 1
 680.548916299 518.697800369 l 1
 161 1469 l 1
 278 1469 l 1
 732.404050225 621.901091555 l 1
EndSplineSet
EndChar
StartChar: uni0424
Encoding: 1060 1060 481
Width: 1645
VWidth: 0
GlyphClass: 2
Flags: W
HStem: 0 21G<746.857 957> 140 192<553.422 746 957 1152.16> 1133 191<553.844 746 957 1151.45> 1432 20G<746.844 957>
VStem: 83 227<553.176 915.061> 746 211<0 142.553 332 1133 1325 1452> 1402 226<550.237 918.386>
LayerCount: 2
UndoRedoHistory
Layer: 1
Undoes
EndUndoes
Redoes
EndRedoes
EndUndoRedoHistory
Fore
SplineSet
957 331 m 1
 1260 353 1402 517 1402 735 c 0
 1402 949 1262 1111 957 1133 c 1
 957 331 l 1
746 332 m 1
 746 1133 l 1
 452 1109 310 948 310 735 c 0
 310 518 451 356 746 332 c 1
747 0 m 1
 746 140 l 1
 341 165 83 394 83 736 c 0
 83 1073 339 1299 746 1324 c 1
 747 1452 l 1
 957 1452 l 1
 957 1325 l 1
 1358 1306 1628 1087 1628 736 c 0
 1628 382 1360 161 957 140 c 1
 957 0 l 1
 747 0 l 1
EndSplineSet
EndChar
StartChar: uni0427
Encoding: 1063 1063 483
Width: 1400
VWidth: 0
GlyphClass: 2
Flags: W
HStem: 521 191<424.443 956.782>
VStem: 139 211<792.112 1439> 958 219<8 537 725.866 1439>
LayerCount: 2
UndoRedoHistory
Layer: 1
Undoes
EndUndoes
Redoes
EndRedoes
EndUndoRedoHistory
Fore
SplineSet
958 8 m 1
 958 537 l 1
 932 526 654 521 640 521 c 0
 337 521 139 626 139 933 c 2
 139 1439 l 1
 350 1439 l 1
 350 961 l 2
 350 750 443 712 645 712 c 0
 658 712 940 724 958 731 c 1
 958 1439 l 1
 1177 1439 l 1
 1177 8 l 1
 958 8 l 1
EndSplineSet
EndChar
StartChar: uni0428
Encoding: 1064 1064 484
Width: 1712
VWidth: 0
GlyphClass: 2
Flags: W
HStem: 0 180<398 777 1007 1371> 1437 20G<168 398 777 1007 1371 1602>
VStem: 168 230<180 1457> 777 230<180 1457> 1371 231<180 1457>
LayerCount: 2
UndoRedoHistory
Layer: 1
Undoes
EndUndoes
Redoes
EndRedoes
EndUndoRedoHistory
Fore
SplineSet
168 0 m 1
 168 1457 l 1
 398 1457 l 1
 398 180 l 1
 777 180 l 1
 777 1457 l 1
 1007 1457 l 1
 1007 180 l 1
 1371 180 l 1
 1371 1457 l 1
 1602 1457 l 1
 1602 0 l 1
 168 0 l 1
EndSplineSet
EndChar
StartChar: uni0429
Encoding: 1065 1065 485
Width: 1763
VWidth: 0
GlyphClass: 2
Flags: W
HStem: 0 180<412 791 1021 1385> 1437 20G<182 412 791 1021 1385 1616>
VStem: 182 230<180 1457> 791 230<180 1457> 1385 231<180 1457> 1532 206<-311 0>
LayerCount: 2
UndoRedoHistory
Layer: 1
Undoes
EndUndoes
Redoes
EndRedoes
EndUndoRedoHistory
Fore
SplineSet
1532 -311 m 1xf4
 1532 0 l 1xf4
 182 0 l 1
 182 1457 l 1
 412 1457 l 1
 412 180 l 1
 791 180 l 1
 791 1457 l 1
 1021 1457 l 1
 1021 180 l 1
 1385 180 l 1
 1385 1457 l 1
 1616 1457 l 1
 1616 137 l 1xf8
 1738 137 l 1
 1738 -311 l 1
 1532 -311 l 1xf4
EndSplineSet
EndChar
StartChar: uni042A
Encoding: 1066 1066 486
Width: 1363
VWidth: 0
GlyphClass: 2
Flags: W
HStem: 0 191<474 906.066> 655 189<474.11 927.335> 1257 187<-33 221>
VStem: 221 253<191 655 844 1257> 1002 253<277.95 579.788>
LayerCount: 2
UndoRedoHistory
Layer: 1
Undoes
EndUndoes
Redoes
EndRedoes
EndUndoRedoHistory
Fore
SplineSet
221 0 m 1
 221 1257 l 1
 -34 1257 l 1
 -33 1444 l 1
 475 1444 l 1
 474.109792285 844 l 1
 739 844 l 2
 1083 844 1255 706 1255 424 c 0
 1255 143 1065 0 736 0 c 2
 221 0 l 1
474 655 m 1
 474 191 l 1
 710 191 l 2
 899 191 1002 253 1002 425 c 0
 1002 596 922 655 726 655 c 2
 474 655 l 1
EndSplineSet
EndChar
StartChar: uni042B
Encoding: 1067 1067 487
Width: 1804
VWidth: 0
GlyphClass: 2
Flags: W
HStem: 0 96<354 933.677> 740 96<354 939.403> 1457 20G<230 354>
VStem: 230 124<96 740 836 1477> 1069 124<216.933 623.797> 1451 125<0 1478>
LayerCount: 2
UndoRedoHistory
Layer: 1
Undoes
EndUndoes
Redoes
EndRedoes
EndUndoRedoHistory
Fore
SplineSet
230 0 m 1
 230 1477 l 1
 354 1477 l 1
 354 836 l 1
 706 836 l 2
 1108 836 1193 641 1193 424 c 0
 1193 197 1117 0 713 0 c 2
 230 0 l 1
1451 0 m 1
 1451 1478 l 1
 1576 1478 l 1
 1576 0 l 1
 1451 0 l 1
354 740 m 1
 354 96 l 1
 719 96 l 2
 974 96 1069 193 1069 420 c 0
 1069 652 982 740 705 740 c 2
 354 740 l 1
EndSplineSet
EndChar
StartChar: uni042C
Encoding: 1068 1068 488
Width: 1296
VWidth: 0
GlyphClass: 2
Flags: W
HStem: 0 191<435 888.066> 655 189<435.11 908.442>
VStem: 182 253<191 655 844 1443> 983 254<277.95 579.788>
LayerCount: 2
UndoRedoHistory
Layer: 1
Undoes
EndUndoes
Redoes
EndRedoes
EndUndoRedoHistory
Fore
SplineSet
182 0 m 1
 182 1443 l 1
 436 1444 l 1
 435.109792285 844 l 1
 720 844 l 2
 1064 844 1237 706 1237 424 c 0
 1237 143 1047 0 718 0 c 2
 182 0 l 1
435 655 m 1
 435 191 l 1
 692 191 l 2
 881 191 983 253 983 425 c 0
 983 596 903 655 707 655 c 2
 435 655 l 1
EndSplineSet
EndChar
StartChar: uni0431
Encoding: 1073 1073 490
Width: 1097
VWidth: 0
GlyphClass: 2
Flags: W
HStem: -20 93<419.672 755.008> 761 74<444.358 745.887> 1156 78<634.658 908>
VStem: 116.285 128.653<262.617 598.037> 891 86<223.276 609.398>
LayerCount: 2
UndoRedoHistory
Layer: 1
Undoes
EndUndoes
Redoes
EndRedoes
EndUndoRedoHistory
Fore
SplineSet
572 73 m 0
 820 73 891 198 891 443 c 0
 891 610 781 761 619 761 c 0
 566 761 403 747 253 600 c 1
 247.498679851 558.065408675 244.938696435 519.158347101 244.938696435 483.102117847 c 0
 244.938696435 171.790788278 435.777370994 73 572 73 c 0
576 -20 m 0
 153.577849117 -20 116.285363887 363.77357528 116.285363887 490.920652095 c 0
 116.285363887 518.184157844 118 533.64847512 118 531 c 1
 118 934 291 1198 911 1234 c 1
 908 1156 l 1
 635 1140 317 1100 235 699 c 1
 384 770 427 835 619 835 c 0
 866 835 977 584 977 427 c 0
 977 196 830 -20 576 -20 c 0
EndSplineSet
EndChar
StartChar: uni0432
Encoding: 1074 1074 491
Width: 1144
VWidth: 0
GlyphClass: 2
Flags: W
HStem: 0 87<321 842.09> 516 92<321 831.278> 989 87<321 816.797>
VStem: 197 124<87 516 608 989> 882 122<657.572 930.75> 918 122<157.633 461.42>
LayerCount: 2
UndoRedoHistory
Layer: 1
Undoes
EndUndoes
Redoes
EndRedoes
EndUndoRedoHistory
Fore
SplineSet
321 608 m 1xf8
 691 608 l 2
 857 608 882 710 882 800 c 0
 882 910 833 989 651 989 c 2
 321 989 l 1
 321 608 l 1xf8
321 87 m 1
 646 87 l 2
 885 87 918 187 918 307 c 0xf4
 918 401 917 516 696 516 c 2
 321 516 l 1
 321 87 l 1
197 0 m 1
 197 1076 l 1
 653 1076 l 2
 932 1076 1004 930 1004 805 c 0xf8
 1004 680 938 606 831 573 c 1
 999 527 1040 398 1040 307 c 0
 1040 178 984 0 651 0 c 2
 197 0 l 1
EndSplineSet
EndChar
StartChar: uni0433
Encoding: 1075 1075 492
Width: 932
VWidth: 0
GlyphClass: 2
Flags: W
HStem: 0 21G<197 321> 980 96<321 876>
VStem: 197 124<0 980>
LayerCount: 2
UndoRedoHistory
Layer: 1
Undoes
EndUndoes
Redoes
EndRedoes
EndUndoRedoHistory
Fore
SplineSet
197 0 m 1
 197 1076 l 1
 876 1076 l 1
 876 980 l 1
 321 980 l 1
 321 0 l 1
 197 0 l 1
EndSplineSet
EndChar
StartChar: uni0434
Encoding: 1076 1076 493
Width: 1265
VWidth: 0
GlyphClass: 2
Flags: W
HStem: 0 78<151 229.734 303 936> 1008.87 69.127<539.46 936>
VStem: 62 95<-280 0> 936 135<78 1008> 1027 106<-280 0>
LayerCount: 2
UndoRedoHistory
Layer: 1
Undoes
EndUndoes
Redoes
EndRedoes
EndUndoRedoHistory
Fore
SplineSet
303 75 m 1xf0
 936 75 l 1
 936 1008 l 1
 546 1008 l 1
 546.020933447 1008.58613651 545.996293138 1008.87297614 545.927996278 1008.87297614 c 0
 542.733721962 1008.87297614 444.041866893 381.418668932 446 401 c 1
 408 224 346 81 303 75 c 1xf0
62 -280 m 1
 62 78 l 1
 167 78 l 1
 251 102 272 179 310 284 c 1
 453 1078 l 1
 1071 1078 l 1
 1071 78 l 1xf0
 1133 78 l 1
 1133 -280 l 1
 1027 -280 l 1xe8
 1039 0 l 1
 151 0 l 1
 157 -280 l 1
 62 -280 l 1
EndSplineSet
EndChar
StartChar: uni0436
Encoding: 1078 1078 495
Width: 1568
VWidth: 0
GlyphClass: 2
Flags: W
HStem: 0 21G<62 203.513 705 837 1342.34 1482> 1058 20G<65 193.62 705 837 1352.22 1479>
VStem: 705 132<0 534 562 1078>
LayerCount: 2
UndoRedoHistory
Layer: 1
Undoes
EndUndoes
Redoes
EndRedoes
EndUndoRedoHistory
Fore
SplineSet
62 0 m 1
 615 557 l 1
 65 1078 l 1
 173 1078 l 1
 705 562 l 1
 705 1078 l 1
 837 1078 l 1
 837 562 l 1
 1373 1078 l 1
 1479 1078 l 1
 930 557 l 1
 1482 0 l 1
 1362 0 l 1
 837 534 l 1
 837 0 l 1
 705 0 l 1
 705 534 l 1
 184 0 l 1
 62 0 l 1
EndSplineSet
EndChar
StartChar: uni0438
Encoding: 1080 1080 496
Width: 1187
VWidth: 0
GlyphClass: 2
Flags: W
HStem: 0 21G<175 290.879 892 997> 1056 20G<175 277 892 997>
VStem: 175 102<160 1076> 892 105<0 828 986 1076>
LayerCount: 2
UndoRedoHistory
Layer: 1
Undoes
EndUndoes
Redoes
EndRedoes
EndUndoRedoHistory
Fore
SplineSet
175 0 m 1
 175 1076 l 1
 277 1076 l 1
 277 160 l 1
 892 986 l 1
 892 1076 l 1
 997 1076 l 1
 997 0 l 1
 892 0 l 1
 892 828 l 1
 276 0 l 1
 175 0 l 1
EndSplineSet
EndChar
StartChar: uni043A
Encoding: 1082 1082 498
Width: 1224
VWidth: 0
GlyphClass: 2
Flags: W
HStem: 0 21G<212 344 874.049 1044> 1056 20G<212 344 820 967.338>
VStem: 212 132<0 526 558 1076>
LayerCount: 2
UndoRedoHistory
Layer: 1
Undoes
EndUndoes
Redoes
EndRedoes
EndUndoRedoHistory
Fore
SplineSet
212 0 m 1
 212 1076 l 1
 344 1076 l 1
 344 558 l 1
 820 1075 l 1
 986 1077 l 1
 484 539 l 1
 1044 0 l 1
 895 0 l 1
 344 526 l 1
 344 0 l 1
 212 0 l 1
EndSplineSet
EndChar
StartChar: uni043B
Encoding: 1083 1083 499
Width: 1243
VWidth: 0
GlyphClass: 2
Flags: W
HStem: -7 102<44 196.613> 981 95<500 916>
VStem: 916 132<-1 981>
LayerCount: 2
UndoRedoHistory
Layer: 1
Undoes
EndUndoes
Redoes
EndRedoes
EndUndoRedoHistory
Fore
SplineSet
44 -7 m 1
 26 95 l 1
 206 95 272 138 320 499 c 1
 387 1076 l 1
 1048 1076 l 1
 1048 -1 l 1
 916 -1 l 1
 916 981 l 1
 500 981 l 1
 437 487 l 1
 387 65 297 -7 44 -7 c 1
EndSplineSet
EndChar
StartChar: uni043C
Encoding: 1084 1084 500
Width: 1386
VWidth: 0
GlyphClass: 2
Flags: W
HStem: 0 21G<197 312 1075 1190> 1056 20G<197 317.987 1072.12 1190>
VStem: 197 115<0 835> 1075 115<0 835>
LayerCount: 2
UndoRedoHistory
Layer: 1
Undoes
EndUndoes
Redoes
EndRedoes
EndUndoRedoHistory
Fore
SplineSet
197 0 m 1
 197 1076 l 1
 308 1076 l 1
 697 297 l 1
 1082 1076 l 1
 1190 1076 l 1
 1190 0 l 1
 1075 0 l 1
 1075 835 l 1
 742 165 l 1
 649 165 l 1
 312 835 l 1
 312 0 l 1
 197 0 l 1
EndSplineSet
EndChar
StartChar: uni043D
Encoding: 1085 1085 501
Width: 1270
VWidth: 0
GlyphClass: 2
Flags: W
HStem: 0 21G<197 321 951 1075> 523 97<321 951> 1056 20G<197 321 951 1075>
VStem: 197 124<0 523 620 1076> 951 124<0 523 620 1076>
LayerCount: 2
UndoRedoHistory
Layer: 1
Undoes
EndUndoes
Redoes
EndRedoes
EndUndoRedoHistory
Fore
SplineSet
197 0 m 1
 197 1076 l 1
 321 1076 l 1
 321 620 l 1
 951 620 l 1
 951 1076 l 1
 1075 1076 l 1
 1075 0 l 1
 951 0 l 1
 951 523 l 1
 321 523 l 1
 321 0 l 1
 197 0 l 1
EndSplineSet
EndChar
StartChar: uni043F
Encoding: 1087 1087 503
Width: 1242
VWidth: 0
GlyphClass: 2
Flags: W
HStem: 0 21G<197 321 922 1047> 982 94<321 922>
VStem: 197 124<0 982> 922 125<0 982>
LayerCount: 2
UndoRedoHistory
Layer: 1
Undoes
EndUndoes
Redoes
EndRedoes
EndUndoRedoHistory
Fore
SplineSet
197 0 m 1
 197 1076 l 1
 1047 1076 l 1
 1047 0 l 1
 922 0 l 1
 922 982 l 1
 321 982 l 1
 321 0 l 1
 197 0 l 1
EndSplineSet
EndChar
StartChar: uni0442
Encoding: 1090 1090 506
Width: 1045
VWidth: 0
GlyphClass: 2
Flags: W
HStem: 0 21G<444 582> 973 103<139 444 582 892>
VStem: 444 138<0 973>
LayerCount: 2
UndoRedoHistory
Layer: 1
Undoes
EndUndoes
Redoes
EndRedoes
EndUndoRedoHistory
Fore
SplineSet
444 0 m 1
 444 973 l 1
 139 973 l 1
 139 1076 l 1
 892 1076 l 1
 892 973 l 1
 582 973 l 1
 582 0 l 1
 444 0 l 1
EndSplineSet
EndChar
StartChar: uni0443
Encoding: 1091 1091 507
Width: 1140
VWidth: 0
GlyphClass: 2
Flags: W
HStem: -310 103<256 549.601> 1056 20G<120 257.071 956.805 1087>
VStem: 596.07 114.075<-154.713 149.012>
LayerCount: 2
UndoRedoHistory
Layer: 1
Undoes
EndUndoes
Redoes
EndRedoes
EndUndoRedoHistory
Fore
SplineSet
256 -310 m 1
 256 -207 l 1
 552.044030046 -207 596.070220015 -187.907739388 596.070220015 14.4316267633 c 0
 596.070220015 19.1858741342 596.045913993 24.0412887454 596 29 c 2
 594.730027812 149.012371727 l 1
 120 1076 l 1
 247 1076 l 1
 642.880364109 289.841352406 l 1
 965 1076 l 1
 1087 1076 l 1
 708.737518391 151.985679255 l 1
 710 27 l 2
 710.093366075 18.3791991191 710.145083191 9.96858019151 710.145083191 1.76341058038 c 0
 710.145083191 -253.676528155 660.022115641 -310 256 -310 c 1
EndSplineSet
EndChar
StartChar: uni0444
Encoding: 1092 1092 508
Width: 1502
VWidth: 0
GlyphClass: 2
Flags: W
HStem: -389 21G<658 763> 44 93<324.362 655.007 766.014 1095.54> 948 91<303.418 644.924 777.687 1114.93>
VStem: 64 121<316.045 796.479> 658 105<-389 82 162.76 915.56 989 1330> 1237 120<316.549 796.574>
LayerCount: 2
UndoRedoHistory
Layer: 1
Undoes
EndUndoes
Redoes
EndRedoes
EndUndoRedoHistory
Fore
SplineSet
978 137 m 0
 1137 137 1237 338 1237 552 c 0
 1237 769 1154 947 994 947 c 0
 922 947 835 936 763 896 c 1
 763 183 l 1
 831 143 910 137 978 137 c 0
443 137 m 0
 509 137 593 144 658 178 c 1
 658 903 l 1
 584 943 493 948 425 948 c 0
 263 948 185 769 185 553 c 0
 185 339 281 137 443 137 c 0
658 -389 m 1
 658 82 l 1
 596 53 509 44 437 44 c 0
 231 44 64 254 64 552 c 0
 64 850 211 1039 426 1039 c 0
 493 1039 596 1018 658 989 c 1
 658 1330 l 1
 763 1330 l 1
 763 989 l 1
 828 1019 920 1039 992 1039 c 0
 1206 1039 1357 851 1357 553 c 0
 1357 257 1190 44 982 44 c 0
 910 44 823 53 763 82 c 1
 763 -389 l 1
 658 -389 l 1
EndSplineSet
EndChar
StartChar: uni0446
Encoding: 1094 1094 510
Width: 1221
VWidth: 0
GlyphClass: 2
Flags: W
HStem: 0 79<342 908> 1058 20G<212 342 908 1039>
VStem: 212 130<79 1078> 908 131<138 1078> 972 164<-280 -12.3947>
LayerCount: 2
UndoRedoHistory
Layer: 1
Undoes
EndUndoes
Redoes
EndRedoes
EndUndoRedoHistory
Fore
SplineSet
972 -280 m 1xe8
 987 0 l 1
 212 0 l 1
 212 1078 l 1
 342 1078 l 1
 342 79 l 1
 908 79 l 1
 908 1078 l 1
 1039 1078 l 1
 1039 138 l 1xf0
 1136 138 l 1
 1136 -280 l 1
 972 -280 l 1xe8
EndSplineSet
EndChar
StartChar: uni0447
Encoding: 1095 1095 511
Width: 1061
VWidth: 0
GlyphClass: 2
Flags: W
HStem: 0 21G<754 978> 378 177<384.502 697.649> 1065 20G<91 315 754 978>
VStem: 91 224<627.875 1085> 754 224<0 442 608.271 1085>
LayerCount: 2
UndoRedoHistory
Layer: 1
Undoes
EndUndoes
Redoes
EndRedoes
EndUndoRedoHistory
Fore
SplineSet
754 0 m 1
 754 442 l 1
 715 403 596 378 503 378 c 0
 230 380 91 510 91 812 c 2
 91 1085 l 1
 315 1085 l 1
 315 844 l 2
 315 653 360 555 534 555 c 0
 643 555 750 619 754 658 c 1
 754 1085 l 1
 978 1085 l 1
 978 0 l 1
 754 0 l 1
EndSplineSet
EndChar
StartChar: uni0448
Encoding: 1096 1096 512
Width: 1520
VWidth: 0
GlyphClass: 2
Flags: W
HStem: 0 78<420 750 857 1185> 1056 20G<295 420 750 857 1185 1313>
VStem: 295 125<78 1076> 750 107<78 1076> 1185 128<78 1076>
LayerCount: 2
UndoRedoHistory
Layer: 1
Undoes
EndUndoes
Redoes
EndRedoes
EndUndoRedoHistory
Fore
SplineSet
295 0 m 1
 295 1076 l 1
 420 1076 l 1
 420 78 l 1
 750 78 l 1
 750 1076 l 1
 857 1076 l 1
 857 78 l 1
 1185 78 l 1
 1185 1076 l 1
 1313 1076 l 1
 1313 0 l 1
 295 0 l 1
EndSplineSet
EndChar
StartChar: uni0449
Encoding: 1097 1097 513
Width: 1474
VWidth: 0
GlyphClass: 2
Flags: W
HStem: 0 79<356 710 854 1146> 1058 20G<214 356 710 854 1146 1290>
VStem: 214 142<79 1078> 710 144<79 1078> 1146 144<137 1078> 1227 161<-286 0>
LayerCount: 2
UndoRedoHistory
Layer: 1
Undoes
EndUndoes
Redoes
EndRedoes
EndUndoRedoHistory
Fore
SplineSet
1227 -286 m 1xf4
 1238 0 l 1
 214 0 l 1
 214 1078 l 1
 356 1078 l 1
 356 79 l 1
 710 79 l 1
 710 1078 l 1
 854 1078 l 1
 854 79 l 1
 1146 79 l 1
 1146 1078 l 1
 1290 1078 l 1
 1290 137 l 1xf8
 1388 137 l 1
 1388 -286 l 1
 1227 -286 l 1xf4
EndSplineSet
EndChar
StartChar: uni044A
Encoding: 1098 1098 514
Width: 1048
VWidth: 0
GlyphClass: 2
Flags: W
HStem: 0 87<363 701.631> 590 94<364 705.632> 998 78<84 233>
VStem: 233 130<87 590 684 998> 786 148<178.159 510.481>
LayerCount: 2
UndoRedoHistory
Layer: 1
Undoes
EndUndoes
Redoes
EndRedoes
EndUndoRedoHistory
Fore
SplineSet
363 87 m 1
 585 87 l 2
 743 87 786 247 786 356 c 0
 786 471 730 590 578 590 c 2
 363 590 l 1
 363 87 l 1
233 0 m 1
 233 998 l 1
 84 998 l 1
 84 1076 l 1
 364 1076 l 1
 364 684 l 1
 568 684 l 2
 876 684 934 500 934 354 c 0
 934 198 865 0 570 0 c 2
 233 0 l 1
EndSplineSet
EndChar
StartChar: uni044B
Encoding: 1099 1099 515
Width: 1536
VWidth: 0
GlyphClass: 2
Flags: W
HStem: 0 87<320 739.327> 588 93<321 748.75> 1056 20G<197 321 1216 1340>
VStem: 197 123<87 588 681 1076> 835 119<178.694 506.547> 1216 124<0 1076>
LayerCount: 2
UndoRedoHistory
Layer: 1
Undoes
EndUndoes
Redoes
EndRedoes
EndUndoRedoHistory
Fore
SplineSet
1216 0 m 1
 1216 1076 l 1
 1340 1076 l 1
 1340 0 l 1
 1216 0 l 1
320 87 m 1
 585 87 l 2
 744 87 835 169 835 354 c 0
 835 513 743 588 589 588 c 2
 320 588 l 1
 320 87 l 1
197 0 m 1
 197 1076 l 1
 321 1076 l 1
 321 681 l 1
 579 681 l 2
 888 681 954 497 954 352 c 0
 954 196 887 0 581 0 c 2
 197 0 l 1
EndSplineSet
EndChar
StartChar: uni044D
Encoding: 1101 1101 517
Width: 1218
VWidth: 0
GlyphClass: 2
Flags: W
HStem: -29 94<290.693 698.888> 483 103<479 929> 1017 92<292.382 702.091>
VStem: 929 105<310.779 483 586 774.802>
LayerCount: 2
UndoRedoHistory
Layer: 1
Undoes
EndUndoes
Redoes
EndRedoes
EndUndoRedoHistory
Fore
SplineSet
509 -29 m 0
 368 -29 236 9 183 67 c 1
 214 147 l 1
 325 84 419 65 502 65 c 0
 751 65 913 247 929 483 c 1
 479 483 l 1
 479 586 l 1
 929 586 l 1
 912 829 782 1017 497 1017 c 0
 379 1017 293 979 211 930 c 1
 173 1008 l 1
 247 1075 392 1109 495 1109 c 0
 920 1109 1034 786 1034 521 c 0
 1034 282 889 -29 509 -29 c 0
EndSplineSet
EndChar
StartChar: uni044E
Encoding: 1102 1102 518
Width: 1550
VWidth: 0
GlyphClass: 2
Flags: W
HStem: -29 94<764.468 1097.55> 0 21G<175 265> 493 85<265 480> 1015 94<763.069 1098.22> 1056 20G<175 265>
VStem: 175 90<0 493 578 1076> 480 109<274.006 493 578 796.843> 1260 105<263.475 822.469>
LayerCount: 2
UndoRedoHistory
Layer: 1
Undoes
EndUndoes
Redoes
EndRedoes
EndUndoRedoHistory
Fore
SplineSet
933 65 m 0xb7
 1192 65 1260 298 1260 536 c 0
 1260 781 1202 1015 928 1015 c 0
 665 1015 589 767 589 530 c 0
 589 298 668 65 933 65 c 0xb7
928 -29 m 0
 612 -29 485 195 480 493 c 1
 265 493 l 1
 265 0 l 1
 175 0 l 1
 175 1076 l 1
 265 1076 l 1x6f
 265 578 l 1
 480 578 l 1
 486 872 615 1109 933 1109 c 0
 1278 1109 1365 851 1365 539 c 0
 1365 241 1266 -29 928 -29 c 0
EndSplineSet
EndChar
StartChar: uni044F
Encoding: 1103 1103 519
Width: 1158
VWidth: 0
GlyphClass: 2
Flags: W
HStem: 0 21G<185 324.98 838 963> 441 90<514 838> 988 88<324.467 838>
VStem: 126 120<623.175 909.672> 838 125<0 441 531 988>
LayerCount: 2
UndoRedoHistory
Layer: 1
Undoes
EndUndoes
Redoes
EndRedoes
EndUndoRedoHistory
Fore
SplineSet
520 531 m 2
 838 531 l 1
 838 988 l 1
 499 988 l 2
 284 988 246 868 246 760 c 0
 246 622 343 531 520 531 c 2
185 0 m 1
 389 448 l 1
 190 497 126 655 126 767 c 0
 126 911 223 1076 499 1076 c 2
 963 1076 l 1
 963 0 l 1
 838 0 l 1
 838 441 l 1
 514 441 l 1
 316 0 l 1
 185 0 l 1
EndSplineSet
EndChar
StartChar: uni0452
Encoding: 1106 1106 522
Width: 1360
VWidth: 0
GlyphClass: 2
Flags: W
HStem: -286 131<810 996.178> 0 21G<300 453> 738 139<636.691 954.493> 1093 103<205 300 453 878>
VStem: 300 153<0 573.469 684 1093 1196 1494> 1038 155<-113.85 645.692>
LayerCount: 2
UndoRedoHistory
Layer: 1
Undoes
EndUndoes
Redoes
EndRedoes
EndUndoRedoHistory
Fore
SplineSet
810 -286 m 1
 799 -155 l 1
 835 -155 l 2
 1016 -155 1038 -119 1038 97 c 2
 1038 362 l 2
 1038 611 1005 738 807 738 c 0
 626 738 482 597 453 489 c 1
 453 0 l 1
 300 0 l 1
 300 1093 l 1
 205 1093 l 1
 205 1196 l 1
 300 1196 l 1
 300 1494 l 1
 453 1494 l 1
 453 1196 l 1
 878 1196 l 1
 878 1093 l 1
 453 1093 l 1
 453 684 l 1
 546 804 665 877 822 877 c 0
 1077 877 1193 722 1193 436 c 2
 1193 150 l 2
 1193 -156 1172 -286 877 -286 c 2
 810 -286 l 1
EndSplineSet
EndChar
StartChar: uni045A
Encoding: 1114 1114 528
Width: 1555
VWidth: 0
GlyphClass: 2
Flags: W
HStem: 0 170<1002 1324.59> 486 179<348 782> 505 161<1002 1327.35> 1065 20G<125 348 782 1002>
VStem: 125 223<0 486 665 1085> 782 220<170 486 666 1085> 1377 189<220.55 454.973>
LayerCount: 2
UndoRedoHistory
Layer: 1
Undoes
EndUndoes
Redoes
EndRedoes
EndUndoRedoHistory
Fore
SplineSet
1002 170 m 1xbe
 1200 170 l 2
 1323 170 1377 249 1377 342 c 0
 1377 432 1322 505 1199 505 c 2
 1002 505 l 1
 1002 170 l 1xbe
125 0 m 1
 125 1085 l 1
 348 1085 l 1
 348 665 l 1
 782 665 l 1xde
 782 1085 l 1
 1002 1085 l 1
 1002 666 l 1
 1209 666 l 2xbe
 1439 666 1566 545 1566 337 c 0
 1566 148 1433 0 1208 0 c 2
 782 0 l 1
 782 486 l 1
 348 486 l 1xde
 348 0 l 1
 125 0 l 1
EndSplineSet
EndChar
StartChar: uni045F
Encoding: 1119 1119 532
Width: 1062
VWidth: 0
GlyphClass: 2
Flags: W
HStem: 0 169<332 479 669 777> 1065 20G<119 332 777 989>
VStem: 119 213<169 1085> 486 175<-299 0> 777 212<169 1085>
LayerCount: 2
UndoRedoHistory
Layer: 1
Undoes
EndUndoes
Redoes
EndRedoes
EndUndoRedoHistory
Fore
SplineSet
486 -299 m 1
 479 0 l 1
 119 0 l 1
 119 1085 l 1
 332 1085 l 1
 332 169 l 1
 777 169 l 1
 777 1085 l 1
 989 1085 l 1
 989 0 l 1
 669 0 l 1
 661 -299 l 1
 486 -299 l 1
EndSplineSet
EndChar
StartChar: endash
Encoding: 8211 8211 207
Width: 1189
VWidth: 0
GlyphClass: 2
Flags: W
HStem: 484 171<96 1141>
LayerCount: 2
UndoRedoHistory
Layer: 1
Undoes
EndUndoes
Redoes
EndRedoes
EndUndoRedoHistory
Fore
SplineSet
96 484 m 1
 96 655 l 1
 1141 655 l 1
 1141 484 l 1
 96 484 l 1
EndSplineSet
EndChar
StartChar: emdash
Encoding: 8212 8212 206
Width: 2133
VWidth: 0
GlyphClass: 2
Flags: W
HStem: 484 171<69 2135>
LayerCount: 2
UndoRedoHistory
Layer: 1
Undoes
EndUndoes
Redoes
EndRedoes
EndUndoRedoHistory
Fore
SplineSet
69 484 m 1
 69 655 l 1
 2135 655 l 1
 2135 484 l 1
 69 484 l 1
EndSplineSet
EndChar
StartChar: quoteleft
Encoding: 8216 8216 311
Width: 426
VWidth: 0
GlyphClass: 2
Flags: W
HStem: 1043 414<210 291>
VStem: 115 249
LayerCount: 2
UndoRedoHistory
Layer: 1
Undoes
EndUndoes
Redoes
EndRedoes
EndUndoRedoHistory
Fore
SplineSet
210 1043 m 1
 115 1457 l 1
 291 1457 l 1
 364 1043 l 1
 210 1043 l 1
EndSplineSet
EndChar
StartChar: quoteright
Encoding: 8217 8217 312
Width: 422
VWidth: 0
GlyphClass: 2
Flags: W
HStem: 1043 414<183 230>
VStem: 84 290
LayerCount: 2
UndoRedoHistory
Layer: 1
Undoes
EndUndoes
Redoes
EndRedoes
EndUndoRedoHistory
Fore
SplineSet
84 1043 m 1
 183 1457 l 1
 374 1457 l 1
 230 1043 l 1
 84 1043 l 1
EndSplineSet
EndChar
StartChar: quotesinglbase
Encoding: 8218 8218 313
Width: 475
VWidth: 0
GlyphClass: 2
Flags: W
HStem: -250 478<200 248>
VStem: 101 293
LayerCount: 2
UndoRedoHistory
Layer: 1
Undoes
EndUndoes
Redoes
EndRedoes
EndUndoRedoHistory
Fore
SplineSet
101 -250 m 1
 200 228 l 1
 394 228 l 1
 248 -250 l 1
 101 -250 l 1
EndSplineSet
EndChar
StartChar: quotedblleft
Encoding: 8220 8220 309
Width: 710
VWidth: 0
GlyphClass: 2
Flags: W
HStem: 1024 491
VStem: 82 584
LayerCount: 2
UndoRedoHistory
Layer: 1
Undoes
EndUndoes
Redoes
EndRedoes
EndUndoRedoHistory
Fore
SplineSet
539 1024 m 1
 381 1224 l 1
 552 1515 l 1
 666 1316 l 1
 539 1024 l 1
243 1024 m 1
 82 1224 l 1
 257 1515 l 1
 371 1316 l 1
 243 1024 l 1
EndSplineSet
EndChar
StartChar: quotedblright
Encoding: 8221 8221 310
Width: 788
VWidth: 0
GlyphClass: 2
Flags: W
HStem: 1083 412<192 239 508 556>
VStem: 92 610
LayerCount: 2
UndoRedoHistory
Layer: 1
Undoes
EndUndoes
Redoes
EndRedoes
EndUndoRedoHistory
Fore
SplineSet
414 1085 m 1
 508 1495 l 1
 702 1495 l 1
 556 1085 l 1
 414 1085 l 1
92 1083 m 1
 192 1495 l 1
 379 1495 l 1
 239 1083 l 1
 92 1083 l 1
EndSplineSet
EndChar
StartChar: quotedblbase
Encoding: 8222 8222 308
Width: 822
VWidth: 0
GlyphClass: 2
Flags: W
HStem: -250 478<-70 -21 236 285>
VStem: 137 602
LayerCount: 2
UndoRedoHistory
Layer: 1
Undoes
EndUndoes
Redoes
EndRedoes
EndUndoRedoHistory
Fore
SplineSet
441 -250 m 1
 542 228 l 1
 739 228 l 1
 591 -250 l 1
 441 -250 l 1
137 -250 m 1
 236 228 l 1
 432 228 l 1
 285 -250 l 1
 137 -250 l 1
EndSplineSet
EndChar
StartChar: dagger
Encoding: 8224 8224 186
Width: 896
VWidth: 0
GlyphClass: 2
Flags: W
HStem: 958 154<83 380 543 853> 1443 20G<380 543>
VStem: 380 160<114 958 1112 1463>
LayerCount: 2
UndoRedoHistory
Layer: 1
Undoes
EndUndoes
Redoes
EndRedoes
EndUndoRedoHistory
Fore
SplineSet
380 114 m 1
 380 958 l 1
 83 958 l 1
 83 1112 l 1
 380 1112 l 1
 380 1463 l 1
 543 1463 l 1
 543 1112 l 1
 853 1112 l 1
 853 958 l 1
 540 958 l 1
 540 114 l 1
 380 114 l 1
EndSplineSet
EndChar
StartChar: daggerdbl
Encoding: 8225 8225 187
Width: 934
VWidth: 0
GlyphClass: 2
Flags: W
HStem: 399 140<122 393 559 825> 951 149<123 393 558 827> 1439 20G<393 556>
VStem: 393 166<21 399 539 951 1100 1459>
LayerCount: 2
UndoRedoHistory
Layer: 1
Undoes
EndUndoes
Redoes
EndRedoes
EndUndoRedoHistory
Fore
SplineSet
825 399 m 1
 559 399 l 1
 559 21 l 1
 393 21 l 1
 393 399 l 1
 122 399 l 1
 122 539 l 1
 393 539 l 1
 393 951 l 1
 123 951 l 1
 123 1100 l 1
 393 1100 l 1
 393 1459 l 1
 556 1459 l 1
 556 1100 l 1
 827 1100 l 1
 827 951 l 1
 558 951 l 1
 559 539 l 1
 825 539 l 1
 825 399 l 1
EndSplineSet
EndChar
StartChar: bullet
Encoding: 8226 8226 170
Width: 870
VWidth: 0
GlyphClass: 2
Flags: W
HStem: 379 665<293.249 622.751>
VStem: 122 672<548.122 874.878>
LayerCount: 2
UndoRedoHistory
Layer: 1
Undoes
EndUndoes
Redoes
EndRedoes
EndUndoRedoHistory
Fore
SplineSet
455 379 m 0
 270 379 122 511 122 709 c 0
 122 908 276 1044 461 1044 c 0
 645 1044 794 913 794 714 c 0
 794 515 640 379 455 379 c 0
EndSplineSet
EndChar
StartChar: ellipsis
Encoding: 8230 8230 204
Width: 1476
VWidth: 0
GlyphClass: 2
Flags: W
HStem: -12 262<147.446 349.87 638.97 841.393 1128.97 1331.92>
VStem: 116 264<18.2091 219.791> 608 264<18.2091 219.791> 1098 265<18.2091 219.791>
CounterMasks: 1 70
LayerCount: 2
UndoRedoHistory
Layer: 1
Undoes
EndUndoes
Redoes
EndRedoes
EndUndoRedoHistory
Fore
SplineSet
1230 -12 m 0
 1142 -12 1098 54 1098 119 c 0
 1098 184 1141 250 1230 250 c 0
 1319 250 1363 184 1363 119 c 0
 1363 54 1319 -12 1230 -12 c 0
740 -12 m 0
 652 -12 608 54 608 119 c 0
 608 184 651 250 740 250 c 0
 829 250 872 184 872 119 c 0
 872 54 829 -12 740 -12 c 0
249 -12 m 0
 161 -12 116 54 116 119 c 0
 116 184 160 250 249 250 c 0
 338 250 380 184 380 119 c 0
 380 54 338 -12 249 -12 c 0
EndSplineSet
EndChar
StartChar: perthousand
Encoding: 8240 8240 300
Width: 2323
VWidth: 0
GlyphClass: 2
Flags: W
HStem: -30 123<989.208 1227.24 1755.65 1995.29> 606 124<988.985 1231.43 1756.56 1998.49> 790 123<313.338 512.679> 1429 119<313.166 514.027>
VStem: 118 129<982.908 1355.98> 580 128<985.227 1358.97> 782 131<177.823 520.456> 1308 127<181.231 523.903> 1550 127<177.823 520.456> 2078 124<180.834 517.641>
CounterMasks: 1 03c0
LayerCount: 2
UndoRedoHistory
Layer: 1
Undoes
EndUndoes
Redoes
EndRedoes
EndUndoRedoHistory
Fore
SplineSet
1874 -30 m 0
 1658 -30 1550 124 1550 352 c 0
 1550 568 1659 730 1880 730 c 0
 2098 730 2202 584 2202 349 c 0
 2202 134 2093 -30 1874 -30 c 0
1880 93 m 0
 2012 93 2078 213 2078 352 c 0
 2078 494 2008 606 1877 606 c 0
 1741 606 1677 490 1677 352 c 0
 1677 206 1743 93 1880 93 c 0
1108 -30 m 0
 890 -30 782 124 782 352 c 0
 782 568 888 730 1110 730 c 0
 1332 730 1435 580 1435 349 c 0
 1435 134 1327 -30 1108 -30 c 0
1110 93 m 0
 1242 93 1308 215 1308 352 c 0
 1308 497 1246 606 1109 606 c 0
 977 606 913 490 913 352 c 0
 913 206 978 93 1110 93 c 0
268 -21 m 1
 1119 1537 l 1
 1275 1537 l 1
 403 -21 l 1
 268 -21 l 1
412 790 m 0
 223 790 118 944 118 1172 c 0
 118 1389 223 1548 414 1548 c 0
 607 1548 708 1401 708 1168 c 0
 708 953 600 790 412 790 c 0
416 913 m 0
 526 913 580 1032 580 1170 c 0
 580 1316 526 1429 412 1429 c 0
 300 1429 247 1310 247 1172 c 0
 247 1026 301 913 416 913 c 0
EndSplineSet
EndChar
StartChar: guilsinglleft
Encoding: 8249 8249 228
Width: 559
VWidth: 0
GlyphClass: 2
Flags: W
VStem: 67 464
LayerCount: 2
UndoRedoHistory
Layer: 1
Undoes
EndUndoes
Redoes
EndRedoes
EndUndoRedoHistory
Fore
SplineSet
531 978 m 1
 258 565 l 1
 525 160 l 1
 344 160 l 1
 67 565 l 1
 350 978 l 1
 531 978 l 1
EndSplineSet
EndChar
StartChar: guilsinglright
Encoding: 8250 8250 229
Width: 563
VWidth: 0
GlyphClass: 2
Flags: W
VStem: 72 467
LayerCount: 2
UndoRedoHistory
Layer: 1
Undoes
EndUndoes
Redoes
EndRedoes
EndUndoRedoHistory
Fore
SplineSet
72 160 m 1
 344 570 l 1
 78 978 l 1
 259 978 l 1
 539 569 l 1
 253 160 l 1
 72 160 l 1
EndSplineSet
EndChar
StartChar: fraction
Encoding: 8260 8260 216
Width: 1099
VWidth: 0
GlyphClass: 2
Flags: W
HStem: 0 21G<71 264.173>
LayerCount: 2
UndoRedoHistory
Layer: 1
Undoes
EndUndoes
Redoes
EndRedoes
EndUndoRedoHistory
Fore
SplineSet
71 0 m 1
 905 1484 l 1
 1082 1484 l 1
 253 0 l 1
 71 0 l 1
EndSplineSet
EndChar
StartChar: uni2074
Encoding: 8308 8308 551
Width: 765
VWidth: 0
GlyphClass: 2
Flags: W
HStem: 808 138<262 424 563 659> 1434 20G<409.73 563>
VStem: 424 139<625 808 946 1218>
LayerCount: 2
UndoRedoHistory
Layer: 1
Undoes
EndUndoes
Redoes
EndRedoes
EndUndoRedoHistory
Fore
SplineSet
262 946 m 1
 424 946 l 1
 424 1218 l 1
 262 946 l 1
425 625 m 1
 425 808 l 1
 95 808 l 1
 95 921 l 1
 422 1454 l 1
 563 1454 l 1
 563 946 l 1
 659 946 l 1
 670 808 l 1
 562 808 l 1
 561 625 l 1
 425 625 l 1
EndSplineSet
EndChar
StartChar: Euro
Encoding: 8364 8364 38
Width: 1283
VWidth: 0
GlyphClass: 2
Flags: W
HStem: -19 203<644.558 1100.39> 515 130<8 129.679 407.348 881> 792 129<11 127.307 399.472 884> 1273 203<639 1080.04>
VStem: 127 253<645 792>
CounterMasks: 1 f0
LayerCount: 2
UndoRedoHistory
Layer: 1
Undoes
EndUndoes
Redoes
EndRedoes
EndUndoRedoHistory
Fore
SplineSet
1215 67 m 1
 1110 16 982 -19 834 -19 c 0
 508.462350634 -19 229.305588297 156.319752969 144.836715348 515 c 1
 5 515 l 1
 8 645 l 1
 129.679157977 645 l 1
 128.252919173 676.848821393 127 714.612484635 127 734 c 0
 127 744.713869921 127.30745327 768.91521336 127.30745327 792 c 1
 8 792 l 1
 11 921 l 1
 138.111418048 921 l 1
 216.466826139 1298.02927061 506.138039875 1476 827 1476 c 0
 988 1476 1135 1432 1242 1361 c 1
 1166 1189 l 1
 1076 1241 958 1273 845 1273 c 0
 644.330803289 1273 464.764651303 1167.48477638 399.472222922 921 c 1
 888 921 l 1
 884 792 l 1
 380.916176739 792 l 1
 380.305392246 767.174388573 380 740.605084255 380 729 c 0
 380 710.591334082 381.208842976 675.258866504 382.603393916 645 c 1
 884 645 l 1
 881 515 l 1
 407.347967478 515 l 1
 479.221677265 279.67720821 655.856876619 184 862 184 c 0
 975 184 1080 214 1165 255 c 1
 1215 67 l 1
EndSplineSet
EndChar
StartChar: trademark
Encoding: 8482 8482 344
Width: 1709
VWidth: 0
GlyphClass: 2
Flags: W
HStem: 1324 134<72 320 463 710>
VStem: 320 143<619 1324> 793 141<619 1221> 1492 141<619 1225>
CounterMasks: 1 70
LayerCount: 2
UndoRedoHistory
Layer: 1
Undoes
EndUndoes
Redoes
EndRedoes
EndUndoRedoHistory
Fore
SplineSet
320 619 m 1
 320 1324 l 1
 72 1324 l 1
 72 1458 l 1
 710 1458 l 1
 710 1324 l 1
 463 1324 l 1
 463 619 l 1
 320 619 l 1
793 619 m 1
 793 1458 l 1
 980 1458 l 1
 1213 867 l 1
 1458 1458 l 1
 1633 1458 l 1
 1633 619 l 1
 1492 619 l 1
 1492 1225 l 1
 1256 662 l 1
 1157 662 l 1
 934 1221 l 1
 934 619 l 1
 793 619 l 1
EndSplineSet
EndChar
StartChar: partialdiff
Encoding: 8706 8706 296
Width: 1205
VWidth: 0
GlyphClass: 2
Flags: W
HStem: -28 146<387.824 657.121> 929 141<486.668 784.41> 1496 144<409.287 745.322>
VStem: 125 146<250.209 670.454> 924 151<895 1269.13>
CounterMasks: 1 e0
LayerCount: 2
UndoRedoHistory
Layer: 1
Undoes
EndUndoes
Redoes
EndRedoes
EndUndoRedoHistory
Fore
SplineSet
520 118 m 0
 735 118 878 381 910 701 c 1
 875 821 783 929 640 929 c 0
 434 929 271 708 271 448 c 0
 271 249 368 118 520 118 c 0
519 -28 m 0
 245 -28 125 181 125 449 c 0
 125 801 327 1070 614 1070 c 0
 751 1070 856 1007 923 895 c 1
 923 913 924 945 924 973 c 0
 924 1296 809 1496 594 1496 c 0
 492 1496 392 1452 312 1396 c 1
 299 1542 l 1
 382 1599 496 1640 618 1640 c 0
 914 1640 1075 1411 1075 910 c 0
 1075 449 911 -28 519 -28 c 0
EndSplineSet
EndChar
StartChar: uni2206
Encoding: 8710 8710 552
Width: 1385
VWidth: 0
GlyphClass: 2
Flags: W
HStem: 0 172<308 1080>
LayerCount: 2
UndoRedoHistory
Layer: 1
Undoes
EndUndoes
Redoes
EndRedoes
EndUndoRedoHistory
Fore
SplineSet
308 172 m 1
 1080 172 l 1
 724 1186 l 1
 690 1304 l 1
 657 1186 l 1
 308 172 l 1
108 0 m 1
 108 85 l 1
 600 1530 l 1
 789 1530 l 1
 1280 85 l 1
 1280 0 l 1
 108 0 l 1
EndSplineSet
EndChar
StartChar: product
Encoding: 8719 8719 303
Width: 1456
VWidth: 0
GlyphClass: 2
Flags: W
HStem: 0 21G<149 325 1134 1310> 1332 153<325 1134>
VStem: 149 176<0 1332> 1134 176<0 1332>
LayerCount: 2
UndoRedoHistory
Layer: 1
Undoes
EndUndoes
Redoes
EndRedoes
EndUndoRedoHistory
Fore
SplineSet
149 0 m 1
 149 1485 l 1
 1310 1485 l 1
 1310 0 l 1
 1134 0 l 1
 1134 1332 l 1
 325 1332 l 1
 325 0 l 1
 149 0 l 1
EndSplineSet
EndChar
StartChar: summation
Encoding: 8721 8721 336
Width: 1198
VWidth: 0
GlyphClass: 2
Flags: W
HStem: -335 183<328 1184> 1294 176<352 1144>
LayerCount: 2
UndoRedoHistory
Layer: 1
Undoes
EndUndoes
Redoes
EndRedoes
EndUndoRedoHistory
Fore
SplineSet
71 -335 m 1
 71 -221 l 1
 666 574 l 1
 92 1351 l 1
 92 1470 l 1
 1144 1470 l 1
 1144 1294 l 1
 352 1294 l 1
 898 581 l 1
 328 -152 l 1
 1184 -152 l 1
 1184 -335 l 1
 71 -335 l 1
EndSplineSet
EndChar
StartChar: minus
Encoding: 8722 8722 263
Width: 1225
VWidth: 0
GlyphClass: 2
Flags: W
HStem: 491 171<108 1110>
LayerCount: 2
UndoRedoHistory
Layer: 1
Undoes
EndUndoes
Redoes
EndRedoes
EndUndoRedoHistory
Fore
SplineSet
108 491 m 1
 108 662 l 1
 1110 662 l 1
 1110 491 l 1
 108 491 l 1
EndSplineSet
EndChar
StartChar: radical
Encoding: 8730 8730 317
Width: 1265
VWidth: 0
GlyphClass: 2
Flags: W
LayerCount: 2
UndoRedoHistory
Layer: 1
Undoes
EndUndoes
Redoes
EndRedoes
EndUndoRedoHistory
Fore
SplineSet
609 -165 m 1
 278 737 l 1
 126 707 l 1
 111 827 l 1
 370 883 l 1
 609 228 l 1
 668 44 l 1
 803 599 936 1150 1072 1705 c 1
 1184 1705 l 1
 747 -165 l 1
 609 -165 l 1
EndSplineSet
EndChar
StartChar: infinity
Encoding: 8734 8734 243
Width: 1769
VWidth: 0
GlyphClass: 2
Flags: W
HStem: 252 126<336.5 611.942 1155.66 1434.37> 887 123<327.704 614.567 1155.59 1431.61>
VStem: 115 113<491.37 785.085> 1527 122<481.011 795.213>
LayerCount: 2
UndoRedoHistory
Layer: 1
Undoes
EndUndoes
Redoes
EndRedoes
EndUndoRedoHistory
Fore
SplineSet
1298 378 m 0
 1453 378 1527 503 1527 660 c 0
 1527 783 1430 887 1294 887 c 0
 1156 887 1046 765 957 634 c 1
 1079 467 1172 378 1298 378 c 0
473 378 m 0
 605 378 720 494 814 632 c 1
 721 778 609 887 466 887 c 0
 319 887 228 771 228 634 c 0
 228 505 326 378 473 378 c 0
471 252 m 0
 246 252 115 438 115 655 c 0
 115 853 271 1010 467 1010 c 0
 637 1010 763 902 885 740 c 1
 999 897 1125 1010 1298 1010 c 0
 1523 1010 1649 854 1649 638 c 0
 1649 411 1494 252 1296 252 c 0
 1145 252 1021 340 885 521 c 1
 766 364 637 252 471 252 c 0
EndSplineSet
EndChar
StartChar: integral
Encoding: 8747 8747 244
Width: 733
VWidth: 0
GlyphClass: 2
Flags: W
HStem: -419 94<52 259.854> 1406 93<471.891 664.083>
VStem: 309 118<-276.25 1362.33>
LayerCount: 2
UndoRedoHistory
Layer: 1
Undoes
EndUndoes
Redoes
EndRedoes
EndUndoRedoHistory
Fore
SplineSet
165 -419 m 0
 131 -419 94 -415 52 -406 c 1
 52 -312 l 1
 89 -321 122 -325 150 -325 c 0
 290 -325 309 -213 309 -50 c 2
 309 1137 l 2
 309 1377 373 1499 547 1499 c 0
 582 1499 621 1494 666 1484 c 1
 666 1390 l 1
 629 1400 599 1406 571 1406 c 0
 452 1406 427 1305 427 1146 c 2
 427 -42 l 2
 427 -287 350 -419 165 -419 c 0
EndSplineSet
EndChar
StartChar: approxequal
Encoding: 8776 8776 153
Width: 1212
VWidth: 0
GlyphClass: 2
Flags: W
HStem: 318 320<723.568 977.803> 471 321<292.827 552.47>
LayerCount: 2
UndoRedoHistory
Layer: 1
Undoes
EndUndoes
Redoes
EndRedoes
EndUndoRedoHistory
Fore
SplineSet
124 551 m 1x40
 162 694 255 792 409 792 c 0x40
 498 792 585 754 666 712 c 0
 747 669 809 638 867 638 c 0x80
 947 638 1004 689 1060 792 c 1x40
 1156 715 l 1
 1144.16036164 672.93812687 1126.30204165 633.691443533 1102.4552858 599.588873615 c 1
 1155 557 l 1
 1117 422 1016 318 857 318 c 0x80
 767 318 692 349 588 407 c 1
 523 445 468 471 405 471 c 0
 311 471 258 406 226 314 c 1
 123 393 l 1
 135.034920001 436.81945231 152.307290013 476.544170974 174.964038457 510.528557696 c 1
 124 551 l 1x40
EndSplineSet
EndChar
StartChar: notequal
Encoding: 8800 8800 271
Width: 1179
VWidth: 0
GlyphClass: 2
Flags: W
HStem: 327 153<137 390 624 1095> 736 160<137 592 826 1093>
LayerCount: 2
UndoRedoHistory
Layer: 1
Undoes
EndUndoes
Redoes
EndRedoes
EndUndoRedoHistory
Fore
SplineSet
415 44 m 1
 273 67 l 1
 390 327 l 1
 137 327 l 1
 128 481 l 1
 464 481 l 1
 592 736 l 1
 137 736 l 1
 126 896 l 1
 662 896 l 1
 797 1165 l 1
 940 1146 l 1
 826 896 l 1
 1093 896 l 1
 1105 735 l 1
 755 735 l 1
 624 480 l 1
 1095 480 l 1
 1105 327 l 1
 553 327 l 1
 415 44 l 1
EndSplineSet
EndChar
StartChar: lessequal
Encoding: 8804 8804 257
Width: 1141
VWidth: 0
GlyphClass: 2
Flags: W
HStem: 1 148<125 1062>
LayerCount: 2
UndoRedoHistory
Layer: 1
Undoes
EndUndoes
Redoes
EndRedoes
EndUndoRedoHistory
Fore
SplineSet
125 1 m 1
 125 149 l 1
 1062 149 l 1
 1062 1 l 1
 125 1 l 1
1046 276 m 1
 144 715 l 1
 144 821 l 1
 1046 1277 l 1
 1046 1098 l 1
 372 769 l 1
 1046 457 l 1
 1046 276 l 1
EndSplineSet
EndChar
StartChar: greaterequal
Encoding: 8805 8805 225
Width: 1139
VWidth: 0
GlyphClass: 2
Flags: W
HStem: 5 150<131 1064>
LayerCount: 2
UndoRedoHistory
Layer: 1
Undoes
EndUndoes
Redoes
EndRedoes
EndUndoRedoHistory
Fore
SplineSet
131 5 m 1
 131 155 l 1
 1064 155 l 1
 1064 5 l 1
 131 5 l 1
148 220 m 1
 148 401 l 1
 847 740 l 1
 150 1099 l 1
 150 1278 l 1
 1053 792 l 1
 1053 688 l 1
 148 220 l 1
EndSplineSet
EndChar
StartChar: lozenge
Encoding: 9674 9674 259
Width: 1127
VWidth: 0
GlyphClass: 2
Flags: W
LayerCount: 2
UndoRedoHistory
Layer: 1
Undoes
EndUndoes
Redoes
EndRedoes
EndUndoRedoHistory
Fore
SplineSet
581 142 m 1
 689 340 801 538 908 735 c 1
 804 931 695 1128 592 1326 c 1
 484 1130 374 932 267 736 c 1
 371 539 475 338 581 142 c 1
523 -46 m 1
 99 734 l 1
 530 1518 l 1
 651 1518 l 1
 1076 735 l 1
 642 -46 l 1
 523 -46 l 1
EndSplineSet
EndChar
StartChar: .notdef
Encoding: 65536 -1 0
Width: 1012
VWidth: 0
Flags: W
HStem: -267 105<209 841> 1236 105<209 841>
VStem: 105 104<-162 1236> 841 104<-162 1236>
LayerCount: 2
UndoRedoHistory
Layer: 1
Undoes
EndUndoes
Redoes
EndRedoes
EndUndoRedoHistory
Fore
SplineSet
105 -267 m 1
 105 1341 l 1
 945 1341 l 1
 945 -267 l 1
 105 -267 l 1
209 -162 m 1
 841 -162 l 1
 841 1236 l 1
 209 1236 l 1
 209 -162 l 1
EndSplineSet
EndChar
StartChar: middot
Encoding: 65537 -1 262
Width: 405
VWidth: 0
GlyphClass: 2
Flags: W
HStem: 558 196<116 284>
VStem: 116 168<558 754>
LayerCount: 2
UndoRedoHistory
Layer: 1
Undoes
EndUndoes
Redoes
EndRedoes
EndUndoRedoHistory
Fore
SplineSet
116 558 m 1
 116 754 l 1
 284 754 l 1
 284 558 l 1
 116 558 l 1
EndSplineSet
EndChar
